<mxfile host="drawio-plugin" modified="2021-07-08T03:52:15.137Z" agent="5.0 (X11; Linux x86_64) AppleWebKit/537.36 (KHTML, like Gecko) Chrome/89.0.4389.90 Safari/537.36" etag="m-TfslhoDbqeOpHUPL9S" version="14.7.4" type="embed"><diagram id="R2lEEEUBdFMjLlhIrx00" name="Page-1"><mxGraphModel dx="1642" dy="441" grid="1" gridSize="10" guides="1" tooltips="1" connect="1" arrows="1" fold="1" page="1" pageScale="1" pageWidth="850" pageHeight="1100" background="#F1FAEE" math="0" shadow="0" extFonts="Permanent Marker^https://fonts.googleapis.com/css?family=Permanent+Marker"><root><mxCell id="0"/><mxCell id="1" parent="0"/><mxCell id="7h7oOzLDd36lB9lt4ihk-220" value="" style="group;fontColor=#1D3557;" parent="1" vertex="1" connectable="0"><mxGeometry x="130" y="20" width="970" height="660" as="geometry"/></mxCell><mxCell id="7h7oOzLDd36lB9lt4ihk-214" value="" style="rounded=0;whiteSpace=wrap;html=1;fontColor=#1D3557;strokeColor=#457B9D;fillColor=#A8DADC;" parent="7h7oOzLDd36lB9lt4ihk-220" vertex="1"><mxGeometry width="970" height="660" as="geometry"/></mxCell><mxCell id="PxoyzZppylZhse1H5BM7-225" value="Receipt" style="shape=table;startSize=30;container=1;collapsible=1;childLayout=tableLayout;fixedRows=1;rowLines=0;fontStyle=1;align=center;resizeLast=1;fillColor=#A8DADC;strokeColor=#457B9D;fontColor=#1D3557;" parent="7h7oOzLDd36lB9lt4ihk-220" vertex="1"><mxGeometry x="40" y="20" width="200" height="280" as="geometry"/></mxCell><mxCell id="PxoyzZppylZhse1H5BM7-226" value="" style="shape=partialRectangle;collapsible=0;dropTarget=0;pointerEvents=0;fillColor=none;top=0;left=0;bottom=1;right=0;points=[[0,0.5],[1,0.5]];portConstraint=eastwest;strokeColor=#457B9D;fontColor=#1D3557;" parent="PxoyzZppylZhse1H5BM7-225" vertex="1"><mxGeometry y="30" width="200" height="30" as="geometry"/></mxCell><mxCell id="PxoyzZppylZhse1H5BM7-227" value="PK" style="shape=partialRectangle;connectable=0;fillColor=none;top=0;left=0;bottom=0;right=0;fontStyle=1;overflow=hidden;strokeColor=#457B9D;fontColor=#1D3557;" parent="PxoyzZppylZhse1H5BM7-226" vertex="1"><mxGeometry width="30" height="30" as="geometry"/></mxCell><mxCell id="PxoyzZppylZhse1H5BM7-228" value="id" style="shape=partialRectangle;connectable=0;fillColor=none;top=0;left=0;bottom=0;right=0;align=left;spacingLeft=6;fontStyle=5;overflow=hidden;strokeColor=#457B9D;fontColor=#1D3557;" parent="PxoyzZppylZhse1H5BM7-226" vertex="1"><mxGeometry x="30" width="170" height="30" as="geometry"/></mxCell><mxCell id="PxoyzZppylZhse1H5BM7-229" value="" style="shape=partialRectangle;collapsible=0;dropTarget=0;pointerEvents=0;fillColor=none;top=0;left=0;bottom=0;right=0;points=[[0,0.5],[1,0.5]];portConstraint=eastwest;strokeColor=#457B9D;fontColor=#1D3557;" parent="PxoyzZppylZhse1H5BM7-225" vertex="1"><mxGeometry y="60" width="200" height="30" as="geometry"/></mxCell><mxCell id="PxoyzZppylZhse1H5BM7-230" value="" style="shape=partialRectangle;connectable=0;fillColor=none;top=0;left=0;bottom=0;right=0;editable=1;overflow=hidden;strokeColor=#457B9D;fontColor=#1D3557;" parent="PxoyzZppylZhse1H5BM7-229" vertex="1"><mxGeometry width="30" height="30" as="geometry"/></mxCell><mxCell id="PxoyzZppylZhse1H5BM7-231" value="is_passed - BooleanField" style="shape=partialRectangle;connectable=0;fillColor=none;top=0;left=0;bottom=0;right=0;align=left;spacingLeft=6;overflow=hidden;strokeColor=#457B9D;fontColor=#1D3557;" parent="PxoyzZppylZhse1H5BM7-229" vertex="1"><mxGeometry x="30" width="170" height="30" as="geometry"/></mxCell><mxCell id="PxoyzZppylZhse1H5BM7-232" value="" style="shape=partialRectangle;collapsible=0;dropTarget=0;pointerEvents=0;fillColor=none;top=0;left=0;bottom=0;right=0;points=[[0,0.5],[1,0.5]];portConstraint=eastwest;strokeColor=#457B9D;fontColor=#1D3557;" parent="PxoyzZppylZhse1H5BM7-225" vertex="1"><mxGeometry y="90" width="200" height="30" as="geometry"/></mxCell><mxCell id="PxoyzZppylZhse1H5BM7-233" value="" style="shape=partialRectangle;connectable=0;fillColor=none;top=0;left=0;bottom=0;right=0;editable=1;overflow=hidden;strokeColor=#457B9D;fontColor=#1D3557;" parent="PxoyzZppylZhse1H5BM7-232" vertex="1"><mxGeometry width="30" height="30" as="geometry"/></mxCell><mxCell id="PxoyzZppylZhse1H5BM7-234" value="is_paid - BooleanField" style="shape=partialRectangle;connectable=0;fillColor=none;top=0;left=0;bottom=0;right=0;align=left;spacingLeft=6;overflow=hidden;strokeColor=#457B9D;fontColor=#1D3557;" parent="PxoyzZppylZhse1H5BM7-232" vertex="1"><mxGeometry x="30" width="170" height="30" as="geometry"/></mxCell><mxCell id="PxoyzZppylZhse1H5BM7-235" value="" style="shape=partialRectangle;collapsible=0;dropTarget=0;pointerEvents=0;fillColor=none;top=0;left=0;bottom=0;right=0;points=[[0,0.5],[1,0.5]];portConstraint=eastwest;strokeColor=#457B9D;fontColor=#1D3557;" parent="PxoyzZppylZhse1H5BM7-225" vertex="1"><mxGeometry y="120" width="200" height="30" as="geometry"/></mxCell><mxCell id="PxoyzZppylZhse1H5BM7-236" value="" style="shape=partialRectangle;connectable=0;fillColor=none;top=0;left=0;bottom=0;right=0;editable=1;overflow=hidden;strokeColor=#457B9D;fontColor=#1D3557;" parent="PxoyzZppylZhse1H5BM7-235" vertex="1"><mxGeometry width="30" height="30" as="geometry"/></mxCell><mxCell id="PxoyzZppylZhse1H5BM7-237" value="period - DateRangeField " style="shape=partialRectangle;connectable=0;fillColor=none;top=0;left=0;bottom=0;right=0;align=left;spacingLeft=6;overflow=hidden;strokeColor=#457B9D;fontColor=#1D3557;" parent="PxoyzZppylZhse1H5BM7-235" vertex="1"><mxGeometry x="30" width="170" height="30" as="geometry"/></mxCell><mxCell id="PxoyzZppylZhse1H5BM7-363" value="" style="shape=partialRectangle;collapsible=0;dropTarget=0;pointerEvents=0;fillColor=none;top=0;left=0;bottom=0;right=0;points=[[0,0.5],[1,0.5]];portConstraint=eastwest;strokeColor=#457B9D;fontColor=#1D3557;" parent="PxoyzZppylZhse1H5BM7-225" vertex="1"><mxGeometry y="150" width="200" height="30" as="geometry"/></mxCell><mxCell id="PxoyzZppylZhse1H5BM7-364" value="" style="shape=partialRectangle;connectable=0;fillColor=none;top=0;left=0;bottom=0;right=0;editable=1;overflow=hidden;strokeColor=#457B9D;fontColor=#1D3557;" parent="PxoyzZppylZhse1H5BM7-363" vertex="1"><mxGeometry width="30" height="30" as="geometry"/></mxCell><mxCell id="PxoyzZppylZhse1H5BM7-365" value="created - DateTimeField" style="shape=partialRectangle;connectable=0;fillColor=none;top=0;left=0;bottom=0;right=0;align=left;spacingLeft=6;overflow=hidden;strokeColor=#457B9D;fontColor=#1D3557;" parent="PxoyzZppylZhse1H5BM7-363" vertex="1"><mxGeometry x="30" width="170" height="30" as="geometry"/></mxCell><mxCell id="PxoyzZppylZhse1H5BM7-238" value="" style="shape=partialRectangle;collapsible=0;dropTarget=0;pointerEvents=0;fillColor=none;top=0;left=0;bottom=0;right=0;points=[[0,0.5],[1,0.5]];portConstraint=eastwest;strokeColor=#457B9D;fontColor=#1D3557;" parent="PxoyzZppylZhse1H5BM7-225" vertex="1"><mxGeometry y="180" width="200" height="30" as="geometry"/></mxCell><mxCell id="PxoyzZppylZhse1H5BM7-239" value="FK" style="shape=partialRectangle;connectable=0;fillColor=none;top=0;left=0;bottom=0;right=0;fontStyle=1;overflow=hidden;strokeColor=#457B9D;fontColor=#1D3557;" parent="PxoyzZppylZhse1H5BM7-238" vertex="1"><mxGeometry width="30" height="30" as="geometry"/></mxCell><mxCell id="PxoyzZppylZhse1H5BM7-240" value="account - ForeignKey" style="shape=partialRectangle;connectable=0;fillColor=none;top=0;left=0;bottom=0;right=0;align=left;spacingLeft=6;fontStyle=0;overflow=hidden;strokeColor=#457B9D;fontColor=#1D3557;" parent="PxoyzZppylZhse1H5BM7-238" vertex="1"><mxGeometry x="30" width="170" height="30" as="geometry"/></mxCell><mxCell id="PxoyzZppylZhse1H5BM7-243" value="" style="shape=partialRectangle;collapsible=0;dropTarget=0;pointerEvents=0;fillColor=none;top=0;left=0;bottom=0;right=0;points=[[0,0.5],[1,0.5]];portConstraint=eastwest;strokeColor=#457B9D;fontColor=#1D3557;" parent="PxoyzZppylZhse1H5BM7-225" vertex="1"><mxGeometry y="210" width="200" height="30" as="geometry"/></mxCell><mxCell id="PxoyzZppylZhse1H5BM7-244" value="FK" style="shape=partialRectangle;connectable=0;fillColor=none;top=0;left=0;bottom=0;right=0;fontStyle=1;overflow=hidden;strokeColor=#457B9D;fontColor=#1D3557;" parent="PxoyzZppylZhse1H5BM7-243" vertex="1"><mxGeometry width="30" height="30" as="geometry"/></mxCell><mxCell id="PxoyzZppylZhse1H5BM7-245" value="tariff - ForeignKey" style="shape=partialRectangle;connectable=0;fillColor=none;top=0;left=0;bottom=0;right=0;align=left;spacingLeft=6;fontStyle=0;overflow=hidden;strokeColor=#457B9D;fontColor=#1D3557;" parent="PxoyzZppylZhse1H5BM7-243" vertex="1"><mxGeometry x="30" width="170" height="30" as="geometry"/></mxCell><mxCell id="PxoyzZppylZhse1H5BM7-273" value="" style="shape=partialRectangle;collapsible=0;dropTarget=0;pointerEvents=0;fillColor=none;top=0;left=0;bottom=0;right=0;points=[[0,0.5],[1,0.5]];portConstraint=eastwest;strokeColor=#457B9D;fontColor=#1D3557;" parent="PxoyzZppylZhse1H5BM7-225" vertex="1"><mxGeometry y="240" width="200" height="30" as="geometry"/></mxCell><mxCell id="PxoyzZppylZhse1H5BM7-274" value="MMF" style="shape=partialRectangle;connectable=0;fillColor=none;top=0;left=0;bottom=0;right=0;fontStyle=1;overflow=hidden;strokeColor=#457B9D;fontColor=#1D3557;" parent="PxoyzZppylZhse1H5BM7-273" vertex="1"><mxGeometry width="30" height="30" as="geometry"/></mxCell><mxCell id="PxoyzZppylZhse1H5BM7-275" value="services - ManyToManyField" style="shape=partialRectangle;connectable=0;fillColor=none;top=0;left=0;bottom=0;right=0;align=left;spacingLeft=6;fontStyle=0;overflow=hidden;strokeColor=#457B9D;fontColor=#1D3557;" parent="PxoyzZppylZhse1H5BM7-273" vertex="1"><mxGeometry x="30" width="170" height="30" as="geometry"/></mxCell><mxCell id="PxoyzZppylZhse1H5BM7-246" value="Tariff" style="shape=table;startSize=30;container=1;collapsible=1;childLayout=tableLayout;fixedRows=1;rowLines=0;fontStyle=1;align=center;resizeLast=1;fillColor=#A8DADC;strokeColor=#457B9D;fontColor=#1D3557;" parent="7h7oOzLDd36lB9lt4ihk-220" vertex="1"><mxGeometry x="280" y="20" width="200" height="180" as="geometry"/></mxCell><mxCell id="PxoyzZppylZhse1H5BM7-247" value="" style="shape=partialRectangle;collapsible=0;dropTarget=0;pointerEvents=0;fillColor=none;top=0;left=0;bottom=1;right=0;points=[[0,0.5],[1,0.5]];portConstraint=eastwest;strokeColor=#457B9D;fontColor=#1D3557;" parent="PxoyzZppylZhse1H5BM7-246" vertex="1"><mxGeometry y="30" width="200" height="30" as="geometry"/></mxCell><mxCell id="PxoyzZppylZhse1H5BM7-248" value="PK" style="shape=partialRectangle;connectable=0;fillColor=none;top=0;left=0;bottom=0;right=0;fontStyle=1;overflow=hidden;strokeColor=#457B9D;fontColor=#1D3557;" parent="PxoyzZppylZhse1H5BM7-247" vertex="1"><mxGeometry width="30" height="30" as="geometry"/></mxCell><mxCell id="PxoyzZppylZhse1H5BM7-249" value="id" style="shape=partialRectangle;connectable=0;fillColor=none;top=0;left=0;bottom=0;right=0;align=left;spacingLeft=6;fontStyle=5;overflow=hidden;strokeColor=#457B9D;fontColor=#1D3557;" parent="PxoyzZppylZhse1H5BM7-247" vertex="1"><mxGeometry x="30" width="170" height="30" as="geometry"/></mxCell><mxCell id="PxoyzZppylZhse1H5BM7-250" value="" style="shape=partialRectangle;collapsible=0;dropTarget=0;pointerEvents=0;fillColor=none;top=0;left=0;bottom=0;right=0;points=[[0,0.5],[1,0.5]];portConstraint=eastwest;strokeColor=#457B9D;fontColor=#1D3557;" parent="PxoyzZppylZhse1H5BM7-246" vertex="1"><mxGeometry y="60" width="200" height="30" as="geometry"/></mxCell><mxCell id="PxoyzZppylZhse1H5BM7-251" value="" style="shape=partialRectangle;connectable=0;fillColor=none;top=0;left=0;bottom=0;right=0;editable=1;overflow=hidden;strokeColor=#457B9D;fontColor=#1D3557;" parent="PxoyzZppylZhse1H5BM7-250" vertex="1"><mxGeometry width="30" height="30" as="geometry"/></mxCell><mxCell id="PxoyzZppylZhse1H5BM7-252" value="name - CharField" style="shape=partialRectangle;connectable=0;fillColor=none;top=0;left=0;bottom=0;right=0;align=left;spacingLeft=6;overflow=hidden;strokeColor=#457B9D;fontColor=#1D3557;" parent="PxoyzZppylZhse1H5BM7-250" vertex="1"><mxGeometry x="30" width="170" height="30" as="geometry"/></mxCell><mxCell id="PxoyzZppylZhse1H5BM7-253" value="" style="shape=partialRectangle;collapsible=0;dropTarget=0;pointerEvents=0;fillColor=none;top=0;left=0;bottom=0;right=0;points=[[0,0.5],[1,0.5]];portConstraint=eastwest;strokeColor=#457B9D;fontColor=#1D3557;" parent="PxoyzZppylZhse1H5BM7-246" vertex="1"><mxGeometry y="90" width="200" height="30" as="geometry"/></mxCell><mxCell id="PxoyzZppylZhse1H5BM7-254" value="" style="shape=partialRectangle;connectable=0;fillColor=none;top=0;left=0;bottom=0;right=0;editable=1;overflow=hidden;strokeColor=#457B9D;fontColor=#1D3557;" parent="PxoyzZppylZhse1H5BM7-253" vertex="1"><mxGeometry width="30" height="30" as="geometry"/></mxCell><mxCell id="PxoyzZppylZhse1H5BM7-255" value="description - CharField" style="shape=partialRectangle;connectable=0;fillColor=none;top=0;left=0;bottom=0;right=0;align=left;spacingLeft=6;overflow=hidden;strokeColor=#457B9D;fontColor=#1D3557;" parent="PxoyzZppylZhse1H5BM7-253" vertex="1"><mxGeometry x="30" width="170" height="30" as="geometry"/></mxCell><mxCell id="PxoyzZppylZhse1H5BM7-256" value="" style="shape=partialRectangle;collapsible=0;dropTarget=0;pointerEvents=0;fillColor=none;top=0;left=0;bottom=0;right=0;points=[[0,0.5],[1,0.5]];portConstraint=eastwest;strokeColor=#457B9D;fontColor=#1D3557;" parent="PxoyzZppylZhse1H5BM7-246" vertex="1"><mxGeometry y="120" width="200" height="30" as="geometry"/></mxCell><mxCell id="PxoyzZppylZhse1H5BM7-257" value="" style="shape=partialRectangle;connectable=0;fillColor=none;top=0;left=0;bottom=0;right=0;editable=1;overflow=hidden;strokeColor=#457B9D;fontColor=#1D3557;" parent="PxoyzZppylZhse1H5BM7-256" vertex="1"><mxGeometry width="30" height="30" as="geometry"/></mxCell><mxCell id="PxoyzZppylZhse1H5BM7-258" value="changed - DateTimeField" style="shape=partialRectangle;connectable=0;fillColor=none;top=0;left=0;bottom=0;right=0;align=left;spacingLeft=6;overflow=hidden;strokeColor=#457B9D;fontColor=#1D3557;" parent="PxoyzZppylZhse1H5BM7-256" vertex="1"><mxGeometry x="30" width="170" height="30" as="geometry"/></mxCell><mxCell id="7h7oOzLDd36lB9lt4ihk-147" value="" style="shape=partialRectangle;collapsible=0;dropTarget=0;pointerEvents=0;fillColor=none;top=0;left=0;bottom=0;right=0;points=[[0,0.5],[1,0.5]];portConstraint=eastwest;strokeColor=#457B9D;fontColor=#1D3557;" parent="PxoyzZppylZhse1H5BM7-246" vertex="1"><mxGeometry y="150" width="200" height="30" as="geometry"/></mxCell><mxCell id="7h7oOzLDd36lB9lt4ihk-148" value="MMF" style="shape=partialRectangle;connectable=0;fillColor=none;top=0;left=0;bottom=0;right=0;fontStyle=0;overflow=hidden;strokeColor=#457B9D;fontColor=#1D3557;" parent="7h7oOzLDd36lB9lt4ihk-147" vertex="1"><mxGeometry width="30" height="30" as="geometry"/></mxCell><mxCell id="7h7oOzLDd36lB9lt4ihk-149" value="services - ManyToManyField" style="shape=partialRectangle;connectable=0;fillColor=none;top=0;left=0;bottom=0;right=0;align=left;spacingLeft=6;fontStyle=0;overflow=hidden;strokeColor=#457B9D;fontColor=#1D3557;" parent="7h7oOzLDd36lB9lt4ihk-147" vertex="1"><mxGeometry x="30" width="170" height="30" as="geometry"/></mxCell><mxCell id="PxoyzZppylZhse1H5BM7-259" value="" style="edgeStyle=elbowEdgeStyle;fontSize=12;html=1;endArrow=ERoneToMany;startArrow=ERzeroToOne;entryX=1;entryY=0.5;entryDx=0;entryDy=0;exitX=0;exitY=0.5;exitDx=0;exitDy=0;labelBackgroundColor=#F1FAEE;strokeColor=#457B9D;fontColor=#1D3557;" parent="7h7oOzLDd36lB9lt4ihk-220" source="PxoyzZppylZhse1H5BM7-247" target="PxoyzZppylZhse1H5BM7-243" edge="1"><mxGeometry width="100" height="100" relative="1" as="geometry"><mxPoint x="190" y="510" as="sourcePoint"/><mxPoint x="290" y="410" as="targetPoint"/></mxGeometry></mxCell><mxCell id="PxoyzZppylZhse1H5BM7-260" value="Service" style="shape=table;startSize=30;container=1;collapsible=1;childLayout=tableLayout;fixedRows=1;rowLines=0;fontStyle=1;align=center;resizeLast=1;fillColor=#A8DADC;strokeColor=#457B9D;fontColor=#1D3557;" parent="7h7oOzLDd36lB9lt4ihk-220" vertex="1"><mxGeometry x="490" y="250" width="200" height="190" as="geometry"/></mxCell><mxCell id="PxoyzZppylZhse1H5BM7-261" value="" style="shape=partialRectangle;collapsible=0;dropTarget=0;pointerEvents=0;fillColor=none;top=0;left=0;bottom=1;right=0;points=[[0,0.5],[1,0.5]];portConstraint=eastwest;strokeColor=#457B9D;fontColor=#1D3557;" parent="PxoyzZppylZhse1H5BM7-260" vertex="1"><mxGeometry y="30" width="200" height="30" as="geometry"/></mxCell><mxCell id="PxoyzZppylZhse1H5BM7-262" value="PK" style="shape=partialRectangle;connectable=0;fillColor=none;top=0;left=0;bottom=0;right=0;fontStyle=1;overflow=hidden;strokeColor=#457B9D;fontColor=#1D3557;" parent="PxoyzZppylZhse1H5BM7-261" vertex="1"><mxGeometry width="30" height="30" as="geometry"/></mxCell><mxCell id="PxoyzZppylZhse1H5BM7-263" value="id" style="shape=partialRectangle;connectable=0;fillColor=none;top=0;left=0;bottom=0;right=0;align=left;spacingLeft=6;fontStyle=5;overflow=hidden;strokeColor=#457B9D;fontColor=#1D3557;" parent="PxoyzZppylZhse1H5BM7-261" vertex="1"><mxGeometry x="30" width="170" height="30" as="geometry"/></mxCell><mxCell id="PxoyzZppylZhse1H5BM7-264" value="" style="shape=partialRectangle;collapsible=0;dropTarget=0;pointerEvents=0;fillColor=none;top=0;left=0;bottom=0;right=0;points=[[0,0.5],[1,0.5]];portConstraint=eastwest;strokeColor=#457B9D;fontColor=#1D3557;" parent="PxoyzZppylZhse1H5BM7-260" vertex="1"><mxGeometry y="60" width="200" height="30" as="geometry"/></mxCell><mxCell id="PxoyzZppylZhse1H5BM7-265" value="" style="shape=partialRectangle;connectable=0;fillColor=none;top=0;left=0;bottom=0;right=0;editable=1;overflow=hidden;strokeColor=#457B9D;fontColor=#1D3557;" parent="PxoyzZppylZhse1H5BM7-264" vertex="1"><mxGeometry width="30" height="30" as="geometry"/></mxCell><mxCell id="PxoyzZppylZhse1H5BM7-266" value="name - CharField" style="shape=partialRectangle;connectable=0;fillColor=none;top=0;left=0;bottom=0;right=0;align=left;spacingLeft=6;overflow=hidden;strokeColor=#457B9D;fontColor=#1D3557;" parent="PxoyzZppylZhse1H5BM7-264" vertex="1"><mxGeometry x="30" width="170" height="30" as="geometry"/></mxCell><mxCell id="PxoyzZppylZhse1H5BM7-267" value="" style="shape=partialRectangle;collapsible=0;dropTarget=0;pointerEvents=0;fillColor=none;top=0;left=0;bottom=0;right=0;points=[[0,0.5],[1,0.5]];portConstraint=eastwest;strokeColor=#457B9D;fontColor=#1D3557;" parent="PxoyzZppylZhse1H5BM7-260" vertex="1"><mxGeometry y="90" width="200" height="30" as="geometry"/></mxCell><mxCell id="PxoyzZppylZhse1H5BM7-268" value="" style="shape=partialRectangle;connectable=0;fillColor=none;top=0;left=0;bottom=0;right=0;editable=1;overflow=hidden;strokeColor=#457B9D;fontColor=#1D3557;" parent="PxoyzZppylZhse1H5BM7-267" vertex="1"><mxGeometry width="30" height="30" as="geometry"/></mxCell><mxCell id="PxoyzZppylZhse1H5BM7-269" value="is_removable - BooleanField " style="shape=partialRectangle;connectable=0;fillColor=none;top=0;left=0;bottom=0;right=0;align=left;spacingLeft=6;overflow=hidden;strokeColor=#457B9D;fontColor=#1D3557;" parent="PxoyzZppylZhse1H5BM7-267" vertex="1"><mxGeometry x="30" width="170" height="30" as="geometry"/></mxCell><mxCell id="PxoyzZppylZhse1H5BM7-270" value="" style="shape=partialRectangle;collapsible=0;dropTarget=0;pointerEvents=0;fillColor=none;top=0;left=0;bottom=0;right=0;points=[[0,0.5],[1,0.5]];portConstraint=eastwest;strokeColor=#457B9D;fontColor=#1D3557;" parent="PxoyzZppylZhse1H5BM7-260" vertex="1"><mxGeometry y="120" width="200" height="30" as="geometry"/></mxCell><mxCell id="PxoyzZppylZhse1H5BM7-271" value="" style="shape=partialRectangle;connectable=0;fillColor=none;top=0;left=0;bottom=0;right=0;editable=1;overflow=hidden;strokeColor=#457B9D;fontColor=#1D3557;" parent="PxoyzZppylZhse1H5BM7-270" vertex="1"><mxGeometry width="30" height="30" as="geometry"/></mxCell><mxCell id="PxoyzZppylZhse1H5BM7-272" value="is_shown - BooleanField" style="shape=partialRectangle;connectable=0;fillColor=none;top=0;left=0;bottom=0;right=0;align=left;spacingLeft=6;overflow=hidden;strokeColor=#457B9D;fontColor=#1D3557;" parent="PxoyzZppylZhse1H5BM7-270" vertex="1"><mxGeometry x="30" width="170" height="30" as="geometry"/></mxCell><mxCell id="PxoyzZppylZhse1H5BM7-290" value="" style="shape=partialRectangle;collapsible=0;dropTarget=0;pointerEvents=0;fillColor=none;top=0;left=0;bottom=0;right=0;points=[[0,0.5],[1,0.5]];portConstraint=eastwest;strokeColor=#457B9D;fontColor=#1D3557;" parent="PxoyzZppylZhse1H5BM7-260" vertex="1"><mxGeometry y="150" width="200" height="30" as="geometry"/></mxCell><mxCell id="PxoyzZppylZhse1H5BM7-291" value="FK" style="shape=partialRectangle;connectable=0;fillColor=none;top=0;left=0;bottom=0;right=0;fontStyle=1;overflow=hidden;strokeColor=#457B9D;fontColor=#1D3557;" parent="PxoyzZppylZhse1H5BM7-290" vertex="1"><mxGeometry width="30" height="30" as="geometry"/></mxCell><mxCell id="PxoyzZppylZhse1H5BM7-292" value="measure - ForeignKey" style="shape=partialRectangle;connectable=0;fillColor=none;top=0;left=0;bottom=0;right=0;align=left;spacingLeft=6;fontStyle=0;overflow=hidden;strokeColor=#457B9D;fontColor=#1D3557;" parent="PxoyzZppylZhse1H5BM7-290" vertex="1"><mxGeometry x="30" width="170" height="30" as="geometry"/></mxCell><mxCell id="PxoyzZppylZhse1H5BM7-276" value="" style="edgeStyle=elbowEdgeStyle;fontSize=12;html=1;endArrow=ERzeroToMany;endFill=1;startArrow=ERzeroToMany;entryX=1;entryY=0.5;entryDx=0;entryDy=0;exitX=0;exitY=0.5;exitDx=0;exitDy=0;labelBackgroundColor=#F1FAEE;strokeColor=#457B9D;fontColor=#1D3557;" parent="7h7oOzLDd36lB9lt4ihk-220" source="PxoyzZppylZhse1H5BM7-261" target="PxoyzZppylZhse1H5BM7-273" edge="1"><mxGeometry width="100" height="100" relative="1" as="geometry"><mxPoint y="610" as="sourcePoint"/><mxPoint x="100" y="510" as="targetPoint"/><Array as="points"><mxPoint x="340" y="295"/><mxPoint x="410" y="325"/></Array></mxGeometry></mxCell><mxCell id="PxoyzZppylZhse1H5BM7-277" value="Measure" style="shape=table;startSize=30;container=1;collapsible=1;childLayout=tableLayout;fixedRows=1;rowLines=0;fontStyle=1;align=center;resizeLast=1;fillColor=#A8DADC;strokeColor=#457B9D;fontColor=#1D3557;" parent="7h7oOzLDd36lB9lt4ihk-220" vertex="1"><mxGeometry x="740" y="290" width="200" height="100" as="geometry"/></mxCell><mxCell id="PxoyzZppylZhse1H5BM7-278" value="" style="shape=partialRectangle;collapsible=0;dropTarget=0;pointerEvents=0;fillColor=none;top=0;left=0;bottom=1;right=0;points=[[0,0.5],[1,0.5]];portConstraint=eastwest;strokeColor=#457B9D;fontColor=#1D3557;" parent="PxoyzZppylZhse1H5BM7-277" vertex="1"><mxGeometry y="30" width="200" height="30" as="geometry"/></mxCell><mxCell id="PxoyzZppylZhse1H5BM7-279" value="PK" style="shape=partialRectangle;connectable=0;fillColor=none;top=0;left=0;bottom=0;right=0;fontStyle=1;overflow=hidden;strokeColor=#457B9D;fontColor=#1D3557;" parent="PxoyzZppylZhse1H5BM7-278" vertex="1"><mxGeometry width="30" height="30" as="geometry"/></mxCell><mxCell id="PxoyzZppylZhse1H5BM7-280" value="id" style="shape=partialRectangle;connectable=0;fillColor=none;top=0;left=0;bottom=0;right=0;align=left;spacingLeft=6;fontStyle=5;overflow=hidden;strokeColor=#457B9D;fontColor=#1D3557;" parent="PxoyzZppylZhse1H5BM7-278" vertex="1"><mxGeometry x="30" width="170" height="30" as="geometry"/></mxCell><mxCell id="PxoyzZppylZhse1H5BM7-281" value="" style="shape=partialRectangle;collapsible=0;dropTarget=0;pointerEvents=0;fillColor=none;top=0;left=0;bottom=0;right=0;points=[[0,0.5],[1,0.5]];portConstraint=eastwest;strokeColor=#457B9D;fontColor=#1D3557;" parent="PxoyzZppylZhse1H5BM7-277" vertex="1"><mxGeometry y="60" width="200" height="30" as="geometry"/></mxCell><mxCell id="PxoyzZppylZhse1H5BM7-282" value="" style="shape=partialRectangle;connectable=0;fillColor=none;top=0;left=0;bottom=0;right=0;editable=1;overflow=hidden;strokeColor=#457B9D;fontColor=#1D3557;" parent="PxoyzZppylZhse1H5BM7-281" vertex="1"><mxGeometry width="30" height="30" as="geometry"/></mxCell><mxCell id="PxoyzZppylZhse1H5BM7-283" value="name - CharField" style="shape=partialRectangle;connectable=0;fillColor=none;top=0;left=0;bottom=0;right=0;align=left;spacingLeft=6;overflow=hidden;strokeColor=#457B9D;fontColor=#1D3557;" parent="PxoyzZppylZhse1H5BM7-281" vertex="1"><mxGeometry x="30" width="170" height="30" as="geometry"/></mxCell><mxCell id="PxoyzZppylZhse1H5BM7-293" value="" style="edgeStyle=elbowEdgeStyle;fontSize=12;html=1;endArrow=ERoneToMany;startArrow=ERzeroToOne;entryX=1;entryY=0.5;entryDx=0;entryDy=0;exitX=0;exitY=0.5;exitDx=0;exitDy=0;endFill=0;labelBackgroundColor=#F1FAEE;strokeColor=#457B9D;fontColor=#1D3557;" parent="7h7oOzLDd36lB9lt4ihk-220" source="PxoyzZppylZhse1H5BM7-278" target="PxoyzZppylZhse1H5BM7-290" edge="1"><mxGeometry width="100" height="100" relative="1" as="geometry"><mxPoint x="740" y="640" as="sourcePoint"/><mxPoint x="840" y="540" as="targetPoint"/></mxGeometry></mxCell><mxCell id="PxoyzZppylZhse1H5BM7-294" value="Bill" style="shape=table;startSize=30;container=1;collapsible=1;childLayout=tableLayout;fixedRows=1;rowLines=0;fontStyle=1;align=center;resizeLast=1;fillColor=#A8DADC;strokeColor=#457B9D;fontColor=#1D3557;" parent="7h7oOzLDd36lB9lt4ihk-220" vertex="1"><mxGeometry x="260" y="330" width="190" height="220" as="geometry"/></mxCell><mxCell id="PxoyzZppylZhse1H5BM7-295" value="" style="shape=partialRectangle;collapsible=0;dropTarget=0;pointerEvents=0;fillColor=none;top=0;left=0;bottom=1;right=0;points=[[0,0.5],[1,0.5]];portConstraint=eastwest;strokeColor=#457B9D;fontColor=#1D3557;" parent="PxoyzZppylZhse1H5BM7-294" vertex="1"><mxGeometry y="30" width="190" height="30" as="geometry"/></mxCell><mxCell id="PxoyzZppylZhse1H5BM7-296" value="PK" style="shape=partialRectangle;connectable=0;fillColor=none;top=0;left=0;bottom=0;right=0;fontStyle=1;overflow=hidden;strokeColor=#457B9D;fontColor=#1D3557;" parent="PxoyzZppylZhse1H5BM7-295" vertex="1"><mxGeometry width="30" height="30" as="geometry"/></mxCell><mxCell id="PxoyzZppylZhse1H5BM7-297" value="id" style="shape=partialRectangle;connectable=0;fillColor=none;top=0;left=0;bottom=0;right=0;align=left;spacingLeft=6;fontStyle=5;overflow=hidden;strokeColor=#457B9D;fontColor=#1D3557;" parent="PxoyzZppylZhse1H5BM7-295" vertex="1"><mxGeometry x="30" width="160" height="30" as="geometry"/></mxCell><mxCell id="PxoyzZppylZhse1H5BM7-298" value="" style="shape=partialRectangle;collapsible=0;dropTarget=0;pointerEvents=0;fillColor=none;top=0;left=0;bottom=0;right=0;points=[[0,0.5],[1,0.5]];portConstraint=eastwest;strokeColor=#457B9D;fontColor=#1D3557;" parent="PxoyzZppylZhse1H5BM7-294" vertex="1"><mxGeometry y="60" width="190" height="30" as="geometry"/></mxCell><mxCell id="PxoyzZppylZhse1H5BM7-299" value="" style="shape=partialRectangle;connectable=0;fillColor=none;top=0;left=0;bottom=0;right=0;editable=1;overflow=hidden;strokeColor=#457B9D;fontColor=#1D3557;" parent="PxoyzZppylZhse1H5BM7-298" vertex="1"><mxGeometry width="30" height="30" as="geometry"/></mxCell><mxCell id="PxoyzZppylZhse1H5BM7-300" value="consumption - DecimalField" style="shape=partialRectangle;connectable=0;fillColor=none;top=0;left=0;bottom=0;right=0;align=left;spacingLeft=6;overflow=hidden;strokeColor=#457B9D;fontColor=#1D3557;" parent="PxoyzZppylZhse1H5BM7-298" vertex="1"><mxGeometry x="30" width="160" height="30" as="geometry"/></mxCell><mxCell id="PxoyzZppylZhse1H5BM7-301" value="" style="shape=partialRectangle;collapsible=0;dropTarget=0;pointerEvents=0;fillColor=none;top=0;left=0;bottom=0;right=0;points=[[0,0.5],[1,0.5]];portConstraint=eastwest;strokeColor=#457B9D;fontColor=#1D3557;" parent="PxoyzZppylZhse1H5BM7-294" vertex="1"><mxGeometry y="90" width="190" height="30" as="geometry"/></mxCell><mxCell id="PxoyzZppylZhse1H5BM7-302" value="" style="shape=partialRectangle;connectable=0;fillColor=none;top=0;left=0;bottom=0;right=0;editable=1;overflow=hidden;strokeColor=#457B9D;fontColor=#1D3557;" parent="PxoyzZppylZhse1H5BM7-301" vertex="1"><mxGeometry width="30" height="30" as="geometry"/></mxCell><mxCell id="PxoyzZppylZhse1H5BM7-303" value="price - DecimalField" style="shape=partialRectangle;connectable=0;fillColor=none;top=0;left=0;bottom=0;right=0;align=left;spacingLeft=6;overflow=hidden;strokeColor=#457B9D;fontColor=#1D3557;" parent="PxoyzZppylZhse1H5BM7-301" vertex="1"><mxGeometry x="30" width="160" height="30" as="geometry"/></mxCell><mxCell id="PxoyzZppylZhse1H5BM7-304" value="" style="shape=partialRectangle;collapsible=0;dropTarget=0;pointerEvents=0;fillColor=none;top=0;left=0;bottom=0;right=0;points=[[0,0.5],[1,0.5]];portConstraint=eastwest;strokeColor=#457B9D;fontColor=#1D3557;" parent="PxoyzZppylZhse1H5BM7-294" vertex="1"><mxGeometry y="120" width="190" height="30" as="geometry"/></mxCell><mxCell id="PxoyzZppylZhse1H5BM7-305" value="" style="shape=partialRectangle;connectable=0;fillColor=none;top=0;left=0;bottom=0;right=0;editable=1;overflow=hidden;strokeColor=#457B9D;fontColor=#1D3557;" parent="PxoyzZppylZhse1H5BM7-304" vertex="1"><mxGeometry width="30" height="30" as="geometry"/></mxCell><mxCell id="PxoyzZppylZhse1H5BM7-306" value="cost - DecimalField" style="shape=partialRectangle;connectable=0;fillColor=none;top=0;left=0;bottom=0;right=0;align=left;spacingLeft=6;overflow=hidden;strokeColor=#457B9D;fontColor=#1D3557;" parent="PxoyzZppylZhse1H5BM7-304" vertex="1"><mxGeometry x="30" width="160" height="30" as="geometry"/></mxCell><mxCell id="PxoyzZppylZhse1H5BM7-309" value="" style="shape=partialRectangle;collapsible=0;dropTarget=0;pointerEvents=0;fillColor=none;top=0;left=0;bottom=0;right=0;points=[[0,0.5],[1,0.5]];portConstraint=eastwest;strokeColor=#457B9D;fontColor=#1D3557;" parent="PxoyzZppylZhse1H5BM7-294" vertex="1"><mxGeometry y="150" width="190" height="30" as="geometry"/></mxCell><mxCell id="PxoyzZppylZhse1H5BM7-310" value="FK" style="shape=partialRectangle;connectable=0;fillColor=none;top=0;left=0;bottom=0;right=0;fontStyle=1;overflow=hidden;strokeColor=#457B9D;fontColor=#1D3557;" parent="PxoyzZppylZhse1H5BM7-309" vertex="1"><mxGeometry width="30" height="30" as="geometry"/></mxCell><mxCell id="PxoyzZppylZhse1H5BM7-311" value="receipt - ForeignKey" style="shape=partialRectangle;connectable=0;fillColor=none;top=0;left=0;bottom=0;right=0;align=left;spacingLeft=6;fontStyle=0;overflow=hidden;strokeColor=#457B9D;fontColor=#1D3557;" parent="PxoyzZppylZhse1H5BM7-309" vertex="1"><mxGeometry x="30" width="160" height="30" as="geometry"/></mxCell><mxCell id="PxoyzZppylZhse1H5BM7-312" value="" style="shape=partialRectangle;collapsible=0;dropTarget=0;pointerEvents=0;fillColor=none;top=0;left=0;bottom=0;right=0;points=[[0,0.5],[1,0.5]];portConstraint=eastwest;strokeColor=#457B9D;fontColor=#1D3557;" parent="PxoyzZppylZhse1H5BM7-294" vertex="1"><mxGeometry y="180" width="190" height="30" as="geometry"/></mxCell><mxCell id="PxoyzZppylZhse1H5BM7-313" value="FK" style="shape=partialRectangle;connectable=0;fillColor=none;top=0;left=0;bottom=0;right=0;fontStyle=1;overflow=hidden;strokeColor=#457B9D;fontColor=#1D3557;" parent="PxoyzZppylZhse1H5BM7-312" vertex="1"><mxGeometry width="30" height="30" as="geometry"/></mxCell><mxCell id="PxoyzZppylZhse1H5BM7-314" value="service - ForeignKey" style="shape=partialRectangle;connectable=0;fillColor=none;top=0;left=0;bottom=0;right=0;align=left;spacingLeft=6;fontStyle=0;overflow=hidden;strokeColor=#457B9D;fontColor=#1D3557;" parent="PxoyzZppylZhse1H5BM7-312" vertex="1"><mxGeometry x="30" width="160" height="30" as="geometry"/></mxCell><mxCell id="PxoyzZppylZhse1H5BM7-307" value="throught" style="endArrow=none;html=1;rounded=0;entryX=0.5;entryY=0;entryDx=0;entryDy=0;labelBackgroundColor=#F1FAEE;strokeColor=#457B9D;fontColor=#1D3557;" parent="7h7oOzLDd36lB9lt4ihk-220" target="PxoyzZppylZhse1H5BM7-294" edge="1"><mxGeometry relative="1" as="geometry"><mxPoint x="340" y="290" as="sourcePoint"/><mxPoint x="180" y="460" as="targetPoint"/></mxGeometry></mxCell><mxCell id="7h7oOzLDd36lB9lt4ihk-1" value="Templates" style="shape=table;startSize=30;container=1;collapsible=1;childLayout=tableLayout;fixedRows=1;rowLines=0;fontStyle=1;align=center;resizeLast=1;strokeColor=#457B9D;fillColor=#A8DADC;fontColor=#1D3557;" parent="7h7oOzLDd36lB9lt4ihk-220" vertex="1"><mxGeometry x="45" y="330" width="190" height="150" as="geometry"/></mxCell><mxCell id="7h7oOzLDd36lB9lt4ihk-2" value="" style="shape=partialRectangle;collapsible=0;dropTarget=0;pointerEvents=0;fillColor=none;top=0;left=0;bottom=1;right=0;points=[[0,0.5],[1,0.5]];portConstraint=eastwest;strokeColor=#457B9D;fontColor=#1D3557;" parent="7h7oOzLDd36lB9lt4ihk-1" vertex="1"><mxGeometry y="30" width="190" height="30" as="geometry"/></mxCell><mxCell id="7h7oOzLDd36lB9lt4ihk-3" value="PK" style="shape=partialRectangle;connectable=0;fillColor=none;top=0;left=0;bottom=0;right=0;fontStyle=1;overflow=hidden;strokeColor=#457B9D;fontColor=#1D3557;" parent="7h7oOzLDd36lB9lt4ihk-2" vertex="1"><mxGeometry width="30" height="30" as="geometry"/></mxCell><mxCell id="7h7oOzLDd36lB9lt4ihk-4" value="UniqueID" style="shape=partialRectangle;connectable=0;fillColor=none;top=0;left=0;bottom=0;right=0;align=left;spacingLeft=6;fontStyle=5;overflow=hidden;strokeColor=#457B9D;fontColor=#1D3557;" parent="7h7oOzLDd36lB9lt4ihk-2" vertex="1"><mxGeometry x="30" width="160" height="30" as="geometry"/></mxCell><mxCell id="7h7oOzLDd36lB9lt4ihk-14" value="" style="shape=partialRectangle;collapsible=0;dropTarget=0;pointerEvents=0;fillColor=none;top=0;left=0;bottom=0;right=0;points=[[0,0.5],[1,0.5]];portConstraint=eastwest;strokeColor=#457B9D;fontColor=#1D3557;" parent="7h7oOzLDd36lB9lt4ihk-1" vertex="1"><mxGeometry y="60" width="190" height="30" as="geometry"/></mxCell><mxCell id="7h7oOzLDd36lB9lt4ihk-15" value="" style="shape=partialRectangle;connectable=0;fillColor=none;top=0;left=0;bottom=0;right=0;editable=1;overflow=hidden;strokeColor=#457B9D;fontColor=#1D3557;" parent="7h7oOzLDd36lB9lt4ihk-14" vertex="1"><mxGeometry width="30" height="30" as="geometry"/></mxCell><mxCell id="7h7oOzLDd36lB9lt4ihk-16" value="name - CharField" style="shape=partialRectangle;connectable=0;fillColor=none;top=0;left=0;bottom=0;right=0;align=left;spacingLeft=6;overflow=hidden;strokeColor=#457B9D;fontColor=#1D3557;" parent="7h7oOzLDd36lB9lt4ihk-14" vertex="1"><mxGeometry x="30" width="160" height="30" as="geometry"/></mxCell><mxCell id="7h7oOzLDd36lB9lt4ihk-5" value="" style="shape=partialRectangle;collapsible=0;dropTarget=0;pointerEvents=0;fillColor=none;top=0;left=0;bottom=0;right=0;points=[[0,0.5],[1,0.5]];portConstraint=eastwest;strokeColor=#457B9D;fontColor=#1D3557;" parent="7h7oOzLDd36lB9lt4ihk-1" vertex="1"><mxGeometry y="90" width="190" height="30" as="geometry"/></mxCell><mxCell id="7h7oOzLDd36lB9lt4ihk-6" value="" style="shape=partialRectangle;connectable=0;fillColor=none;top=0;left=0;bottom=0;right=0;editable=1;overflow=hidden;strokeColor=#457B9D;fontColor=#1D3557;" parent="7h7oOzLDd36lB9lt4ihk-5" vertex="1"><mxGeometry width="30" height="30" as="geometry"/></mxCell><mxCell id="7h7oOzLDd36lB9lt4ihk-7" value="template - FileField" style="shape=partialRectangle;connectable=0;fillColor=none;top=0;left=0;bottom=0;right=0;align=left;spacingLeft=6;overflow=hidden;strokeColor=#457B9D;fontColor=#1D3557;" parent="7h7oOzLDd36lB9lt4ihk-5" vertex="1"><mxGeometry x="30" width="160" height="30" as="geometry"/></mxCell><mxCell id="7h7oOzLDd36lB9lt4ihk-8" value="" style="shape=partialRectangle;collapsible=0;dropTarget=0;pointerEvents=0;fillColor=none;top=0;left=0;bottom=0;right=0;points=[[0,0.5],[1,0.5]];portConstraint=eastwest;strokeColor=#457B9D;fontColor=#1D3557;" parent="7h7oOzLDd36lB9lt4ihk-1" vertex="1"><mxGeometry y="120" width="190" height="30" as="geometry"/></mxCell><mxCell id="7h7oOzLDd36lB9lt4ihk-9" value="" style="shape=partialRectangle;connectable=0;fillColor=none;top=0;left=0;bottom=0;right=0;editable=1;overflow=hidden;strokeColor=#457B9D;fontColor=#1D3557;" parent="7h7oOzLDd36lB9lt4ihk-8" vertex="1"><mxGeometry width="30" height="30" as="geometry"/></mxCell><mxCell id="7h7oOzLDd36lB9lt4ihk-10" value="is_default - BooleanField" style="shape=partialRectangle;connectable=0;fillColor=none;top=0;left=0;bottom=0;right=0;align=left;spacingLeft=6;overflow=hidden;strokeColor=#457B9D;fontColor=#1D3557;" parent="7h7oOzLDd36lB9lt4ihk-8" vertex="1"><mxGeometry x="30" width="160" height="30" as="geometry"/></mxCell><mxCell id="7h7oOzLDd36lB9lt4ihk-150" value="ServicePrice" style="shape=table;startSize=30;container=1;collapsible=1;childLayout=tableLayout;fixedRows=1;rowLines=0;fontStyle=1;align=center;resizeLast=1;fillColor=#A8DADC;strokeColor=#457B9D;fontColor=#1D3557;" parent="7h7oOzLDd36lB9lt4ihk-220" vertex="1"><mxGeometry x="560" y="60" width="190" height="160" as="geometry"/></mxCell><mxCell id="7h7oOzLDd36lB9lt4ihk-151" value="" style="shape=partialRectangle;collapsible=0;dropTarget=0;pointerEvents=0;fillColor=none;top=0;left=0;bottom=1;right=0;points=[[0,0.5],[1,0.5]];portConstraint=eastwest;strokeColor=#457B9D;fontColor=#1D3557;" parent="7h7oOzLDd36lB9lt4ihk-150" vertex="1"><mxGeometry y="30" width="190" height="30" as="geometry"/></mxCell><mxCell id="7h7oOzLDd36lB9lt4ihk-152" value="PK" style="shape=partialRectangle;connectable=0;fillColor=none;top=0;left=0;bottom=0;right=0;fontStyle=1;overflow=hidden;strokeColor=#457B9D;fontColor=#1D3557;" parent="7h7oOzLDd36lB9lt4ihk-151" vertex="1"><mxGeometry width="30" height="30" as="geometry"/></mxCell><mxCell id="7h7oOzLDd36lB9lt4ihk-153" value="id" style="shape=partialRectangle;connectable=0;fillColor=none;top=0;left=0;bottom=0;right=0;align=left;spacingLeft=6;fontStyle=5;overflow=hidden;strokeColor=#457B9D;fontColor=#1D3557;" parent="7h7oOzLDd36lB9lt4ihk-151" vertex="1"><mxGeometry x="30" width="160" height="30" as="geometry"/></mxCell><mxCell id="7h7oOzLDd36lB9lt4ihk-154" value="" style="shape=partialRectangle;collapsible=0;dropTarget=0;pointerEvents=0;fillColor=none;top=0;left=0;bottom=0;right=0;points=[[0,0.5],[1,0.5]];portConstraint=eastwest;strokeColor=#457B9D;fontColor=#1D3557;" parent="7h7oOzLDd36lB9lt4ihk-150" vertex="1"><mxGeometry y="60" width="190" height="30" as="geometry"/></mxCell><mxCell id="7h7oOzLDd36lB9lt4ihk-155" value="" style="shape=partialRectangle;connectable=0;fillColor=none;top=0;left=0;bottom=0;right=0;editable=1;overflow=hidden;strokeColor=#457B9D;fontColor=#1D3557;" parent="7h7oOzLDd36lB9lt4ihk-154" vertex="1"><mxGeometry width="30" height="30" as="geometry"/></mxCell><mxCell id="7h7oOzLDd36lB9lt4ihk-156" value="price - DecimalField" style="shape=partialRectangle;connectable=0;fillColor=none;top=0;left=0;bottom=0;right=0;align=left;spacingLeft=6;overflow=hidden;strokeColor=#457B9D;fontColor=#1D3557;" parent="7h7oOzLDd36lB9lt4ihk-154" vertex="1"><mxGeometry x="30" width="160" height="30" as="geometry"/></mxCell><mxCell id="7h7oOzLDd36lB9lt4ihk-163" value="" style="shape=partialRectangle;collapsible=0;dropTarget=0;pointerEvents=0;fillColor=none;top=0;left=0;bottom=0;right=0;points=[[0,0.5],[1,0.5]];portConstraint=eastwest;strokeColor=#457B9D;fontColor=#1D3557;" parent="7h7oOzLDd36lB9lt4ihk-150" vertex="1"><mxGeometry y="90" width="190" height="30" as="geometry"/></mxCell><mxCell id="7h7oOzLDd36lB9lt4ihk-164" value="FK" style="shape=partialRectangle;connectable=0;fillColor=none;top=0;left=0;bottom=0;right=0;fontStyle=1;overflow=hidden;strokeColor=#457B9D;fontColor=#1D3557;" parent="7h7oOzLDd36lB9lt4ihk-163" vertex="1"><mxGeometry width="30" height="30" as="geometry"/></mxCell><mxCell id="7h7oOzLDd36lB9lt4ihk-165" value="tariff - ForeignKey" style="shape=partialRectangle;connectable=0;fillColor=none;top=0;left=0;bottom=0;right=0;align=left;spacingLeft=6;fontStyle=0;overflow=hidden;strokeColor=#457B9D;fontColor=#1D3557;" parent="7h7oOzLDd36lB9lt4ihk-163" vertex="1"><mxGeometry x="30" width="160" height="30" as="geometry"/></mxCell><mxCell id="7h7oOzLDd36lB9lt4ihk-166" value="" style="shape=partialRectangle;collapsible=0;dropTarget=0;pointerEvents=0;fillColor=none;top=0;left=0;bottom=0;right=0;points=[[0,0.5],[1,0.5]];portConstraint=eastwest;strokeColor=#457B9D;fontColor=#1D3557;" parent="7h7oOzLDd36lB9lt4ihk-150" vertex="1"><mxGeometry y="120" width="190" height="30" as="geometry"/></mxCell><mxCell id="7h7oOzLDd36lB9lt4ihk-167" value="FK" style="shape=partialRectangle;connectable=0;fillColor=none;top=0;left=0;bottom=0;right=0;fontStyle=1;overflow=hidden;strokeColor=#457B9D;fontColor=#1D3557;" parent="7h7oOzLDd36lB9lt4ihk-166" vertex="1"><mxGeometry width="30" height="30" as="geometry"/></mxCell><mxCell id="7h7oOzLDd36lB9lt4ihk-168" value="service - ForeignKey" style="shape=partialRectangle;connectable=0;fillColor=none;top=0;left=0;bottom=0;right=0;align=left;spacingLeft=6;fontStyle=0;overflow=hidden;strokeColor=#457B9D;fontColor=#1D3557;" parent="7h7oOzLDd36lB9lt4ihk-166" vertex="1"><mxGeometry x="30" width="160" height="30" as="geometry"/></mxCell><mxCell id="7h7oOzLDd36lB9lt4ihk-169" value="" style="edgeStyle=elbowEdgeStyle;fontSize=12;html=1;endArrow=ERzeroToMany;endFill=1;startArrow=ERzeroToMany;entryX=1;entryY=0.5;entryDx=0;entryDy=0;labelBackgroundColor=#F1FAEE;strokeColor=#457B9D;fontColor=#1D3557;" parent="7h7oOzLDd36lB9lt4ihk-220" source="PxoyzZppylZhse1H5BM7-260" target="7h7oOzLDd36lB9lt4ihk-147" edge="1"><mxGeometry width="100" height="100" relative="1" as="geometry"><mxPoint x="530" y="220" as="sourcePoint"/><mxPoint x="280" y="200" as="targetPoint"/><Array as="points"><mxPoint x="500" y="190"/><mxPoint x="450" y="250"/></Array></mxGeometry></mxCell><mxCell id="7h7oOzLDd36lB9lt4ihk-170" value="throught" style="endArrow=none;html=1;rounded=0;exitX=-0.009;exitY=0.08;exitDx=0;exitDy=0;exitPerimeter=0;labelBackgroundColor=#F1FAEE;strokeColor=#457B9D;fontColor=#1D3557;" parent="7h7oOzLDd36lB9lt4ihk-220" source="7h7oOzLDd36lB9lt4ihk-150" edge="1"><mxGeometry relative="1" as="geometry"><mxPoint x="647.2000000000003" y="209.99999999999994" as="sourcePoint"/><mxPoint x="500" y="210" as="targetPoint"/></mxGeometry></mxCell><mxCell id="7h7oOzLDd36lB9lt4ihk-191" value="MeterData" style="shape=table;startSize=30;container=1;collapsible=1;childLayout=tableLayout;fixedRows=1;rowLines=0;fontStyle=1;align=center;resizeLast=1;fontColor=#1D3557;strokeColor=#457B9D;fillColor=#A8DADC;" parent="7h7oOzLDd36lB9lt4ihk-220" vertex="1"><mxGeometry x="490" y="455" width="180" height="190" as="geometry"/></mxCell><mxCell id="7h7oOzLDd36lB9lt4ihk-192" value="" style="shape=partialRectangle;collapsible=0;dropTarget=0;pointerEvents=0;fillColor=none;top=0;left=0;bottom=1;right=0;points=[[0,0.5],[1,0.5]];portConstraint=eastwest;strokeColor=#457B9D;fontColor=#1D3557;" parent="7h7oOzLDd36lB9lt4ihk-191" vertex="1"><mxGeometry y="30" width="180" height="30" as="geometry"/></mxCell><mxCell id="7h7oOzLDd36lB9lt4ihk-193" value="PK" style="shape=partialRectangle;connectable=0;fillColor=none;top=0;left=0;bottom=0;right=0;fontStyle=1;overflow=hidden;strokeColor=#457B9D;fontColor=#1D3557;" parent="7h7oOzLDd36lB9lt4ihk-192" vertex="1"><mxGeometry width="30" height="30" as="geometry"/></mxCell><mxCell id="7h7oOzLDd36lB9lt4ihk-194" value="id" style="shape=partialRectangle;connectable=0;fillColor=none;top=0;left=0;bottom=0;right=0;align=left;spacingLeft=6;fontStyle=5;overflow=hidden;strokeColor=#457B9D;fontColor=#1D3557;" parent="7h7oOzLDd36lB9lt4ihk-192" vertex="1"><mxGeometry x="30" width="150" height="30" as="geometry"/></mxCell><mxCell id="7h7oOzLDd36lB9lt4ihk-195" value="" style="shape=partialRectangle;collapsible=0;dropTarget=0;pointerEvents=0;fillColor=none;top=0;left=0;bottom=0;right=0;points=[[0,0.5],[1,0.5]];portConstraint=eastwest;strokeColor=#457B9D;fontColor=#1D3557;" parent="7h7oOzLDd36lB9lt4ihk-191" vertex="1"><mxGeometry y="60" width="180" height="30" as="geometry"/></mxCell><mxCell id="7h7oOzLDd36lB9lt4ihk-196" value="" style="shape=partialRectangle;connectable=0;fillColor=none;top=0;left=0;bottom=0;right=0;editable=1;overflow=hidden;strokeColor=#457B9D;fontColor=#1D3557;" parent="7h7oOzLDd36lB9lt4ihk-195" vertex="1"><mxGeometry width="30" height="30" as="geometry"/></mxCell><mxCell id="7h7oOzLDd36lB9lt4ihk-197" value="number - DecimailField" style="shape=partialRectangle;connectable=0;fillColor=none;top=0;left=0;bottom=0;right=0;align=left;spacingLeft=6;overflow=hidden;strokeColor=#457B9D;fontColor=#1D3557;" parent="7h7oOzLDd36lB9lt4ihk-195" vertex="1"><mxGeometry x="30" width="150" height="30" as="geometry"/></mxCell><mxCell id="7h7oOzLDd36lB9lt4ihk-207" value="" style="shape=partialRectangle;collapsible=0;dropTarget=0;pointerEvents=0;fillColor=none;top=0;left=0;bottom=0;right=0;points=[[0,0.5],[1,0.5]];portConstraint=eastwest;fontColor=#1D3557;strokeColor=#457B9D;" parent="7h7oOzLDd36lB9lt4ihk-191" vertex="1"><mxGeometry y="90" width="180" height="30" as="geometry"/></mxCell><mxCell id="7h7oOzLDd36lB9lt4ihk-208" value="" style="shape=partialRectangle;connectable=0;fillColor=none;top=0;left=0;bottom=0;right=0;editable=1;overflow=hidden;strokeColor=#457B9D;fontColor=#1D3557;" parent="7h7oOzLDd36lB9lt4ihk-207" vertex="1"><mxGeometry width="30" height="30" as="geometry"/></mxCell><mxCell id="7h7oOzLDd36lB9lt4ihk-209" value="status - ChoiseField" style="shape=partialRectangle;connectable=0;fillColor=none;top=0;left=0;bottom=0;right=0;align=left;spacingLeft=6;overflow=hidden;strokeColor=#457B9D;fontColor=#1D3557;" parent="7h7oOzLDd36lB9lt4ihk-207" vertex="1"><mxGeometry x="30" width="150" height="30" as="geometry"/></mxCell><mxCell id="7h7oOzLDd36lB9lt4ihk-210" value="" style="shape=partialRectangle;collapsible=0;dropTarget=0;pointerEvents=0;fillColor=none;top=0;left=0;bottom=0;right=0;points=[[0,0.5],[1,0.5]];portConstraint=eastwest;fontColor=#1D3557;strokeColor=#457B9D;" parent="7h7oOzLDd36lB9lt4ihk-191" vertex="1"><mxGeometry y="120" width="180" height="30" as="geometry"/></mxCell><mxCell id="7h7oOzLDd36lB9lt4ihk-211" value="FK" style="shape=partialRectangle;connectable=0;fillColor=none;top=0;left=0;bottom=0;right=0;fontStyle=0;overflow=hidden;strokeColor=#457B9D;fontColor=#1D3557;" parent="7h7oOzLDd36lB9lt4ihk-210" vertex="1"><mxGeometry width="30" height="30" as="geometry"/></mxCell><mxCell id="7h7oOzLDd36lB9lt4ihk-212" value="service - ForeignKey" style="shape=partialRectangle;connectable=0;fillColor=none;top=0;left=0;bottom=0;right=0;align=left;spacingLeft=6;fontStyle=0;overflow=hidden;strokeColor=#457B9D;fontColor=#1D3557;" parent="7h7oOzLDd36lB9lt4ihk-210" vertex="1"><mxGeometry x="30" width="150" height="30" as="geometry"/></mxCell><mxCell id="7h7oOzLDd36lB9lt4ihk-204" value="" style="shape=partialRectangle;collapsible=0;dropTarget=0;pointerEvents=0;fillColor=none;top=0;left=0;bottom=0;right=0;points=[[0,0.5],[1,0.5]];portConstraint=eastwest;fontColor=#1D3557;strokeColor=#457B9D;" parent="7h7oOzLDd36lB9lt4ihk-191" vertex="1"><mxGeometry y="150" width="180" height="30" as="geometry"/></mxCell><mxCell id="7h7oOzLDd36lB9lt4ihk-205" value="FK" style="shape=partialRectangle;connectable=0;fillColor=none;top=0;left=0;bottom=0;right=0;fontStyle=0;overflow=hidden;strokeColor=#457B9D;fontColor=#1D3557;" parent="7h7oOzLDd36lB9lt4ihk-204" vertex="1"><mxGeometry width="30" height="30" as="geometry"/></mxCell><mxCell id="7h7oOzLDd36lB9lt4ihk-206" value="flat - ForeingKey" style="shape=partialRectangle;connectable=0;fillColor=none;top=0;left=0;bottom=0;right=0;align=left;spacingLeft=6;fontStyle=0;overflow=hidden;strokeColor=#457B9D;fontColor=#1D3557;" parent="7h7oOzLDd36lB9lt4ihk-204" vertex="1"><mxGeometry x="30" width="150" height="30" as="geometry"/></mxCell><mxCell id="7h7oOzLDd36lB9lt4ihk-215" value="&lt;b style=&quot;font-size: 33px;&quot;&gt;&lt;font style=&quot;font-size: 33px;&quot;&gt;Receipts&lt;/font&gt;&lt;/b&gt;" style="text;html=1;strokeColor=none;fillColor=none;align=center;verticalAlign=middle;whiteSpace=wrap;rounded=0;fontColor=#1D3557;fontSize=33;" parent="7h7oOzLDd36lB9lt4ihk-220" vertex="1"><mxGeometry x="760" y="20" width="40" height="20" as="geometry"/></mxCell><mxCell id="7h7oOzLDd36lB9lt4ihk-217" value="" style="edgeStyle=elbowEdgeStyle;fontSize=12;html=1;endArrow=ERoneToMany;startArrow=ERzeroToOne;fontColor=#1D3557;entryX=0;entryY=0.5;entryDx=0;entryDy=0;exitX=-0.008;exitY=-0.005;exitDx=0;exitDy=0;exitPerimeter=0;labelBackgroundColor=#F1FAEE;strokeColor=#457B9D;" parent="7h7oOzLDd36lB9lt4ihk-220" source="PxoyzZppylZhse1H5BM7-264" target="7h7oOzLDd36lB9lt4ihk-210" edge="1"><mxGeometry width="100" height="100" relative="1" as="geometry"><mxPoint x="480" y="800" as="sourcePoint"/><mxPoint x="580" y="700" as="targetPoint"/><Array as="points"><mxPoint x="460" y="460"/></Array></mxGeometry></mxCell><mxCell id="7h7oOzLDd36lB9lt4ihk-213" value="" style="group;fontColor=#1D3557;" parent="1" vertex="1" connectable="0"><mxGeometry x="-10" y="760" width="580" height="630" as="geometry"/></mxCell><mxCell id="7h7oOzLDd36lB9lt4ihk-144" value="" style="rounded=0;whiteSpace=wrap;html=1;strokeColor=#457B9D;fillColor=#A8DADC;fontColor=#1D3557;" parent="7h7oOzLDd36lB9lt4ihk-213" vertex="1"><mxGeometry width="580" height="630" as="geometry"/></mxCell><mxCell id="PxoyzZppylZhse1H5BM7-171" value="User" style="shape=table;startSize=30;container=1;collapsible=1;childLayout=tableLayout;fixedRows=1;rowLines=0;fontStyle=1;align=center;resizeLast=1;fillColor=#A8DADC;strokeColor=#457B9D;fontColor=#1D3557;" parent="7h7oOzLDd36lB9lt4ihk-213" vertex="1"><mxGeometry x="30" y="40" width="310" height="580" as="geometry"/></mxCell><mxCell id="PxoyzZppylZhse1H5BM7-172" value="" style="shape=partialRectangle;collapsible=0;dropTarget=0;pointerEvents=0;fillColor=none;top=0;left=0;bottom=1;right=0;points=[[0,0.5],[1,0.5]];portConstraint=eastwest;strokeColor=#457B9D;fontColor=#1D3557;" parent="PxoyzZppylZhse1H5BM7-171" vertex="1"><mxGeometry y="30" width="310" height="30" as="geometry"/></mxCell><mxCell id="PxoyzZppylZhse1H5BM7-173" value="PK" style="shape=partialRectangle;connectable=0;fillColor=none;top=0;left=0;bottom=0;right=0;fontStyle=1;overflow=hidden;strokeColor=#457B9D;fontColor=#1D3557;" parent="PxoyzZppylZhse1H5BM7-172" vertex="1"><mxGeometry width="30" height="30" as="geometry"/></mxCell><mxCell id="PxoyzZppylZhse1H5BM7-174" value="id" style="shape=partialRectangle;connectable=0;fillColor=none;top=0;left=0;bottom=0;right=0;align=left;spacingLeft=6;fontStyle=5;overflow=hidden;strokeColor=#457B9D;fontColor=#1D3557;" parent="PxoyzZppylZhse1H5BM7-172" vertex="1"><mxGeometry x="30" width="280" height="30" as="geometry"/></mxCell><mxCell id="PxoyzZppylZhse1H5BM7-178" value="" style="shape=partialRectangle;collapsible=0;dropTarget=0;pointerEvents=0;fillColor=none;top=0;left=0;bottom=0;right=0;points=[[0,0.5],[1,0.5]];portConstraint=eastwest;strokeColor=#457B9D;fontColor=#1D3557;" parent="PxoyzZppylZhse1H5BM7-171" vertex="1"><mxGeometry y="60" width="310" height="30" as="geometry"/></mxCell><mxCell id="PxoyzZppylZhse1H5BM7-179" value="" style="shape=partialRectangle;connectable=0;fillColor=none;top=0;left=0;bottom=0;right=0;editable=1;overflow=hidden;strokeColor=#457B9D;fontColor=#1D3557;" parent="PxoyzZppylZhse1H5BM7-178" vertex="1"><mxGeometry width="30" height="30" as="geometry"/></mxCell><mxCell id="PxoyzZppylZhse1H5BM7-180" value="first_name - CharField" style="shape=partialRectangle;connectable=0;fillColor=none;top=0;left=0;bottom=0;right=0;align=left;spacingLeft=6;overflow=hidden;strokeColor=#457B9D;fontColor=#1D3557;" parent="PxoyzZppylZhse1H5BM7-178" vertex="1"><mxGeometry x="30" width="280" height="30" as="geometry"/></mxCell><mxCell id="PxoyzZppylZhse1H5BM7-181" value="" style="shape=partialRectangle;collapsible=0;dropTarget=0;pointerEvents=0;fillColor=none;top=0;left=0;bottom=0;right=0;points=[[0,0.5],[1,0.5]];portConstraint=eastwest;strokeColor=#457B9D;fontColor=#1D3557;" parent="PxoyzZppylZhse1H5BM7-171" vertex="1"><mxGeometry y="90" width="310" height="30" as="geometry"/></mxCell><mxCell id="PxoyzZppylZhse1H5BM7-182" value="" style="shape=partialRectangle;connectable=0;fillColor=none;top=0;left=0;bottom=0;right=0;editable=1;overflow=hidden;strokeColor=#457B9D;fontColor=#1D3557;" parent="PxoyzZppylZhse1H5BM7-181" vertex="1"><mxGeometry width="30" height="30" as="geometry"/></mxCell><mxCell id="PxoyzZppylZhse1H5BM7-183" value="last_name - CharField" style="shape=partialRectangle;connectable=0;fillColor=none;top=0;left=0;bottom=0;right=0;align=left;spacingLeft=6;overflow=hidden;strokeColor=#457B9D;fontColor=#1D3557;" parent="PxoyzZppylZhse1H5BM7-181" vertex="1"><mxGeometry x="30" width="280" height="30" as="geometry"/></mxCell><mxCell id="7h7oOzLDd36lB9lt4ihk-20" value="" style="shape=partialRectangle;collapsible=0;dropTarget=0;pointerEvents=0;fillColor=none;top=0;left=0;bottom=0;right=0;points=[[0,0.5],[1,0.5]];portConstraint=eastwest;strokeColor=#457B9D;fontColor=#1D3557;" parent="PxoyzZppylZhse1H5BM7-171" vertex="1"><mxGeometry y="120" width="310" height="30" as="geometry"/></mxCell><mxCell id="7h7oOzLDd36lB9lt4ihk-21" value="" style="shape=partialRectangle;connectable=0;fillColor=none;top=0;left=0;bottom=0;right=0;editable=1;overflow=hidden;strokeColor=#457B9D;fontColor=#1D3557;" parent="7h7oOzLDd36lB9lt4ihk-20" vertex="1"><mxGeometry width="30" height="30" as="geometry"/></mxCell><mxCell id="7h7oOzLDd36lB9lt4ihk-22" value="patronymic - CharField" style="shape=partialRectangle;connectable=0;fillColor=none;top=0;left=0;bottom=0;right=0;align=left;spacingLeft=6;overflow=hidden;strokeColor=#457B9D;fontColor=#1D3557;" parent="7h7oOzLDd36lB9lt4ihk-20" vertex="1"><mxGeometry x="30" width="280" height="30" as="geometry"/></mxCell><mxCell id="7h7oOzLDd36lB9lt4ihk-26" value="" style="shape=partialRectangle;collapsible=0;dropTarget=0;pointerEvents=0;fillColor=none;top=0;left=0;bottom=0;right=0;points=[[0,0.5],[1,0.5]];portConstraint=eastwest;strokeColor=#457B9D;fontColor=#1D3557;" parent="PxoyzZppylZhse1H5BM7-171" vertex="1"><mxGeometry y="150" width="310" height="30" as="geometry"/></mxCell><mxCell id="7h7oOzLDd36lB9lt4ihk-27" value="" style="shape=partialRectangle;connectable=0;fillColor=none;top=0;left=0;bottom=0;right=0;editable=1;overflow=hidden;strokeColor=#457B9D;fontColor=#1D3557;" parent="7h7oOzLDd36lB9lt4ihk-26" vertex="1"><mxGeometry width="30" height="30" as="geometry"/></mxCell><mxCell id="7h7oOzLDd36lB9lt4ihk-28" value="description - CharField" style="shape=partialRectangle;connectable=0;fillColor=none;top=0;left=0;bottom=0;right=0;align=left;spacingLeft=6;overflow=hidden;strokeColor=#457B9D;fontColor=#1D3557;" parent="7h7oOzLDd36lB9lt4ihk-26" vertex="1"><mxGeometry x="30" width="280" height="30" as="geometry"/></mxCell><mxCell id="7h7oOzLDd36lB9lt4ihk-23" value="" style="shape=partialRectangle;collapsible=0;dropTarget=0;pointerEvents=0;fillColor=none;top=0;left=0;bottom=0;right=0;points=[[0,0.5],[1,0.5]];portConstraint=eastwest;strokeColor=#457B9D;fontColor=#1D3557;" parent="PxoyzZppylZhse1H5BM7-171" vertex="1"><mxGeometry y="180" width="310" height="30" as="geometry"/></mxCell><mxCell id="7h7oOzLDd36lB9lt4ihk-24" value="" style="shape=partialRectangle;connectable=0;fillColor=none;top=0;left=0;bottom=0;right=0;editable=1;overflow=hidden;strokeColor=#457B9D;fontColor=#1D3557;" parent="7h7oOzLDd36lB9lt4ihk-23" vertex="1"><mxGeometry width="30" height="30" as="geometry"/></mxCell><mxCell id="7h7oOzLDd36lB9lt4ihk-25" value="birthday - BirthdayField (3rd party lib)" style="shape=partialRectangle;connectable=0;fillColor=none;top=0;left=0;bottom=0;right=0;align=left;spacingLeft=6;overflow=hidden;strokeColor=#457B9D;fontColor=#1D3557;" parent="7h7oOzLDd36lB9lt4ihk-23" vertex="1"><mxGeometry x="30" width="280" height="30" as="geometry"/></mxCell><mxCell id="4q9rLLTR2RdjvRJnRLcd-4" value="" style="shape=partialRectangle;collapsible=0;dropTarget=0;pointerEvents=0;fillColor=none;top=0;left=0;bottom=0;right=0;points=[[0,0.5],[1,0.5]];portConstraint=eastwest;strokeColor=#457B9D;fontColor=#1D3557;" parent="PxoyzZppylZhse1H5BM7-171" vertex="1"><mxGeometry y="210" width="310" height="30" as="geometry"/></mxCell><mxCell id="4q9rLLTR2RdjvRJnRLcd-5" value="" style="shape=partialRectangle;connectable=0;fillColor=none;top=0;left=0;bottom=0;right=0;editable=1;overflow=hidden;strokeColor=#457B9D;fontColor=#1D3557;" parent="4q9rLLTR2RdjvRJnRLcd-4" vertex="1"><mxGeometry width="30" height="30" as="geometry"/></mxCell><mxCell id="4q9rLLTR2RdjvRJnRLcd-6" value="avatar - ImageField" style="shape=partialRectangle;connectable=0;fillColor=none;top=0;left=0;bottom=0;right=0;align=left;spacingLeft=6;overflow=hidden;strokeColor=#457B9D;fontColor=#1D3557;" parent="4q9rLLTR2RdjvRJnRLcd-4" vertex="1"><mxGeometry x="30" width="280" height="30" as="geometry"/></mxCell><mxCell id="7h7oOzLDd36lB9lt4ihk-17" value="" style="shape=partialRectangle;collapsible=0;dropTarget=0;pointerEvents=0;fillColor=none;top=0;left=0;bottom=0;right=0;points=[[0,0.5],[1,0.5]];portConstraint=eastwest;strokeColor=#457B9D;fontColor=#1D3557;" parent="PxoyzZppylZhse1H5BM7-171" vertex="1"><mxGeometry y="240" width="310" height="30" as="geometry"/></mxCell><mxCell id="7h7oOzLDd36lB9lt4ihk-18" value="" style="shape=partialRectangle;connectable=0;fillColor=none;top=0;left=0;bottom=0;right=0;editable=1;overflow=hidden;strokeColor=#457B9D;fontColor=#1D3557;" parent="7h7oOzLDd36lB9lt4ihk-17" vertex="1"><mxGeometry width="30" height="30" as="geometry"/></mxCell><mxCell id="7h7oOzLDd36lB9lt4ihk-19" value="phone - PhoneNumberField (3rd party lib)" style="shape=partialRectangle;connectable=0;fillColor=none;top=0;left=0;bottom=0;right=0;align=left;spacingLeft=6;overflow=hidden;strokeColor=#457B9D;fontColor=#1D3557;" parent="7h7oOzLDd36lB9lt4ihk-17" vertex="1"><mxGeometry x="30" width="280" height="30" as="geometry"/></mxCell><mxCell id="7h7oOzLDd36lB9lt4ihk-29" value="" style="shape=partialRectangle;collapsible=0;dropTarget=0;pointerEvents=0;fillColor=none;top=0;left=0;bottom=0;right=0;points=[[0,0.5],[1,0.5]];portConstraint=eastwest;strokeColor=#457B9D;fontColor=#1D3557;" parent="PxoyzZppylZhse1H5BM7-171" vertex="1"><mxGeometry y="270" width="310" height="30" as="geometry"/></mxCell><mxCell id="7h7oOzLDd36lB9lt4ihk-30" value="" style="shape=partialRectangle;connectable=0;fillColor=none;top=0;left=0;bottom=0;right=0;editable=1;overflow=hidden;strokeColor=#457B9D;fontColor=#1D3557;" parent="7h7oOzLDd36lB9lt4ihk-29" vertex="1"><mxGeometry width="30" height="30" as="geometry"/></mxCell><mxCell id="7h7oOzLDd36lB9lt4ihk-31" value="viber - PhoneNumberFIeld (3rd party lib)" style="shape=partialRectangle;connectable=0;fillColor=none;top=0;left=0;bottom=0;right=0;align=left;spacingLeft=6;overflow=hidden;strokeColor=#457B9D;fontColor=#1D3557;" parent="7h7oOzLDd36lB9lt4ihk-29" vertex="1"><mxGeometry x="30" width="280" height="30" as="geometry"/></mxCell><mxCell id="7h7oOzLDd36lB9lt4ihk-32" value="" style="shape=partialRectangle;collapsible=0;dropTarget=0;pointerEvents=0;fillColor=none;top=0;left=0;bottom=0;right=0;points=[[0,0.5],[1,0.5]];portConstraint=eastwest;strokeColor=#457B9D;fontColor=#1D3557;" parent="PxoyzZppylZhse1H5BM7-171" vertex="1"><mxGeometry y="300" width="310" height="30" as="geometry"/></mxCell><mxCell id="7h7oOzLDd36lB9lt4ihk-33" value="" style="shape=partialRectangle;connectable=0;fillColor=none;top=0;left=0;bottom=0;right=0;editable=1;overflow=hidden;strokeColor=#457B9D;fontColor=#1D3557;" parent="7h7oOzLDd36lB9lt4ihk-32" vertex="1"><mxGeometry width="30" height="30" as="geometry"/></mxCell><mxCell id="7h7oOzLDd36lB9lt4ihk-34" value="telegram - CharField" style="shape=partialRectangle;connectable=0;fillColor=none;top=0;left=0;bottom=0;right=0;align=left;spacingLeft=6;overflow=hidden;strokeColor=#457B9D;fontColor=#1D3557;" parent="7h7oOzLDd36lB9lt4ihk-32" vertex="1"><mxGeometry x="30" width="280" height="30" as="geometry"/></mxCell><mxCell id="PxoyzZppylZhse1H5BM7-187" value="" style="shape=partialRectangle;collapsible=0;dropTarget=0;pointerEvents=0;fillColor=none;top=0;left=0;bottom=0;right=0;points=[[0,0.5],[1,0.5]];portConstraint=eastwest;strokeColor=#457B9D;fontColor=#1D3557;" parent="PxoyzZppylZhse1H5BM7-171" vertex="1"><mxGeometry y="330" width="310" height="30" as="geometry"/></mxCell><mxCell id="PxoyzZppylZhse1H5BM7-188" value="" style="shape=partialRectangle;connectable=0;fillColor=none;top=0;left=0;bottom=0;right=0;editable=1;overflow=hidden;strokeColor=#457B9D;fontColor=#1D3557;" parent="PxoyzZppylZhse1H5BM7-187" vertex="1"><mxGeometry width="30" height="30" as="geometry"/></mxCell><mxCell id="PxoyzZppylZhse1H5BM7-189" value="email - EmailField" style="shape=partialRectangle;connectable=0;fillColor=none;top=0;left=0;bottom=0;right=0;align=left;spacingLeft=6;overflow=hidden;strokeColor=#457B9D;fontColor=#1D3557;" parent="PxoyzZppylZhse1H5BM7-187" vertex="1"><mxGeometry x="30" width="280" height="30" as="geometry"/></mxCell><mxCell id="7h7oOzLDd36lB9lt4ihk-35" value="" style="shape=partialRectangle;collapsible=0;dropTarget=0;pointerEvents=0;fillColor=none;top=0;left=0;bottom=0;right=0;points=[[0,0.5],[1,0.5]];portConstraint=eastwest;strokeColor=#457B9D;fontColor=#1D3557;" parent="PxoyzZppylZhse1H5BM7-171" vertex="1"><mxGeometry y="360" width="310" height="30" as="geometry"/></mxCell><mxCell id="7h7oOzLDd36lB9lt4ihk-36" value="" style="shape=partialRectangle;connectable=0;fillColor=none;top=0;left=0;bottom=0;right=0;editable=1;overflow=hidden;strokeColor=#457B9D;fontColor=#1D3557;" parent="7h7oOzLDd36lB9lt4ihk-35" vertex="1"><mxGeometry width="30" height="30" as="geometry"/></mxCell><mxCell id="7h7oOzLDd36lB9lt4ihk-37" value="status - ChoiseField (active/inactive/deactivated)" style="shape=partialRectangle;connectable=0;fillColor=none;top=0;left=0;bottom=0;right=0;align=left;spacingLeft=6;overflow=hidden;strokeColor=#457B9D;fontColor=#1D3557;" parent="7h7oOzLDd36lB9lt4ihk-35" vertex="1"><mxGeometry x="30" width="280" height="30" as="geometry"/></mxCell><mxCell id="PxoyzZppylZhse1H5BM7-184" value="" style="shape=partialRectangle;collapsible=0;dropTarget=0;pointerEvents=0;fillColor=none;top=0;left=0;bottom=0;right=0;points=[[0,0.5],[1,0.5]];portConstraint=eastwest;strokeColor=#457B9D;fontColor=#1D3557;" parent="PxoyzZppylZhse1H5BM7-171" vertex="1"><mxGeometry y="390" width="310" height="30" as="geometry"/></mxCell><mxCell id="PxoyzZppylZhse1H5BM7-185" value="" style="shape=partialRectangle;connectable=0;fillColor=none;top=0;left=0;bottom=0;right=0;editable=1;overflow=hidden;strokeColor=#457B9D;fontColor=#1D3557;" parent="PxoyzZppylZhse1H5BM7-184" vertex="1"><mxGeometry width="30" height="30" as="geometry"/></mxCell><mxCell id="PxoyzZppylZhse1H5BM7-186" value="is_staff - BooleanField" style="shape=partialRectangle;connectable=0;fillColor=none;top=0;left=0;bottom=0;right=0;align=left;spacingLeft=6;overflow=hidden;strokeColor=#457B9D;fontColor=#1D3557;" parent="PxoyzZppylZhse1H5BM7-184" vertex="1"><mxGeometry x="30" width="280" height="30" as="geometry"/></mxCell><mxCell id="7h7oOzLDd36lB9lt4ihk-174" value="" style="shape=partialRectangle;collapsible=0;dropTarget=0;pointerEvents=0;fillColor=none;top=0;left=0;bottom=0;right=0;points=[[0,0.5],[1,0.5]];portConstraint=eastwest;fontColor=#1D3557;strokeColor=#457B9D;" parent="PxoyzZppylZhse1H5BM7-171" vertex="1"><mxGeometry y="420" width="310" height="30" as="geometry"/></mxCell><mxCell id="7h7oOzLDd36lB9lt4ihk-175" value="" style="shape=partialRectangle;connectable=0;fillColor=none;top=0;left=0;bottom=0;right=0;editable=1;overflow=hidden;strokeColor=#457B9D;fontColor=#1D3557;" parent="7h7oOzLDd36lB9lt4ihk-174" vertex="1"><mxGeometry width="30" height="30" as="geometry"/></mxCell><mxCell id="7h7oOzLDd36lB9lt4ihk-176" value="staff_role - ChoiseField" style="shape=partialRectangle;connectable=0;fillColor=none;top=0;left=0;bottom=0;right=0;align=left;spacingLeft=6;overflow=hidden;strokeColor=#457B9D;fontColor=#1D3557;" parent="7h7oOzLDd36lB9lt4ihk-174" vertex="1"><mxGeometry x="30" width="280" height="30" as="geometry"/></mxCell><mxCell id="PxoyzZppylZhse1H5BM7-190" value="" style="shape=partialRectangle;collapsible=0;dropTarget=0;pointerEvents=0;fillColor=none;top=0;left=0;bottom=0;right=0;points=[[0,0.5],[1,0.5]];portConstraint=eastwest;strokeColor=#457B9D;fontColor=#1D3557;" parent="PxoyzZppylZhse1H5BM7-171" vertex="1"><mxGeometry y="450" width="310" height="30" as="geometry"/></mxCell><mxCell id="PxoyzZppylZhse1H5BM7-191" value="" style="shape=partialRectangle;connectable=0;fillColor=none;top=0;left=0;bottom=0;right=0;editable=1;overflow=hidden;strokeColor=#457B9D;fontColor=#1D3557;" parent="PxoyzZppylZhse1H5BM7-190" vertex="1"><mxGeometry width="30" height="30" as="geometry"/></mxCell><mxCell id="PxoyzZppylZhse1H5BM7-192" value="date_joined - BooleanField" style="shape=partialRectangle;connectable=0;fillColor=none;top=0;left=0;bottom=0;right=0;align=left;spacingLeft=6;overflow=hidden;strokeColor=#457B9D;fontColor=#1D3557;" parent="PxoyzZppylZhse1H5BM7-190" vertex="1"><mxGeometry x="30" width="280" height="30" as="geometry"/></mxCell><mxCell id="PxoyzZppylZhse1H5BM7-196" value="" style="shape=partialRectangle;collapsible=0;dropTarget=0;pointerEvents=0;fillColor=none;top=0;left=0;bottom=0;right=0;points=[[0,0.5],[1,0.5]];portConstraint=eastwest;strokeColor=#457B9D;fontColor=#1D3557;" parent="PxoyzZppylZhse1H5BM7-171" vertex="1"><mxGeometry y="480" width="310" height="30" as="geometry"/></mxCell><mxCell id="PxoyzZppylZhse1H5BM7-197" value="" style="shape=partialRectangle;connectable=0;fillColor=none;top=0;left=0;bottom=0;right=0;editable=1;overflow=hidden;strokeColor=#457B9D;fontColor=#1D3557;" parent="PxoyzZppylZhse1H5BM7-196" vertex="1"><mxGeometry width="30" height="30" as="geometry"/></mxCell><mxCell id="PxoyzZppylZhse1H5BM7-198" value="is_superuser - BooleanField " style="shape=partialRectangle;connectable=0;fillColor=none;top=0;left=0;bottom=0;right=0;align=left;spacingLeft=6;overflow=hidden;strokeColor=#457B9D;fontColor=#1D3557;" parent="PxoyzZppylZhse1H5BM7-196" vertex="1"><mxGeometry x="30" width="280" height="30" as="geometry"/></mxCell><mxCell id="PxoyzZppylZhse1H5BM7-199" value="" style="shape=partialRectangle;collapsible=0;dropTarget=0;pointerEvents=0;fillColor=none;top=0;left=0;bottom=0;right=0;points=[[0,0.5],[1,0.5]];portConstraint=eastwest;strokeColor=#457B9D;fontColor=#1D3557;" parent="PxoyzZppylZhse1H5BM7-171" vertex="1"><mxGeometry y="510" width="310" height="30" as="geometry"/></mxCell><mxCell id="PxoyzZppylZhse1H5BM7-200" value="" style="shape=partialRectangle;connectable=0;fillColor=none;top=0;left=0;bottom=0;right=0;editable=1;overflow=hidden;strokeColor=#457B9D;fontColor=#1D3557;" parent="PxoyzZppylZhse1H5BM7-199" vertex="1"><mxGeometry width="30" height="30" as="geometry"/></mxCell><mxCell id="PxoyzZppylZhse1H5BM7-201" value="groups - ManyToManyField" style="shape=partialRectangle;connectable=0;fillColor=none;top=0;left=0;bottom=0;right=0;align=left;spacingLeft=6;overflow=hidden;strokeColor=#457B9D;fontColor=#1D3557;" parent="PxoyzZppylZhse1H5BM7-199" vertex="1"><mxGeometry x="30" width="280" height="30" as="geometry"/></mxCell><mxCell id="PxoyzZppylZhse1H5BM7-202" value="" style="shape=partialRectangle;collapsible=0;dropTarget=0;pointerEvents=0;fillColor=none;top=0;left=0;bottom=0;right=0;points=[[0,0.5],[1,0.5]];portConstraint=eastwest;strokeColor=#457B9D;fontColor=#1D3557;" parent="PxoyzZppylZhse1H5BM7-171" vertex="1"><mxGeometry y="540" width="310" height="30" as="geometry"/></mxCell><mxCell id="PxoyzZppylZhse1H5BM7-203" value="" style="shape=partialRectangle;connectable=0;fillColor=none;top=0;left=0;bottom=0;right=0;editable=1;overflow=hidden;strokeColor=#457B9D;fontColor=#1D3557;" parent="PxoyzZppylZhse1H5BM7-202" vertex="1"><mxGeometry width="30" height="30" as="geometry"/></mxCell><mxCell id="PxoyzZppylZhse1H5BM7-204" value="user_permissions - ManyToManyField" style="shape=partialRectangle;connectable=0;fillColor=none;top=0;left=0;bottom=0;right=0;align=left;spacingLeft=6;overflow=hidden;strokeColor=#457B9D;fontColor=#1D3557;" parent="PxoyzZppylZhse1H5BM7-202" vertex="1"><mxGeometry x="30" width="280" height="30" as="geometry"/></mxCell><mxCell id="7h7oOzLDd36lB9lt4ihk-85" value="Message" style="shape=table;startSize=30;container=1;collapsible=1;childLayout=tableLayout;fixedRows=1;rowLines=0;fontStyle=1;align=center;resizeLast=1;strokeColor=#457B9D;fillColor=#A8DADC;fontColor=#1D3557;" parent="7h7oOzLDd36lB9lt4ihk-213" vertex="1"><mxGeometry x="380" y="310" width="180" height="220" as="geometry"/></mxCell><mxCell id="7h7oOzLDd36lB9lt4ihk-86" value="" style="shape=partialRectangle;collapsible=0;dropTarget=0;pointerEvents=0;fillColor=none;top=0;left=0;bottom=1;right=0;points=[[0,0.5],[1,0.5]];portConstraint=eastwest;strokeColor=#457B9D;fontColor=#1D3557;" parent="7h7oOzLDd36lB9lt4ihk-85" vertex="1"><mxGeometry y="30" width="180" height="30" as="geometry"/></mxCell><mxCell id="7h7oOzLDd36lB9lt4ihk-87" value="PK" style="shape=partialRectangle;connectable=0;fillColor=none;top=0;left=0;bottom=0;right=0;fontStyle=1;overflow=hidden;strokeColor=#457B9D;fontColor=#1D3557;" parent="7h7oOzLDd36lB9lt4ihk-86" vertex="1"><mxGeometry width="30" height="30" as="geometry"/></mxCell><mxCell id="7h7oOzLDd36lB9lt4ihk-88" value="id" style="shape=partialRectangle;connectable=0;fillColor=none;top=0;left=0;bottom=0;right=0;align=left;spacingLeft=6;fontStyle=5;overflow=hidden;strokeColor=#457B9D;fontColor=#1D3557;" parent="7h7oOzLDd36lB9lt4ihk-86" vertex="1"><mxGeometry x="30" width="150" height="30" as="geometry"/></mxCell><mxCell id="7h7oOzLDd36lB9lt4ihk-104" value="" style="shape=partialRectangle;collapsible=0;dropTarget=0;pointerEvents=0;fillColor=none;top=0;left=0;bottom=0;right=0;points=[[0,0.5],[1,0.5]];portConstraint=eastwest;strokeColor=#457B9D;fontColor=#1D3557;" parent="7h7oOzLDd36lB9lt4ihk-85" vertex="1"><mxGeometry y="60" width="180" height="30" as="geometry"/></mxCell><mxCell id="7h7oOzLDd36lB9lt4ihk-105" value="" style="shape=partialRectangle;connectable=0;fillColor=none;top=0;left=0;bottom=0;right=0;editable=1;overflow=hidden;strokeColor=#457B9D;fontColor=#1D3557;" parent="7h7oOzLDd36lB9lt4ihk-104" vertex="1"><mxGeometry width="30" height="30" as="geometry"/></mxCell><mxCell id="7h7oOzLDd36lB9lt4ihk-106" value="title - CharField" style="shape=partialRectangle;connectable=0;fillColor=none;top=0;left=0;bottom=0;right=0;align=left;spacingLeft=6;overflow=hidden;strokeColor=#457B9D;fontColor=#1D3557;" parent="7h7oOzLDd36lB9lt4ihk-104" vertex="1"><mxGeometry x="30" width="150" height="30" as="geometry"/></mxCell><mxCell id="7h7oOzLDd36lB9lt4ihk-107" value="" style="shape=partialRectangle;collapsible=0;dropTarget=0;pointerEvents=0;fillColor=none;top=0;left=0;bottom=0;right=0;points=[[0,0.5],[1,0.5]];portConstraint=eastwest;strokeColor=#457B9D;fontColor=#1D3557;" parent="7h7oOzLDd36lB9lt4ihk-85" vertex="1"><mxGeometry y="90" width="180" height="30" as="geometry"/></mxCell><mxCell id="7h7oOzLDd36lB9lt4ihk-108" value="" style="shape=partialRectangle;connectable=0;fillColor=none;top=0;left=0;bottom=0;right=0;editable=1;overflow=hidden;strokeColor=#457B9D;fontColor=#1D3557;" parent="7h7oOzLDd36lB9lt4ihk-107" vertex="1"><mxGeometry width="30" height="30" as="geometry"/></mxCell><mxCell id="7h7oOzLDd36lB9lt4ihk-109" value="description - CharField" style="shape=partialRectangle;connectable=0;fillColor=none;top=0;left=0;bottom=0;right=0;align=left;spacingLeft=6;overflow=hidden;strokeColor=#457B9D;fontColor=#1D3557;" parent="7h7oOzLDd36lB9lt4ihk-107" vertex="1"><mxGeometry x="30" width="150" height="30" as="geometry"/></mxCell><mxCell id="7h7oOzLDd36lB9lt4ihk-95" value="" style="shape=partialRectangle;collapsible=0;dropTarget=0;pointerEvents=0;fillColor=none;top=0;left=0;bottom=0;right=0;points=[[0,0.5],[1,0.5]];portConstraint=eastwest;strokeColor=#457B9D;fontColor=#1D3557;" parent="7h7oOzLDd36lB9lt4ihk-85" vertex="1"><mxGeometry y="120" width="180" height="30" as="geometry"/></mxCell><mxCell id="7h7oOzLDd36lB9lt4ihk-96" value="" style="shape=partialRectangle;connectable=0;fillColor=none;top=0;left=0;bottom=0;right=0;editable=1;overflow=hidden;strokeColor=#457B9D;fontColor=#1D3557;" parent="7h7oOzLDd36lB9lt4ihk-95" vertex="1"><mxGeometry width="30" height="30" as="geometry"/></mxCell><mxCell id="7h7oOzLDd36lB9lt4ihk-97" value="created - DateTimeField" style="shape=partialRectangle;connectable=0;fillColor=none;top=0;left=0;bottom=0;right=0;align=left;spacingLeft=6;overflow=hidden;strokeColor=#457B9D;fontColor=#1D3557;" parent="7h7oOzLDd36lB9lt4ihk-95" vertex="1"><mxGeometry x="30" width="150" height="30" as="geometry"/></mxCell><mxCell id="7h7oOzLDd36lB9lt4ihk-98" value="" style="shape=partialRectangle;collapsible=0;dropTarget=0;pointerEvents=0;fillColor=none;top=0;left=0;bottom=0;right=0;points=[[0,0.5],[1,0.5]];portConstraint=eastwest;strokeColor=#457B9D;fontColor=#1D3557;" parent="7h7oOzLDd36lB9lt4ihk-85" vertex="1"><mxGeometry y="150" width="180" height="30" as="geometry"/></mxCell><mxCell id="7h7oOzLDd36lB9lt4ihk-99" value="FK" style="shape=partialRectangle;connectable=0;fillColor=none;top=0;left=0;bottom=0;right=0;fontStyle=0;overflow=hidden;strokeColor=#457B9D;fontColor=#1D3557;" parent="7h7oOzLDd36lB9lt4ihk-98" vertex="1"><mxGeometry width="30" height="30" as="geometry"/></mxCell><mxCell id="7h7oOzLDd36lB9lt4ihk-100" value="receiver - ForeignKey" style="shape=partialRectangle;connectable=0;fillColor=none;top=0;left=0;bottom=0;right=0;align=left;spacingLeft=6;fontStyle=0;overflow=hidden;strokeColor=#457B9D;fontColor=#1D3557;" parent="7h7oOzLDd36lB9lt4ihk-98" vertex="1"><mxGeometry x="30" width="150" height="30" as="geometry"/></mxCell><mxCell id="7h7oOzLDd36lB9lt4ihk-101" value="" style="shape=partialRectangle;collapsible=0;dropTarget=0;pointerEvents=0;fillColor=none;top=0;left=0;bottom=0;right=0;points=[[0,0.5],[1,0.5]];portConstraint=eastwest;strokeColor=#457B9D;fontColor=#1D3557;" parent="7h7oOzLDd36lB9lt4ihk-85" vertex="1"><mxGeometry y="180" width="180" height="30" as="geometry"/></mxCell><mxCell id="7h7oOzLDd36lB9lt4ihk-102" value="FK" style="shape=partialRectangle;connectable=0;fillColor=none;top=0;left=0;bottom=0;right=0;fontStyle=0;overflow=hidden;strokeColor=#457B9D;fontColor=#1D3557;" parent="7h7oOzLDd36lB9lt4ihk-101" vertex="1"><mxGeometry width="30" height="30" as="geometry"/></mxCell><mxCell id="7h7oOzLDd36lB9lt4ihk-103" value="created_by - ForeignKey" style="shape=partialRectangle;connectable=0;fillColor=none;top=0;left=0;bottom=0;right=0;align=left;spacingLeft=6;fontStyle=0;overflow=hidden;strokeColor=#457B9D;fontColor=#1D3557;" parent="7h7oOzLDd36lB9lt4ihk-101" vertex="1"><mxGeometry x="30" width="150" height="30" as="geometry"/></mxCell><mxCell id="7h7oOzLDd36lB9lt4ihk-110" value="CallRequest" style="shape=table;startSize=30;container=1;collapsible=1;childLayout=tableLayout;fixedRows=1;rowLines=0;fontStyle=1;align=center;resizeLast=1;strokeColor=#457B9D;fillColor=#A8DADC;fontColor=#1D3557;" parent="7h7oOzLDd36lB9lt4ihk-213" vertex="1"><mxGeometry x="380" y="40" width="180" height="250" as="geometry"/></mxCell><mxCell id="7h7oOzLDd36lB9lt4ihk-111" value="" style="shape=partialRectangle;collapsible=0;dropTarget=0;pointerEvents=0;fillColor=none;top=0;left=0;bottom=1;right=0;points=[[0,0.5],[1,0.5]];portConstraint=eastwest;strokeColor=#457B9D;fontColor=#1D3557;" parent="7h7oOzLDd36lB9lt4ihk-110" vertex="1"><mxGeometry y="30" width="180" height="30" as="geometry"/></mxCell><mxCell id="7h7oOzLDd36lB9lt4ihk-112" value="PK" style="shape=partialRectangle;connectable=0;fillColor=none;top=0;left=0;bottom=0;right=0;fontStyle=1;overflow=hidden;strokeColor=#457B9D;fontColor=#1D3557;" parent="7h7oOzLDd36lB9lt4ihk-111" vertex="1"><mxGeometry width="30" height="30" as="geometry"/></mxCell><mxCell id="7h7oOzLDd36lB9lt4ihk-113" value="id" style="shape=partialRectangle;connectable=0;fillColor=none;top=0;left=0;bottom=0;right=0;align=left;spacingLeft=6;fontStyle=5;overflow=hidden;strokeColor=#457B9D;fontColor=#1D3557;" parent="7h7oOzLDd36lB9lt4ihk-111" vertex="1"><mxGeometry x="30" width="150" height="30" as="geometry"/></mxCell><mxCell id="7h7oOzLDd36lB9lt4ihk-114" value="" style="shape=partialRectangle;collapsible=0;dropTarget=0;pointerEvents=0;fillColor=none;top=0;left=0;bottom=0;right=0;points=[[0,0.5],[1,0.5]];portConstraint=eastwest;strokeColor=#457B9D;fontColor=#1D3557;" parent="7h7oOzLDd36lB9lt4ihk-110" vertex="1"><mxGeometry y="60" width="180" height="30" as="geometry"/></mxCell><mxCell id="7h7oOzLDd36lB9lt4ihk-115" value="" style="shape=partialRectangle;connectable=0;fillColor=none;top=0;left=0;bottom=0;right=0;editable=1;overflow=hidden;strokeColor=#457B9D;fontColor=#1D3557;" parent="7h7oOzLDd36lB9lt4ihk-114" vertex="1"><mxGeometry width="30" height="30" as="geometry"/></mxCell><mxCell id="7h7oOzLDd36lB9lt4ihk-116" value="description - CharField" style="shape=partialRectangle;connectable=0;fillColor=none;top=0;left=0;bottom=0;right=0;align=left;spacingLeft=6;overflow=hidden;strokeColor=#457B9D;fontColor=#1D3557;" parent="7h7oOzLDd36lB9lt4ihk-114" vertex="1"><mxGeometry x="30" width="150" height="30" as="geometry"/></mxCell><mxCell id="7h7oOzLDd36lB9lt4ihk-123" value="" style="shape=partialRectangle;collapsible=0;dropTarget=0;pointerEvents=0;fillColor=none;top=0;left=0;bottom=0;right=0;points=[[0,0.5],[1,0.5]];portConstraint=eastwest;strokeColor=#457B9D;fontColor=#1D3557;" parent="7h7oOzLDd36lB9lt4ihk-110" vertex="1"><mxGeometry y="90" width="180" height="30" as="geometry"/></mxCell><mxCell id="7h7oOzLDd36lB9lt4ihk-124" value="" style="shape=partialRectangle;connectable=0;fillColor=none;top=0;left=0;bottom=0;right=0;editable=1;overflow=hidden;strokeColor=#457B9D;fontColor=#1D3557;" parent="7h7oOzLDd36lB9lt4ihk-123" vertex="1"><mxGeometry width="30" height="30" as="geometry"/></mxCell><mxCell id="7h7oOzLDd36lB9lt4ihk-125" value="master_type - ChoiseField" style="shape=partialRectangle;connectable=0;fillColor=none;top=0;left=0;bottom=0;right=0;align=left;spacingLeft=6;overflow=hidden;strokeColor=#457B9D;fontColor=#1D3557;" parent="7h7oOzLDd36lB9lt4ihk-123" vertex="1"><mxGeometry x="30" width="150" height="30" as="geometry"/></mxCell><mxCell id="7h7oOzLDd36lB9lt4ihk-126" value="" style="shape=partialRectangle;collapsible=0;dropTarget=0;pointerEvents=0;fillColor=none;top=0;left=0;bottom=0;right=0;points=[[0,0.5],[1,0.5]];portConstraint=eastwest;strokeColor=#457B9D;fontColor=#1D3557;" parent="7h7oOzLDd36lB9lt4ihk-110" vertex="1"><mxGeometry y="120" width="180" height="30" as="geometry"/></mxCell><mxCell id="7h7oOzLDd36lB9lt4ihk-127" value="" style="shape=partialRectangle;connectable=0;fillColor=none;top=0;left=0;bottom=0;right=0;editable=1;overflow=hidden;strokeColor=#457B9D;fontColor=#1D3557;" parent="7h7oOzLDd36lB9lt4ihk-126" vertex="1"><mxGeometry width="30" height="30" as="geometry"/></mxCell><mxCell id="7h7oOzLDd36lB9lt4ihk-128" value="comment - CharField" style="shape=partialRectangle;connectable=0;fillColor=none;top=0;left=0;bottom=0;right=0;align=left;spacingLeft=6;overflow=hidden;strokeColor=#457B9D;fontColor=#1D3557;" parent="7h7oOzLDd36lB9lt4ihk-126" vertex="1"><mxGeometry x="30" width="150" height="30" as="geometry"/></mxCell><mxCell id="7h7oOzLDd36lB9lt4ihk-117" value="" style="shape=partialRectangle;collapsible=0;dropTarget=0;pointerEvents=0;fillColor=none;top=0;left=0;bottom=0;right=0;points=[[0,0.5],[1,0.5]];portConstraint=eastwest;strokeColor=#457B9D;fontColor=#1D3557;" parent="7h7oOzLDd36lB9lt4ihk-110" vertex="1"><mxGeometry y="150" width="180" height="30" as="geometry"/></mxCell><mxCell id="7h7oOzLDd36lB9lt4ihk-118" value="" style="shape=partialRectangle;connectable=0;fillColor=none;top=0;left=0;bottom=0;right=0;editable=1;overflow=hidden;strokeColor=#457B9D;fontColor=#1D3557;" parent="7h7oOzLDd36lB9lt4ihk-117" vertex="1"><mxGeometry width="30" height="30" as="geometry"/></mxCell><mxCell id="7h7oOzLDd36lB9lt4ihk-119" value="status - ChoiseField" style="shape=partialRectangle;connectable=0;fillColor=none;top=0;left=0;bottom=0;right=0;align=left;spacingLeft=6;overflow=hidden;strokeColor=#457B9D;fontColor=#1D3557;" parent="7h7oOzLDd36lB9lt4ihk-117" vertex="1"><mxGeometry x="30" width="150" height="30" as="geometry"/></mxCell><mxCell id="7h7oOzLDd36lB9lt4ihk-132" value="" style="shape=partialRectangle;collapsible=0;dropTarget=0;pointerEvents=0;fillColor=none;top=0;left=0;bottom=0;right=0;points=[[0,0.5],[1,0.5]];portConstraint=eastwest;strokeColor=#457B9D;fontColor=#1D3557;" parent="7h7oOzLDd36lB9lt4ihk-110" vertex="1"><mxGeometry y="180" width="180" height="30" as="geometry"/></mxCell><mxCell id="7h7oOzLDd36lB9lt4ihk-133" value="" style="shape=partialRectangle;connectable=0;fillColor=none;top=0;left=0;bottom=0;right=0;editable=1;overflow=hidden;strokeColor=#457B9D;fontColor=#1D3557;" parent="7h7oOzLDd36lB9lt4ihk-132" vertex="1"><mxGeometry width="30" height="30" as="geometry"/></mxCell><mxCell id="7h7oOzLDd36lB9lt4ihk-134" value="created - DateTimeField" style="shape=partialRectangle;connectable=0;fillColor=none;top=0;left=0;bottom=0;right=0;align=left;spacingLeft=6;overflow=hidden;strokeColor=#457B9D;fontColor=#1D3557;" parent="7h7oOzLDd36lB9lt4ihk-132" vertex="1"><mxGeometry x="30" width="150" height="30" as="geometry"/></mxCell><mxCell id="7h7oOzLDd36lB9lt4ihk-129" value="" style="shape=partialRectangle;collapsible=0;dropTarget=0;pointerEvents=0;fillColor=none;top=0;left=0;bottom=0;right=0;points=[[0,0.5],[1,0.5]];portConstraint=eastwest;strokeColor=#457B9D;fontColor=#1D3557;" parent="7h7oOzLDd36lB9lt4ihk-110" vertex="1"><mxGeometry y="210" width="180" height="30" as="geometry"/></mxCell><mxCell id="7h7oOzLDd36lB9lt4ihk-130" value="FK" style="shape=partialRectangle;connectable=0;fillColor=none;top=0;left=0;bottom=0;right=0;fontStyle=0;overflow=hidden;strokeColor=#457B9D;fontColor=#1D3557;" parent="7h7oOzLDd36lB9lt4ihk-129" vertex="1"><mxGeometry width="30" height="30" as="geometry"/></mxCell><mxCell id="7h7oOzLDd36lB9lt4ihk-131" value="created_by - ForeignKey" style="shape=partialRectangle;connectable=0;fillColor=none;top=0;left=0;bottom=0;right=0;align=left;spacingLeft=6;fontStyle=0;overflow=hidden;strokeColor=#457B9D;fontColor=#1D3557;" parent="7h7oOzLDd36lB9lt4ihk-129" vertex="1"><mxGeometry x="30" width="150" height="30" as="geometry"/></mxCell><mxCell id="7h7oOzLDd36lB9lt4ihk-141" value="" style="edgeStyle=elbowEdgeStyle;fontSize=12;html=1;endArrow=ERoneToMany;startArrow=ERzeroToOne;entryX=0;entryY=0.5;entryDx=0;entryDy=0;exitX=1;exitY=0.5;exitDx=0;exitDy=0;labelBackgroundColor=#F1FAEE;strokeColor=#457B9D;fontColor=#1D3557;" parent="7h7oOzLDd36lB9lt4ihk-213" source="PxoyzZppylZhse1H5BM7-172" target="7h7oOzLDd36lB9lt4ihk-129" edge="1"><mxGeometry width="100" height="100" relative="1" as="geometry"><mxPoint x="620" y="680" as="sourcePoint"/><mxPoint x="720" y="580" as="targetPoint"/></mxGeometry></mxCell><mxCell id="7h7oOzLDd36lB9lt4ihk-142" value="" style="edgeStyle=elbowEdgeStyle;fontSize=12;html=1;endArrow=ERoneToMany;startArrow=ERzeroToOne;entryX=0;entryY=0.5;entryDx=0;entryDy=0;exitX=1;exitY=0.5;exitDx=0;exitDy=0;labelBackgroundColor=#F1FAEE;strokeColor=#457B9D;fontColor=#1D3557;" parent="7h7oOzLDd36lB9lt4ihk-213" source="PxoyzZppylZhse1H5BM7-172" target="7h7oOzLDd36lB9lt4ihk-101" edge="1"><mxGeometry width="100" height="100" relative="1" as="geometry"><mxPoint x="720" y="289.9999999999998" as="sourcePoint"/><mxPoint x="760" y="469.9999999999998" as="targetPoint"/></mxGeometry></mxCell><mxCell id="7h7oOzLDd36lB9lt4ihk-143" value="" style="edgeStyle=elbowEdgeStyle;fontSize=12;html=1;endArrow=ERoneToMany;startArrow=ERzeroToOne;entryX=0;entryY=0.5;entryDx=0;entryDy=0;exitX=1;exitY=0.5;exitDx=0;exitDy=0;labelBackgroundColor=#F1FAEE;strokeColor=#457B9D;fontColor=#1D3557;" parent="7h7oOzLDd36lB9lt4ihk-213" source="PxoyzZppylZhse1H5BM7-172" target="7h7oOzLDd36lB9lt4ihk-98" edge="1"><mxGeometry width="100" height="100" relative="1" as="geometry"><mxPoint x="630" y="289.9999999999998" as="sourcePoint"/><mxPoint x="670" y="469.9999999999998" as="targetPoint"/></mxGeometry></mxCell><mxCell id="7h7oOzLDd36lB9lt4ihk-145" value="&lt;b style=&quot;line-height: 120%&quot;&gt;&lt;font style=&quot;font-size: 18px&quot;&gt;Users&lt;/font&gt;&lt;/b&gt;" style="text;html=1;strokeColor=none;fillColor=none;align=center;verticalAlign=middle;whiteSpace=wrap;rounded=0;fontColor=#1D3557;" parent="7h7oOzLDd36lB9lt4ihk-213" vertex="1"><mxGeometry x="260" y="10" width="80" height="20" as="geometry"/></mxCell><mxCell id="7h7oOzLDd36lB9lt4ihk-177" style="edgeStyle=elbowEdgeStyle;rounded=0;orthogonalLoop=1;jettySize=auto;html=1;fontColor=#1D3557;labelBackgroundColor=#F1FAEE;strokeColor=#457B9D;" parent="7h7oOzLDd36lB9lt4ihk-213" source="7h7oOzLDd36lB9lt4ihk-98" target="7h7oOzLDd36lB9lt4ihk-35" edge="1"><mxGeometry relative="1" as="geometry"/></mxCell><mxCell id="7h7oOzLDd36lB9lt4ihk-84" value="A" style="group;fontColor=#1D3557;" parent="1" vertex="1" connectable="0"><mxGeometry x="-820" y="30" width="760" height="630" as="geometry"/></mxCell><mxCell id="4q9rLLTR2RdjvRJnRLcd-2" value="" style="rounded=0;whiteSpace=wrap;html=1;fillColor=#A8DADC;strokeColor=#457B9D;fontColor=#1D3557;" parent="7h7oOzLDd36lB9lt4ihk-84" vertex="1"><mxGeometry width="760" height="630" as="geometry"/></mxCell><mxCell id="PxoyzZppylZhse1H5BM7-34" value="Flat" style="shape=table;startSize=30;container=1;collapsible=1;childLayout=tableLayout;fixedRows=1;rowLines=0;fontStyle=1;align=center;resizeLast=1;fillColor=#A8DADC;strokeColor=#457B9D;fontColor=#1D3557;" parent="7h7oOzLDd36lB9lt4ihk-84" vertex="1"><mxGeometry x="395" y="40" width="340" height="310" as="geometry"/></mxCell><mxCell id="PxoyzZppylZhse1H5BM7-35" value="" style="shape=partialRectangle;collapsible=0;dropTarget=0;pointerEvents=0;fillColor=none;top=0;left=0;bottom=1;right=0;points=[[0,0.5],[1,0.5]];portConstraint=eastwest;strokeColor=#457B9D;fontColor=#1D3557;" parent="PxoyzZppylZhse1H5BM7-34" vertex="1"><mxGeometry y="30" width="340" height="30" as="geometry"/></mxCell><mxCell id="PxoyzZppylZhse1H5BM7-36" value="PK" style="shape=partialRectangle;connectable=0;fillColor=none;top=0;left=0;bottom=0;right=0;fontStyle=1;overflow=hidden;strokeColor=#457B9D;fontColor=#1D3557;" parent="PxoyzZppylZhse1H5BM7-35" vertex="1"><mxGeometry width="30" height="30" as="geometry"/></mxCell><mxCell id="PxoyzZppylZhse1H5BM7-37" value="id" style="shape=partialRectangle;connectable=0;fillColor=none;top=0;left=0;bottom=0;right=0;align=left;spacingLeft=6;fontStyle=5;overflow=hidden;strokeColor=#457B9D;fontColor=#1D3557;" parent="PxoyzZppylZhse1H5BM7-35" vertex="1"><mxGeometry x="30" width="310" height="30" as="geometry"/></mxCell><mxCell id="PxoyzZppylZhse1H5BM7-38" value="" style="shape=partialRectangle;collapsible=0;dropTarget=0;pointerEvents=0;fillColor=none;top=0;left=0;bottom=0;right=0;points=[[0,0.5],[1,0.5]];portConstraint=eastwest;strokeColor=#457B9D;fontColor=#1D3557;" parent="PxoyzZppylZhse1H5BM7-34" vertex="1"><mxGeometry y="60" width="340" height="30" as="geometry"/></mxCell><mxCell id="PxoyzZppylZhse1H5BM7-39" value="" style="shape=partialRectangle;connectable=0;fillColor=none;top=0;left=0;bottom=0;right=0;editable=1;overflow=hidden;strokeColor=#457B9D;fontColor=#1D3557;" parent="PxoyzZppylZhse1H5BM7-38" vertex="1"><mxGeometry width="30" height="30" as="geometry"/></mxCell><mxCell id="PxoyzZppylZhse1H5BM7-40" value="number - PositiveIntegerField" style="shape=partialRectangle;connectable=0;fillColor=none;top=0;left=0;bottom=0;right=0;align=left;spacingLeft=6;overflow=hidden;strokeColor=#457B9D;fontColor=#1D3557;" parent="PxoyzZppylZhse1H5BM7-38" vertex="1"><mxGeometry x="30" width="310" height="30" as="geometry"/></mxCell><mxCell id="PxoyzZppylZhse1H5BM7-66" value="" style="shape=partialRectangle;collapsible=0;dropTarget=0;pointerEvents=0;fillColor=none;top=0;left=0;bottom=0;right=0;points=[[0,0.5],[1,0.5]];portConstraint=eastwest;strokeColor=#457B9D;fontColor=#1D3557;" parent="PxoyzZppylZhse1H5BM7-34" vertex="1"><mxGeometry y="90" width="340" height="30" as="geometry"/></mxCell><mxCell id="PxoyzZppylZhse1H5BM7-67" value="" style="shape=partialRectangle;connectable=0;fillColor=none;top=0;left=0;bottom=0;right=0;editable=1;overflow=hidden;strokeColor=#457B9D;fontColor=#1D3557;" parent="PxoyzZppylZhse1H5BM7-66" vertex="1"><mxGeometry width="30" height="30" as="geometry"/></mxCell><mxCell id="PxoyzZppylZhse1H5BM7-68" value="area - DecimalField" style="shape=partialRectangle;connectable=0;fillColor=none;top=0;left=0;bottom=0;right=0;align=left;spacingLeft=6;overflow=hidden;strokeColor=#457B9D;fontColor=#1D3557;" parent="PxoyzZppylZhse1H5BM7-66" vertex="1"><mxGeometry x="30" width="310" height="30" as="geometry"/></mxCell><mxCell id="PxoyzZppylZhse1H5BM7-57" value="" style="shape=partialRectangle;collapsible=0;dropTarget=0;pointerEvents=0;fillColor=none;top=0;left=0;bottom=0;right=0;points=[[0,0.5],[1,0.5]];portConstraint=eastwest;strokeColor=#457B9D;fontColor=#1D3557;" parent="PxoyzZppylZhse1H5BM7-34" vertex="1"><mxGeometry y="120" width="340" height="30" as="geometry"/></mxCell><mxCell id="PxoyzZppylZhse1H5BM7-58" value="FK" style="shape=partialRectangle;connectable=0;fillColor=none;top=0;left=0;bottom=0;right=0;fontStyle=1;overflow=hidden;strokeColor=#457B9D;fontColor=#1D3557;" parent="PxoyzZppylZhse1H5BM7-57" vertex="1"><mxGeometry width="30" height="30" as="geometry"/></mxCell><mxCell id="PxoyzZppylZhse1H5BM7-59" value="floor - ForeignKey" style="shape=partialRectangle;connectable=0;fillColor=none;top=0;left=0;bottom=0;right=0;align=left;spacingLeft=6;fontStyle=0;overflow=hidden;strokeColor=#457B9D;fontColor=#1D3557;" parent="PxoyzZppylZhse1H5BM7-57" vertex="1"><mxGeometry x="30" width="310" height="30" as="geometry"/></mxCell><mxCell id="PxoyzZppylZhse1H5BM7-54" value="" style="shape=partialRectangle;collapsible=0;dropTarget=0;pointerEvents=0;fillColor=none;top=0;left=0;bottom=0;right=0;points=[[0,0.5],[1,0.5]];portConstraint=eastwest;strokeColor=#457B9D;fontColor=#1D3557;" parent="PxoyzZppylZhse1H5BM7-34" vertex="1"><mxGeometry y="150" width="340" height="30" as="geometry"/></mxCell><mxCell id="PxoyzZppylZhse1H5BM7-55" value="FK" style="shape=partialRectangle;connectable=0;fillColor=none;top=0;left=0;bottom=0;right=0;fontStyle=1;overflow=hidden;strokeColor=#457B9D;fontColor=#1D3557;" parent="PxoyzZppylZhse1H5BM7-54" vertex="1"><mxGeometry width="30" height="30" as="geometry"/></mxCell><mxCell id="PxoyzZppylZhse1H5BM7-56" value="section - ForeignKey" style="shape=partialRectangle;connectable=0;fillColor=none;top=0;left=0;bottom=0;right=0;align=left;spacingLeft=6;fontStyle=0;overflow=hidden;strokeColor=#457B9D;fontColor=#1D3557;" parent="PxoyzZppylZhse1H5BM7-54" vertex="1"><mxGeometry x="30" width="310" height="30" as="geometry"/></mxCell><mxCell id="PxoyzZppylZhse1H5BM7-51" value="" style="shape=partialRectangle;collapsible=0;dropTarget=0;pointerEvents=0;fillColor=none;top=0;left=0;bottom=0;right=0;points=[[0,0.5],[1,0.5]];portConstraint=eastwest;strokeColor=#457B9D;fontColor=#1D3557;" parent="PxoyzZppylZhse1H5BM7-34" vertex="1"><mxGeometry y="180" width="340" height="30" as="geometry"/></mxCell><mxCell id="PxoyzZppylZhse1H5BM7-52" value="FK" style="shape=partialRectangle;connectable=0;fillColor=none;top=0;left=0;bottom=0;right=0;fontStyle=1;overflow=hidden;strokeColor=#457B9D;fontColor=#1D3557;" parent="PxoyzZppylZhse1H5BM7-51" vertex="1"><mxGeometry width="30" height="30" as="geometry"/></mxCell><mxCell id="PxoyzZppylZhse1H5BM7-53" value="house - ForeignKey" style="shape=partialRectangle;connectable=0;fillColor=none;top=0;left=0;bottom=0;right=0;align=left;spacingLeft=6;fontStyle=0;overflow=hidden;strokeColor=#457B9D;fontColor=#1D3557;" parent="PxoyzZppylZhse1H5BM7-51" vertex="1"><mxGeometry x="30" width="310" height="30" as="geometry"/></mxCell><mxCell id="PxoyzZppylZhse1H5BM7-60" value="" style="shape=partialRectangle;collapsible=0;dropTarget=0;pointerEvents=0;fillColor=none;top=0;left=0;bottom=0;right=0;points=[[0,0.5],[1,0.5]];portConstraint=eastwest;strokeColor=#457B9D;fontColor=#1D3557;" parent="PxoyzZppylZhse1H5BM7-34" vertex="1"><mxGeometry y="210" width="340" height="30" as="geometry"/></mxCell><mxCell id="PxoyzZppylZhse1H5BM7-61" value="FK" style="shape=partialRectangle;connectable=0;fillColor=none;top=0;left=0;bottom=0;right=0;fontStyle=1;overflow=hidden;strokeColor=#457B9D;fontColor=#1D3557;" parent="PxoyzZppylZhse1H5BM7-60" vertex="1"><mxGeometry width="30" height="30" as="geometry"/></mxCell><mxCell id="PxoyzZppylZhse1H5BM7-62" value="owner - ForeignKey" style="shape=partialRectangle;connectable=0;fillColor=none;top=0;left=0;bottom=0;right=0;align=left;spacingLeft=6;fontStyle=0;overflow=hidden;strokeColor=#457B9D;fontColor=#1D3557;" parent="PxoyzZppylZhse1H5BM7-60" vertex="1"><mxGeometry x="30" width="310" height="30" as="geometry"/></mxCell><mxCell id="PxoyzZppylZhse1H5BM7-63" value="" style="shape=partialRectangle;collapsible=0;dropTarget=0;pointerEvents=0;fillColor=none;top=0;left=0;bottom=0;right=0;points=[[0,0.5],[1,0.5]];portConstraint=eastwest;strokeColor=#457B9D;fontColor=#1D3557;" parent="PxoyzZppylZhse1H5BM7-34" vertex="1"><mxGeometry y="240" width="340" height="30" as="geometry"/></mxCell><mxCell id="PxoyzZppylZhse1H5BM7-64" value="FK" style="shape=partialRectangle;connectable=0;fillColor=none;top=0;left=0;bottom=0;right=0;fontStyle=1;overflow=hidden;strokeColor=#457B9D;fontColor=#1D3557;" parent="PxoyzZppylZhse1H5BM7-63" vertex="1"><mxGeometry width="30" height="30" as="geometry"/></mxCell><mxCell id="PxoyzZppylZhse1H5BM7-65" value="account - ForeignKey" style="shape=partialRectangle;connectable=0;fillColor=none;top=0;left=0;bottom=0;right=0;align=left;spacingLeft=6;fontStyle=0;overflow=hidden;strokeColor=#457B9D;fontColor=#1D3557;" parent="PxoyzZppylZhse1H5BM7-63" vertex="1"><mxGeometry x="30" width="310" height="30" as="geometry"/></mxCell><mxCell id="PxoyzZppylZhse1H5BM7-69" value="" style="shape=partialRectangle;collapsible=0;dropTarget=0;pointerEvents=0;fillColor=none;top=0;left=0;bottom=0;right=0;points=[[0,0.5],[1,0.5]];portConstraint=eastwest;strokeColor=#457B9D;fontColor=#1D3557;" parent="PxoyzZppylZhse1H5BM7-34" vertex="1"><mxGeometry y="270" width="340" height="30" as="geometry"/></mxCell><mxCell id="PxoyzZppylZhse1H5BM7-70" value="FK" style="shape=partialRectangle;connectable=0;fillColor=none;top=0;left=0;bottom=0;right=0;fontStyle=1;overflow=hidden;strokeColor=#457B9D;fontColor=#1D3557;" parent="PxoyzZppylZhse1H5BM7-69" vertex="1"><mxGeometry width="30" height="30" as="geometry"/></mxCell><mxCell id="PxoyzZppylZhse1H5BM7-71" value="tariff - ForeignKey" style="shape=partialRectangle;connectable=0;fillColor=none;top=0;left=0;bottom=0;right=0;align=left;spacingLeft=6;fontStyle=0;overflow=hidden;strokeColor=#457B9D;fontColor=#1D3557;" parent="PxoyzZppylZhse1H5BM7-69" vertex="1"><mxGeometry x="30" width="310" height="30" as="geometry"/></mxCell><mxCell id="PxoyzZppylZhse1H5BM7-48" value="&lt;font style=&quot;font-size: 23px&quot;&gt;Property&lt;/font&gt;" style="text;html=1;strokeColor=none;align=center;verticalAlign=middle;whiteSpace=wrap;rounded=0;fontStyle=1;fontColor=#1D3557;" parent="7h7oOzLDd36lB9lt4ihk-84" vertex="1"><mxGeometry x="280" y="10" width="200" height="20" as="geometry"/></mxCell><mxCell id="PxoyzZppylZhse1H5BM7-72" value="House" style="shape=table;startSize=30;container=1;collapsible=1;childLayout=tableLayout;fixedRows=1;rowLines=0;fontStyle=1;align=center;resizeLast=1;fillColor=#A8DADC;strokeColor=#457B9D;fontColor=#1D3557;" parent="7h7oOzLDd36lB9lt4ihk-84" vertex="1"><mxGeometry x="60" y="315" width="270" height="180" as="geometry"/></mxCell><mxCell id="PxoyzZppylZhse1H5BM7-73" value="" style="shape=partialRectangle;collapsible=0;dropTarget=0;pointerEvents=0;fillColor=none;top=0;left=0;bottom=1;right=0;points=[[0,0.5],[1,0.5]];portConstraint=eastwest;strokeColor=#457B9D;fontColor=#1D3557;" parent="PxoyzZppylZhse1H5BM7-72" vertex="1"><mxGeometry y="30" width="270" height="30" as="geometry"/></mxCell><mxCell id="PxoyzZppylZhse1H5BM7-74" value="PK" style="shape=partialRectangle;connectable=0;fillColor=none;top=0;left=0;bottom=0;right=0;fontStyle=1;overflow=hidden;strokeColor=#457B9D;fontColor=#1D3557;" parent="PxoyzZppylZhse1H5BM7-73" vertex="1"><mxGeometry width="30" height="30" as="geometry"/></mxCell><mxCell id="PxoyzZppylZhse1H5BM7-75" value="id" style="shape=partialRectangle;connectable=0;fillColor=none;top=0;left=0;bottom=0;right=0;align=left;spacingLeft=6;fontStyle=5;overflow=hidden;strokeColor=#457B9D;fontColor=#1D3557;" parent="PxoyzZppylZhse1H5BM7-73" vertex="1"><mxGeometry x="30" width="240" height="30" as="geometry"/></mxCell><mxCell id="PxoyzZppylZhse1H5BM7-76" value="" style="shape=partialRectangle;collapsible=0;dropTarget=0;pointerEvents=0;fillColor=none;top=0;left=0;bottom=0;right=0;points=[[0,0.5],[1,0.5]];portConstraint=eastwest;strokeColor=#457B9D;fontColor=#1D3557;" parent="PxoyzZppylZhse1H5BM7-72" vertex="1"><mxGeometry y="60" width="270" height="30" as="geometry"/></mxCell><mxCell id="PxoyzZppylZhse1H5BM7-77" value="" style="shape=partialRectangle;connectable=0;fillColor=none;top=0;left=0;bottom=0;right=0;editable=1;overflow=hidden;strokeColor=#457B9D;fontColor=#1D3557;" parent="PxoyzZppylZhse1H5BM7-76" vertex="1"><mxGeometry width="30" height="30" as="geometry"/></mxCell><mxCell id="PxoyzZppylZhse1H5BM7-78" value="name - CharField" style="shape=partialRectangle;connectable=0;fillColor=none;top=0;left=0;bottom=0;right=0;align=left;spacingLeft=6;overflow=hidden;strokeColor=#457B9D;fontColor=#1D3557;" parent="PxoyzZppylZhse1H5BM7-76" vertex="1"><mxGeometry x="30" width="240" height="30" as="geometry"/></mxCell><mxCell id="PxoyzZppylZhse1H5BM7-79" value="" style="shape=partialRectangle;collapsible=0;dropTarget=0;pointerEvents=0;fillColor=none;top=0;left=0;bottom=0;right=0;points=[[0,0.5],[1,0.5]];portConstraint=eastwest;strokeColor=#457B9D;fontColor=#1D3557;" parent="PxoyzZppylZhse1H5BM7-72" vertex="1"><mxGeometry y="90" width="270" height="30" as="geometry"/></mxCell><mxCell id="PxoyzZppylZhse1H5BM7-80" value="" style="shape=partialRectangle;connectable=0;fillColor=none;top=0;left=0;bottom=0;right=0;editable=1;overflow=hidden;strokeColor=#457B9D;fontColor=#1D3557;" parent="PxoyzZppylZhse1H5BM7-79" vertex="1"><mxGeometry width="30" height="30" as="geometry"/></mxCell><mxCell id="PxoyzZppylZhse1H5BM7-81" value="address - CharField" style="shape=partialRectangle;connectable=0;fillColor=none;top=0;left=0;bottom=0;right=0;align=left;spacingLeft=6;overflow=hidden;strokeColor=#457B9D;fontColor=#1D3557;" parent="PxoyzZppylZhse1H5BM7-79" vertex="1"><mxGeometry x="30" width="240" height="30" as="geometry"/></mxCell><mxCell id="7h7oOzLDd36lB9lt4ihk-64" value="" style="shape=partialRectangle;collapsible=0;dropTarget=0;pointerEvents=0;fillColor=none;top=0;left=0;bottom=0;right=0;points=[[0,0.5],[1,0.5]];portConstraint=eastwest;strokeColor=#457B9D;fontColor=#1D3557;" parent="PxoyzZppylZhse1H5BM7-72" vertex="1"><mxGeometry y="120" width="270" height="30" as="geometry"/></mxCell><mxCell id="7h7oOzLDd36lB9lt4ihk-65" value="FK" style="shape=partialRectangle;connectable=0;fillColor=none;top=0;left=0;bottom=0;right=0;fontStyle=1;overflow=hidden;strokeColor=#457B9D;fontColor=#1D3557;" parent="7h7oOzLDd36lB9lt4ihk-64" vertex="1"><mxGeometry width="30" height="30" as="geometry"/></mxCell><mxCell id="7h7oOzLDd36lB9lt4ihk-66" value="house_staff - ManyToManyField" style="shape=partialRectangle;connectable=0;fillColor=none;top=0;left=0;bottom=0;right=0;align=left;spacingLeft=6;fontStyle=0;overflow=hidden;strokeColor=#457B9D;fontColor=#1D3557;" parent="7h7oOzLDd36lB9lt4ihk-64" vertex="1"><mxGeometry x="30" width="240" height="30" as="geometry"/></mxCell><mxCell id="7h7oOzLDd36lB9lt4ihk-69" value="" style="shape=partialRectangle;collapsible=0;dropTarget=0;pointerEvents=0;fillColor=none;top=0;left=0;bottom=0;right=0;points=[[0,0.5],[1,0.5]];portConstraint=eastwest;strokeColor=#457B9D;fontColor=#1D3557;" parent="PxoyzZppylZhse1H5BM7-72" vertex="1"><mxGeometry y="150" width="270" height="30" as="geometry"/></mxCell><mxCell id="7h7oOzLDd36lB9lt4ihk-70" value="" style="shape=partialRectangle;connectable=0;fillColor=none;top=0;left=0;bottom=0;right=0;editable=1;overflow=hidden;strokeColor=#457B9D;fontColor=#1D3557;" parent="7h7oOzLDd36lB9lt4ihk-69" vertex="1"><mxGeometry width="30" height="30" as="geometry"/></mxCell><mxCell id="7h7oOzLDd36lB9lt4ihk-71" value="gallery - ManyToManyField(GalleryImage)" style="shape=partialRectangle;connectable=0;fillColor=none;top=0;left=0;bottom=0;right=0;align=left;spacingLeft=6;overflow=hidden;strokeColor=#457B9D;fontColor=#1D3557;" parent="7h7oOzLDd36lB9lt4ihk-69" vertex="1"><mxGeometry x="30" width="240" height="30" as="geometry"/></mxCell><mxCell id="PxoyzZppylZhse1H5BM7-116" value="" style="edgeStyle=elbowEdgeStyle;fontSize=12;html=1;endArrow=ERoneToMany;startArrow=ERzeroToOne;exitX=1;exitY=0.5;exitDx=0;exitDy=0;entryX=0;entryY=0.5;entryDx=0;entryDy=0;labelBackgroundColor=#F1FAEE;strokeColor=#457B9D;fontColor=#1D3557;" parent="7h7oOzLDd36lB9lt4ihk-84" source="PxoyzZppylZhse1H5BM7-73" target="PxoyzZppylZhse1H5BM7-51" edge="1"><mxGeometry width="100" height="100" as="geometry"><mxPoint x="510" y="570" as="sourcePoint"/><mxPoint x="610" y="470" as="targetPoint"/><Array as="points"><mxPoint x="360" y="330"/><mxPoint x="340" y="370"/><mxPoint x="360" y="390"/><mxPoint x="360" y="150"/><mxPoint x="330" y="130"/></Array></mxGeometry></mxCell><mxCell id="PxoyzZppylZhse1H5BM7-134" value="Section" style="shape=table;startSize=30;container=1;collapsible=1;childLayout=tableLayout;fixedRows=1;rowLines=0;fontStyle=1;align=center;resizeLast=1;fillColor=#A8DADC;strokeColor=#457B9D;fontColor=#1D3557;" parent="7h7oOzLDd36lB9lt4ihk-84" vertex="1"><mxGeometry x="60" y="170" width="250" height="130" as="geometry"/></mxCell><mxCell id="PxoyzZppylZhse1H5BM7-135" value="" style="shape=partialRectangle;collapsible=0;dropTarget=0;pointerEvents=0;fillColor=none;top=0;left=0;bottom=1;right=0;points=[[0,0.5],[1,0.5]];portConstraint=eastwest;strokeColor=#457B9D;fontColor=#1D3557;" parent="PxoyzZppylZhse1H5BM7-134" vertex="1"><mxGeometry y="30" width="250" height="30" as="geometry"/></mxCell><mxCell id="PxoyzZppylZhse1H5BM7-136" value="PK" style="shape=partialRectangle;connectable=0;fillColor=none;top=0;left=0;bottom=0;right=0;fontStyle=1;overflow=hidden;strokeColor=#457B9D;fontColor=#1D3557;" parent="PxoyzZppylZhse1H5BM7-135" vertex="1"><mxGeometry width="30" height="30" as="geometry"/></mxCell><mxCell id="PxoyzZppylZhse1H5BM7-137" value="id" style="shape=partialRectangle;connectable=0;fillColor=none;top=0;left=0;bottom=0;right=0;align=left;spacingLeft=6;fontStyle=5;overflow=hidden;strokeColor=#457B9D;fontColor=#1D3557;" parent="PxoyzZppylZhse1H5BM7-135" vertex="1"><mxGeometry x="30" width="220" height="30" as="geometry"/></mxCell><mxCell id="PxoyzZppylZhse1H5BM7-138" value="" style="shape=partialRectangle;collapsible=0;dropTarget=0;pointerEvents=0;fillColor=none;top=0;left=0;bottom=0;right=0;points=[[0,0.5],[1,0.5]];portConstraint=eastwest;strokeColor=#457B9D;fontColor=#1D3557;" parent="PxoyzZppylZhse1H5BM7-134" vertex="1"><mxGeometry y="60" width="250" height="30" as="geometry"/></mxCell><mxCell id="PxoyzZppylZhse1H5BM7-139" value="" style="shape=partialRectangle;connectable=0;fillColor=none;top=0;left=0;bottom=0;right=0;editable=1;overflow=hidden;strokeColor=#457B9D;fontColor=#1D3557;" parent="PxoyzZppylZhse1H5BM7-138" vertex="1"><mxGeometry width="30" height="30" as="geometry"/></mxCell><mxCell id="PxoyzZppylZhse1H5BM7-140" value="name - CharField (unique together)" style="shape=partialRectangle;connectable=0;fillColor=none;top=0;left=0;bottom=0;right=0;align=left;spacingLeft=6;overflow=hidden;strokeColor=#457B9D;fontColor=#1D3557;" parent="PxoyzZppylZhse1H5BM7-138" vertex="1"><mxGeometry x="30" width="220" height="30" as="geometry"/></mxCell><mxCell id="PxoyzZppylZhse1H5BM7-147" value="" style="shape=partialRectangle;collapsible=0;dropTarget=0;pointerEvents=0;fillColor=none;top=0;left=0;bottom=0;right=0;points=[[0,0.5],[1,0.5]];portConstraint=eastwest;strokeColor=#457B9D;fontColor=#1D3557;" parent="PxoyzZppylZhse1H5BM7-134" vertex="1"><mxGeometry y="90" width="250" height="30" as="geometry"/></mxCell><mxCell id="PxoyzZppylZhse1H5BM7-148" value="FK" style="shape=partialRectangle;connectable=0;fillColor=none;top=0;left=0;bottom=0;right=0;fontStyle=1;overflow=hidden;strokeColor=#457B9D;fontColor=#1D3557;" parent="PxoyzZppylZhse1H5BM7-147" vertex="1"><mxGeometry width="30" height="30" as="geometry"/></mxCell><mxCell id="PxoyzZppylZhse1H5BM7-149" value="house - ForeignKey (unique together)" style="shape=partialRectangle;connectable=0;fillColor=none;top=0;left=0;bottom=0;right=0;align=left;spacingLeft=6;fontStyle=0;overflow=hidden;strokeColor=#457B9D;fontColor=#1D3557;" parent="PxoyzZppylZhse1H5BM7-147" vertex="1"><mxGeometry x="30" width="220" height="30" as="geometry"/></mxCell><mxCell id="PxoyzZppylZhse1H5BM7-151" value="" style="edgeStyle=elbowEdgeStyle;fontSize=12;html=1;endArrow=ERzeroToMany;startArrow=ERzeroToOne;entryX=0;entryY=0.5;entryDx=0;entryDy=0;endFill=1;exitX=1;exitY=0.5;exitDx=0;exitDy=0;labelBackgroundColor=#F1FAEE;strokeColor=#457B9D;fontColor=#1D3557;" parent="7h7oOzLDd36lB9lt4ihk-84" source="PxoyzZppylZhse1H5BM7-147" target="PxoyzZppylZhse1H5BM7-54" edge="1"><mxGeometry width="100" height="100" as="geometry"><mxPoint x="360" y="305" as="sourcePoint"/><mxPoint x="800" y="540" as="targetPoint"/><Array as="points"><mxPoint x="340" y="240"/><mxPoint x="320" y="260"/><mxPoint x="350" y="270"/><mxPoint x="340" y="260"/></Array></mxGeometry></mxCell><mxCell id="PxoyzZppylZhse1H5BM7-153" value="" style="edgeStyle=orthogonalEdgeStyle;fontSize=12;html=1;endArrow=ERoneToMany;startArrow=ERzeroToOne;entryX=0;entryY=0.5;entryDx=0;entryDy=0;exitX=0;exitY=0.5;exitDx=0;exitDy=0;labelBackgroundColor=#F1FAEE;strokeColor=#457B9D;fontColor=#1D3557;" parent="7h7oOzLDd36lB9lt4ihk-84" source="PxoyzZppylZhse1H5BM7-73" target="PxoyzZppylZhse1H5BM7-147" edge="1"><mxGeometry width="100" height="100" as="geometry"><mxPoint x="-170" y="600" as="sourcePoint"/><mxPoint x="-70" y="500" as="targetPoint"/><Array as="points"><mxPoint x="30" y="360"/><mxPoint x="30" y="275"/></Array></mxGeometry></mxCell><mxCell id="PxoyzZppylZhse1H5BM7-154" value="Floor" style="shape=table;startSize=30;container=1;collapsible=1;childLayout=tableLayout;fixedRows=1;rowLines=0;fontStyle=1;align=center;resizeLast=1;fillColor=#A8DADC;strokeColor=#457B9D;fontColor=#1D3557;" parent="7h7oOzLDd36lB9lt4ihk-84" vertex="1"><mxGeometry x="60" y="30" width="250" height="130" as="geometry"/></mxCell><mxCell id="PxoyzZppylZhse1H5BM7-155" value="" style="shape=partialRectangle;collapsible=0;dropTarget=0;pointerEvents=0;fillColor=none;top=0;left=0;bottom=1;right=0;points=[[0,0.5],[1,0.5]];portConstraint=eastwest;strokeColor=#457B9D;fontColor=#1D3557;" parent="PxoyzZppylZhse1H5BM7-154" vertex="1"><mxGeometry y="30" width="250" height="30" as="geometry"/></mxCell><mxCell id="PxoyzZppylZhse1H5BM7-156" value="PK" style="shape=partialRectangle;connectable=0;fillColor=none;top=0;left=0;bottom=0;right=0;fontStyle=1;overflow=hidden;strokeColor=#457B9D;fontColor=#1D3557;" parent="PxoyzZppylZhse1H5BM7-155" vertex="1"><mxGeometry width="30" height="30" as="geometry"/></mxCell><mxCell id="PxoyzZppylZhse1H5BM7-157" value="id" style="shape=partialRectangle;connectable=0;fillColor=none;top=0;left=0;bottom=0;right=0;align=left;spacingLeft=6;fontStyle=5;overflow=hidden;strokeColor=#457B9D;fontColor=#1D3557;" parent="PxoyzZppylZhse1H5BM7-155" vertex="1"><mxGeometry x="30" width="220" height="30" as="geometry"/></mxCell><mxCell id="PxoyzZppylZhse1H5BM7-161" value="" style="shape=partialRectangle;collapsible=0;dropTarget=0;pointerEvents=0;fillColor=none;top=0;left=0;bottom=0;right=0;points=[[0,0.5],[1,0.5]];portConstraint=eastwest;strokeColor=#457B9D;fontColor=#1D3557;" parent="PxoyzZppylZhse1H5BM7-154" vertex="1"><mxGeometry y="60" width="250" height="30" as="geometry"/></mxCell><mxCell id="PxoyzZppylZhse1H5BM7-162" value="" style="shape=partialRectangle;connectable=0;fillColor=none;top=0;left=0;bottom=0;right=0;editable=1;overflow=hidden;strokeColor=#457B9D;fontColor=#1D3557;" parent="PxoyzZppylZhse1H5BM7-161" vertex="1"><mxGeometry width="30" height="30" as="geometry"/></mxCell><mxCell id="PxoyzZppylZhse1H5BM7-163" value="name - CharField (unique together)" style="shape=partialRectangle;connectable=0;fillColor=none;top=0;left=0;bottom=0;right=0;align=left;spacingLeft=6;overflow=hidden;strokeColor=#457B9D;fontColor=#1D3557;" parent="PxoyzZppylZhse1H5BM7-161" vertex="1"><mxGeometry x="30" width="220" height="30" as="geometry"/></mxCell><mxCell id="PxoyzZppylZhse1H5BM7-167" value="" style="shape=partialRectangle;collapsible=0;dropTarget=0;pointerEvents=0;fillColor=none;top=0;left=0;bottom=0;right=0;points=[[0,0.5],[1,0.5]];portConstraint=eastwest;strokeColor=#457B9D;fontColor=#1D3557;" parent="PxoyzZppylZhse1H5BM7-154" vertex="1"><mxGeometry y="90" width="250" height="30" as="geometry"/></mxCell><mxCell id="PxoyzZppylZhse1H5BM7-168" value="FK" style="shape=partialRectangle;connectable=0;fillColor=none;top=0;left=0;bottom=0;right=0;fontStyle=1;overflow=hidden;strokeColor=#457B9D;fontColor=#1D3557;" parent="PxoyzZppylZhse1H5BM7-167" vertex="1"><mxGeometry width="30" height="30" as="geometry"/></mxCell><mxCell id="PxoyzZppylZhse1H5BM7-169" value="section - ForeignKey (unique together)" style="shape=partialRectangle;connectable=0;fillColor=none;top=0;left=0;bottom=0;right=0;align=left;spacingLeft=6;fontStyle=0;overflow=hidden;strokeColor=#457B9D;fontColor=#1D3557;" parent="PxoyzZppylZhse1H5BM7-167" vertex="1"><mxGeometry x="30" width="220" height="30" as="geometry"/></mxCell><mxCell id="PxoyzZppylZhse1H5BM7-170" value="" style="edgeStyle=elbowEdgeStyle;fontSize=12;html=1;endArrow=ERoneToMany;startArrow=ERzeroToOne;exitX=0;exitY=0.5;exitDx=0;exitDy=0;entryX=0;entryY=0.5;entryDx=0;entryDy=0;labelBackgroundColor=#F1FAEE;strokeColor=#457B9D;fontColor=#1D3557;" parent="7h7oOzLDd36lB9lt4ihk-84" source="PxoyzZppylZhse1H5BM7-135" target="PxoyzZppylZhse1H5BM7-167" edge="1"><mxGeometry width="100" height="100" as="geometry"><mxPoint x="-150" y="670" as="sourcePoint"/><mxPoint x="50" y="465" as="targetPoint"/><Array as="points"><mxPoint x="30" y="350"/></Array></mxGeometry></mxCell><mxCell id="PxoyzZppylZhse1H5BM7-207" value="" style="edgeStyle=elbowEdgeStyle;fontSize=12;html=1;endArrow=ERzeroToMany;startArrow=ERzeroToOne;exitX=1;exitY=0.5;exitDx=0;exitDy=0;entryX=0;entryY=0.5;entryDx=0;entryDy=0;labelBackgroundColor=#F1FAEE;strokeColor=#457B9D;fontColor=#1D3557;" parent="7h7oOzLDd36lB9lt4ihk-84" source="PxoyzZppylZhse1H5BM7-155" target="PxoyzZppylZhse1H5BM7-57" edge="1"><mxGeometry width="100" height="100" as="geometry"><mxPoint x="580" y="530" as="sourcePoint"/><mxPoint x="680" y="430" as="targetPoint"/><Array as="points"><mxPoint x="330" y="170"/><mxPoint x="380" y="320"/></Array></mxGeometry></mxCell><mxCell id="PxoyzZppylZhse1H5BM7-208" value="Account" style="shape=table;startSize=30;container=1;collapsible=1;childLayout=tableLayout;fixedRows=1;rowLines=0;fontStyle=1;align=center;resizeLast=1;fillColor=#A8DADC;strokeColor=#457B9D;fontColor=#1D3557;" parent="7h7oOzLDd36lB9lt4ihk-84" vertex="1"><mxGeometry x="530" y="360" width="205" height="130" as="geometry"/></mxCell><mxCell id="PxoyzZppylZhse1H5BM7-209" value="" style="shape=partialRectangle;collapsible=0;dropTarget=0;pointerEvents=0;fillColor=none;top=0;left=0;bottom=1;right=0;points=[[0,0.5],[1,0.5]];portConstraint=eastwest;strokeColor=#457B9D;fontColor=#1D3557;" parent="PxoyzZppylZhse1H5BM7-208" vertex="1"><mxGeometry y="30" width="205" height="30" as="geometry"/></mxCell><mxCell id="PxoyzZppylZhse1H5BM7-210" value="PK" style="shape=partialRectangle;connectable=0;fillColor=none;top=0;left=0;bottom=0;right=0;fontStyle=1;overflow=hidden;strokeColor=#457B9D;fontColor=#1D3557;" parent="PxoyzZppylZhse1H5BM7-209" vertex="1"><mxGeometry width="30" height="30" as="geometry"/></mxCell><mxCell id="PxoyzZppylZhse1H5BM7-211" value="id" style="shape=partialRectangle;connectable=0;fillColor=none;top=0;left=0;bottom=0;right=0;align=left;spacingLeft=6;fontStyle=5;overflow=hidden;strokeColor=#457B9D;fontColor=#1D3557;" parent="PxoyzZppylZhse1H5BM7-209" vertex="1"><mxGeometry x="30" width="175" height="30" as="geometry"/></mxCell><mxCell id="PxoyzZppylZhse1H5BM7-212" value="" style="shape=partialRectangle;collapsible=0;dropTarget=0;pointerEvents=0;fillColor=none;top=0;left=0;bottom=0;right=0;points=[[0,0.5],[1,0.5]];portConstraint=eastwest;strokeColor=#457B9D;fontColor=#1D3557;" parent="PxoyzZppylZhse1H5BM7-208" vertex="1"><mxGeometry y="60" width="205" height="30" as="geometry"/></mxCell><mxCell id="PxoyzZppylZhse1H5BM7-213" value="" style="shape=partialRectangle;connectable=0;fillColor=none;top=0;left=0;bottom=0;right=0;editable=1;overflow=hidden;strokeColor=#457B9D;fontColor=#1D3557;" parent="PxoyzZppylZhse1H5BM7-212" vertex="1"><mxGeometry width="30" height="30" as="geometry"/></mxCell><mxCell id="PxoyzZppylZhse1H5BM7-214" value="number - CharField" style="shape=partialRectangle;connectable=0;fillColor=none;top=0;left=0;bottom=0;right=0;align=left;spacingLeft=6;overflow=hidden;strokeColor=#457B9D;fontColor=#1D3557;" parent="PxoyzZppylZhse1H5BM7-212" vertex="1"><mxGeometry x="30" width="175" height="30" as="geometry"/></mxCell><mxCell id="PxoyzZppylZhse1H5BM7-215" value="" style="shape=partialRectangle;collapsible=0;dropTarget=0;pointerEvents=0;fillColor=none;top=0;left=0;bottom=0;right=0;points=[[0,0.5],[1,0.5]];portConstraint=eastwest;strokeColor=#457B9D;fontColor=#1D3557;" parent="PxoyzZppylZhse1H5BM7-208" vertex="1"><mxGeometry y="90" width="205" height="30" as="geometry"/></mxCell><mxCell id="PxoyzZppylZhse1H5BM7-216" value="" style="shape=partialRectangle;connectable=0;fillColor=none;top=0;left=0;bottom=0;right=0;editable=1;overflow=hidden;strokeColor=#457B9D;fontColor=#1D3557;" parent="PxoyzZppylZhse1H5BM7-215" vertex="1"><mxGeometry width="30" height="30" as="geometry"/></mxCell><mxCell id="PxoyzZppylZhse1H5BM7-217" value="is_active - BooleandField" style="shape=partialRectangle;connectable=0;fillColor=none;top=0;left=0;bottom=0;right=0;align=left;spacingLeft=6;overflow=hidden;strokeColor=#457B9D;fontColor=#1D3557;" parent="PxoyzZppylZhse1H5BM7-215" vertex="1"><mxGeometry x="30" width="175" height="30" as="geometry"/></mxCell><mxCell id="PxoyzZppylZhse1H5BM7-224" value="" style="edgeStyle=elbowEdgeStyle;fontSize=12;html=1;endArrow=ERzeroToOne;startArrow=ERzeroToOne;startFill=1;entryX=1;entryY=0;entryDx=0;entryDy=0;labelBackgroundColor=#F1FAEE;strokeColor=#457B9D;fontColor=#1D3557;" parent="7h7oOzLDd36lB9lt4ihk-84" target="PxoyzZppylZhse1H5BM7-208" edge="1"><mxGeometry width="100" height="100" relative="1" as="geometry"><mxPoint x="730" y="295" as="sourcePoint"/><mxPoint x="1130" y="930" as="targetPoint"/><Array as="points"><mxPoint x="820" y="340"/></Array></mxGeometry></mxCell><mxCell id="4q9rLLTR2RdjvRJnRLcd-20" value="" style="group;fontColor=#1D3557;" parent="1" vertex="1" connectable="0"><mxGeometry x="-720" y="840" width="330" height="500" as="geometry"/></mxCell><mxCell id="4q9rLLTR2RdjvRJnRLcd-19" value="" style="group;fontColor=#1D3557;" parent="4q9rLLTR2RdjvRJnRLcd-20" vertex="1" connectable="0"><mxGeometry width="330" height="500" as="geometry"/></mxCell><mxCell id="4q9rLLTR2RdjvRJnRLcd-17" value="" style="group;fontColor=#1D3557;" parent="4q9rLLTR2RdjvRJnRLcd-19" vertex="1" connectable="0"><mxGeometry width="330" height="500" as="geometry"/></mxCell><mxCell id="4q9rLLTR2RdjvRJnRLcd-11" value="" style="rounded=0;whiteSpace=wrap;html=1;fillColor=#A8DADC;strokeColor=#457B9D;fontColor=#1D3557;" parent="4q9rLLTR2RdjvRJnRLcd-17" vertex="1"><mxGeometry width="330" height="500" as="geometry"/></mxCell><mxCell id="PxoyzZppylZhse1H5BM7-315" value="Transaction" style="shape=table;startSize=30;container=1;collapsible=1;childLayout=tableLayout;fixedRows=1;rowLines=0;fontStyle=1;align=center;resizeLast=1;fillColor=#A8DADC;strokeColor=#457B9D;fontColor=#1D3557;" parent="4q9rLLTR2RdjvRJnRLcd-17" vertex="1"><mxGeometry x="65" y="40" width="220" height="310" as="geometry"/></mxCell><mxCell id="PxoyzZppylZhse1H5BM7-316" value="" style="shape=partialRectangle;collapsible=0;dropTarget=0;pointerEvents=0;fillColor=none;top=0;left=0;bottom=1;right=0;points=[[0,0.5],[1,0.5]];portConstraint=eastwest;strokeColor=#457B9D;fontColor=#1D3557;" parent="PxoyzZppylZhse1H5BM7-315" vertex="1"><mxGeometry y="30" width="220" height="30" as="geometry"/></mxCell><mxCell id="PxoyzZppylZhse1H5BM7-317" value="PK" style="shape=partialRectangle;connectable=0;fillColor=none;top=0;left=0;bottom=0;right=0;fontStyle=1;overflow=hidden;strokeColor=#457B9D;fontColor=#1D3557;" parent="PxoyzZppylZhse1H5BM7-316" vertex="1"><mxGeometry width="30" height="30" as="geometry"/></mxCell><mxCell id="PxoyzZppylZhse1H5BM7-318" value="id" style="shape=partialRectangle;connectable=0;fillColor=none;top=0;left=0;bottom=0;right=0;align=left;spacingLeft=6;fontStyle=5;overflow=hidden;strokeColor=#457B9D;fontColor=#1D3557;" parent="PxoyzZppylZhse1H5BM7-316" vertex="1"><mxGeometry x="30" width="190" height="30" as="geometry"/></mxCell><mxCell id="4q9rLLTR2RdjvRJnRLcd-7" value="" style="shape=partialRectangle;collapsible=0;dropTarget=0;pointerEvents=0;fillColor=none;top=0;left=0;bottom=0;right=0;points=[[0,0.5],[1,0.5]];portConstraint=eastwest;strokeColor=#457B9D;fontColor=#1D3557;" parent="PxoyzZppylZhse1H5BM7-315" vertex="1"><mxGeometry y="60" width="220" height="30" as="geometry"/></mxCell><mxCell id="4q9rLLTR2RdjvRJnRLcd-8" value="" style="shape=partialRectangle;connectable=0;fillColor=none;top=0;left=0;bottom=0;right=0;editable=1;overflow=hidden;strokeColor=#457B9D;fontColor=#1D3557;" parent="4q9rLLTR2RdjvRJnRLcd-7" vertex="1"><mxGeometry width="30" height="30" as="geometry"/></mxCell><mxCell id="4q9rLLTR2RdjvRJnRLcd-9" value="number - CharField" style="shape=partialRectangle;connectable=0;fillColor=none;top=0;left=0;bottom=0;right=0;align=left;spacingLeft=6;overflow=hidden;strokeColor=#457B9D;fontColor=#1D3557;" parent="4q9rLLTR2RdjvRJnRLcd-7" vertex="1"><mxGeometry x="30" width="190" height="30" as="geometry"/></mxCell><mxCell id="PxoyzZppylZhse1H5BM7-360" value="" style="shape=partialRectangle;collapsible=0;dropTarget=0;pointerEvents=0;fillColor=none;top=0;left=0;bottom=0;right=0;points=[[0,0.5],[1,0.5]];portConstraint=eastwest;strokeColor=#457B9D;fontColor=#1D3557;" parent="PxoyzZppylZhse1H5BM7-315" vertex="1"><mxGeometry y="90" width="220" height="30" as="geometry"/></mxCell><mxCell id="PxoyzZppylZhse1H5BM7-361" value="" style="shape=partialRectangle;connectable=0;fillColor=none;top=0;left=0;bottom=0;right=0;editable=1;overflow=hidden;strokeColor=#457B9D;fontColor=#1D3557;" parent="PxoyzZppylZhse1H5BM7-360" vertex="1"><mxGeometry width="30" height="30" as="geometry"/></mxCell><mxCell id="PxoyzZppylZhse1H5BM7-362" value="is_passed - BooleandField" style="shape=partialRectangle;connectable=0;fillColor=none;top=0;left=0;bottom=0;right=0;align=left;spacingLeft=6;overflow=hidden;strokeColor=#457B9D;fontColor=#1D3557;" parent="PxoyzZppylZhse1H5BM7-360" vertex="1"><mxGeometry x="30" width="190" height="30" as="geometry"/></mxCell><mxCell id="PxoyzZppylZhse1H5BM7-357" value="" style="shape=partialRectangle;collapsible=0;dropTarget=0;pointerEvents=0;fillColor=none;top=0;left=0;bottom=0;right=0;points=[[0,0.5],[1,0.5]];portConstraint=eastwest;strokeColor=#457B9D;fontColor=#1D3557;" parent="PxoyzZppylZhse1H5BM7-315" vertex="1"><mxGeometry y="120" width="220" height="30" as="geometry"/></mxCell><mxCell id="PxoyzZppylZhse1H5BM7-358" value="" style="shape=partialRectangle;connectable=0;fillColor=none;top=0;left=0;bottom=0;right=0;editable=1;overflow=hidden;strokeColor=#457B9D;fontColor=#1D3557;" parent="PxoyzZppylZhse1H5BM7-357" vertex="1"><mxGeometry width="30" height="30" as="geometry"/></mxCell><mxCell id="PxoyzZppylZhse1H5BM7-359" value="created - DateTimeField" style="shape=partialRectangle;connectable=0;fillColor=none;top=0;left=0;bottom=0;right=0;align=left;spacingLeft=6;overflow=hidden;strokeColor=#457B9D;fontColor=#1D3557;" parent="PxoyzZppylZhse1H5BM7-357" vertex="1"><mxGeometry x="30" width="190" height="30" as="geometry"/></mxCell><mxCell id="PxoyzZppylZhse1H5BM7-368" value="" style="shape=partialRectangle;collapsible=0;dropTarget=0;pointerEvents=0;fillColor=none;top=0;left=0;bottom=0;right=0;points=[[0,0.5],[1,0.5]];portConstraint=eastwest;strokeColor=#457B9D;fontColor=#1D3557;" parent="PxoyzZppylZhse1H5BM7-315" vertex="1"><mxGeometry y="150" width="220" height="30" as="geometry"/></mxCell><mxCell id="PxoyzZppylZhse1H5BM7-369" value="" style="shape=partialRectangle;connectable=0;fillColor=none;top=0;left=0;bottom=0;right=0;editable=1;overflow=hidden;strokeColor=#457B9D;fontColor=#1D3557;" parent="PxoyzZppylZhse1H5BM7-368" vertex="1"><mxGeometry width="30" height="30" as="geometry"/></mxCell><mxCell id="PxoyzZppylZhse1H5BM7-370" value="description - CharField" style="shape=partialRectangle;connectable=0;fillColor=none;top=0;left=0;bottom=0;right=0;align=left;spacingLeft=6;overflow=hidden;strokeColor=#457B9D;fontColor=#1D3557;" parent="PxoyzZppylZhse1H5BM7-368" vertex="1"><mxGeometry x="30" width="190" height="30" as="geometry"/></mxCell><mxCell id="PxoyzZppylZhse1H5BM7-331" value="" style="shape=partialRectangle;collapsible=0;dropTarget=0;pointerEvents=0;fillColor=none;top=0;left=0;bottom=0;right=0;points=[[0,0.5],[1,0.5]];portConstraint=eastwest;strokeColor=#457B9D;fontColor=#1D3557;" parent="PxoyzZppylZhse1H5BM7-315" vertex="1"><mxGeometry y="180" width="220" height="30" as="geometry"/></mxCell><mxCell id="PxoyzZppylZhse1H5BM7-332" value="FK" style="shape=partialRectangle;connectable=0;fillColor=none;top=0;left=0;bottom=0;right=0;fontStyle=1;overflow=hidden;strokeColor=#457B9D;fontColor=#1D3557;" parent="PxoyzZppylZhse1H5BM7-331" vertex="1"><mxGeometry width="30" height="30" as="geometry"/></mxCell><mxCell id="PxoyzZppylZhse1H5BM7-333" value="account - ForeignKey(null=True)" style="shape=partialRectangle;connectable=0;fillColor=none;top=0;left=0;bottom=0;right=0;align=left;spacingLeft=6;fontStyle=0;overflow=hidden;strokeColor=#457B9D;fontColor=#1D3557;" parent="PxoyzZppylZhse1H5BM7-331" vertex="1"><mxGeometry x="30" width="190" height="30" as="geometry"/></mxCell><mxCell id="2" value="" style="shape=partialRectangle;collapsible=0;dropTarget=0;pointerEvents=0;fillColor=none;top=0;left=0;bottom=0;right=0;points=[[0,0.5],[1,0.5]];portConstraint=eastwest;" parent="PxoyzZppylZhse1H5BM7-315" vertex="1"><mxGeometry y="210" width="220" height="30" as="geometry"/></mxCell><mxCell id="3" value="FK" style="shape=partialRectangle;connectable=0;fillColor=none;top=0;left=0;bottom=0;right=0;fontStyle=0;overflow=hidden;" parent="2" vertex="1"><mxGeometry width="30" height="30" as="geometry"/></mxCell><mxCell id="4" value="receipt - ForeignKey(null=True)" style="shape=partialRectangle;connectable=0;fillColor=none;top=0;left=0;bottom=0;right=0;align=left;spacingLeft=6;fontStyle=0;overflow=hidden;fontColor=#191919;" parent="2" vertex="1"><mxGeometry x="30" width="190" height="30" as="geometry"/></mxCell><mxCell id="PxoyzZppylZhse1H5BM7-334" value="" style="shape=partialRectangle;collapsible=0;dropTarget=0;pointerEvents=0;fillColor=none;top=0;left=0;bottom=0;right=0;points=[[0,0.5],[1,0.5]];portConstraint=eastwest;strokeColor=#457B9D;fontColor=#1D3557;" parent="PxoyzZppylZhse1H5BM7-315" vertex="1"><mxGeometry y="240" width="220" height="30" as="geometry"/></mxCell><mxCell id="PxoyzZppylZhse1H5BM7-335" value="FK" style="shape=partialRectangle;connectable=0;fillColor=none;top=0;left=0;bottom=0;right=0;fontStyle=1;overflow=hidden;strokeColor=#457B9D;fontColor=#1D3557;" parent="PxoyzZppylZhse1H5BM7-334" vertex="1"><mxGeometry width="30" height="30" as="geometry"/></mxCell><mxCell id="PxoyzZppylZhse1H5BM7-336" value="transaction_type - ForeignKey" style="shape=partialRectangle;connectable=0;fillColor=none;top=0;left=0;bottom=0;right=0;align=left;spacingLeft=6;fontStyle=0;overflow=hidden;strokeColor=#457B9D;fontColor=#1D3557;" parent="PxoyzZppylZhse1H5BM7-334" vertex="1"><mxGeometry x="30" width="190" height="30" as="geometry"/></mxCell><mxCell id="PxoyzZppylZhse1H5BM7-351" value="" style="shape=partialRectangle;collapsible=0;dropTarget=0;pointerEvents=0;fillColor=none;top=0;left=0;bottom=0;right=0;points=[[0,0.5],[1,0.5]];portConstraint=eastwest;strokeColor=#457B9D;fontColor=#1D3557;" parent="PxoyzZppylZhse1H5BM7-315" vertex="1"><mxGeometry y="270" width="220" height="30" as="geometry"/></mxCell><mxCell id="PxoyzZppylZhse1H5BM7-352" value="FK" style="shape=partialRectangle;connectable=0;fillColor=none;top=0;left=0;bottom=0;right=0;fontStyle=1;overflow=hidden;strokeColor=#457B9D;fontColor=#1D3557;" parent="PxoyzZppylZhse1H5BM7-351" vertex="1"><mxGeometry width="30" height="30" as="geometry"/></mxCell><mxCell id="PxoyzZppylZhse1H5BM7-353" value="created_by - ForeignKey" style="shape=partialRectangle;connectable=0;fillColor=none;top=0;left=0;bottom=0;right=0;align=left;spacingLeft=6;fontStyle=0;overflow=hidden;strokeColor=#457B9D;fontColor=#1D3557;" parent="PxoyzZppylZhse1H5BM7-351" vertex="1"><mxGeometry x="30" width="190" height="30" as="geometry"/></mxCell><mxCell id="PxoyzZppylZhse1H5BM7-337" value="TransactionType" style="shape=table;startSize=30;container=1;collapsible=1;childLayout=tableLayout;fixedRows=1;rowLines=0;fontStyle=1;align=center;resizeLast=1;fillColor=#A8DADC;strokeColor=#457B9D;fontColor=#1D3557;" parent="4q9rLLTR2RdjvRJnRLcd-19" vertex="1"><mxGeometry x="45" y="360" width="250" height="130" as="geometry"/></mxCell><mxCell id="PxoyzZppylZhse1H5BM7-338" value="" style="shape=partialRectangle;collapsible=0;dropTarget=0;pointerEvents=0;fillColor=none;top=0;left=0;bottom=1;right=0;points=[[0,0.5],[1,0.5]];portConstraint=eastwest;strokeColor=#457B9D;fontColor=#1D3557;" parent="PxoyzZppylZhse1H5BM7-337" vertex="1"><mxGeometry y="30" width="250" height="30" as="geometry"/></mxCell><mxCell id="PxoyzZppylZhse1H5BM7-339" value="PK" style="shape=partialRectangle;connectable=0;fillColor=none;top=0;left=0;bottom=0;right=0;fontStyle=1;overflow=hidden;strokeColor=#457B9D;fontColor=#1D3557;" parent="PxoyzZppylZhse1H5BM7-338" vertex="1"><mxGeometry width="30" height="30" as="geometry"/></mxCell><mxCell id="PxoyzZppylZhse1H5BM7-340" value="id" style="shape=partialRectangle;connectable=0;fillColor=none;top=0;left=0;bottom=0;right=0;align=left;spacingLeft=6;fontStyle=5;overflow=hidden;strokeColor=#457B9D;fontColor=#1D3557;" parent="PxoyzZppylZhse1H5BM7-338" vertex="1"><mxGeometry x="30" width="220" height="30" as="geometry"/></mxCell><mxCell id="PxoyzZppylZhse1H5BM7-341" value="" style="shape=partialRectangle;collapsible=0;dropTarget=0;pointerEvents=0;fillColor=none;top=0;left=0;bottom=0;right=0;points=[[0,0.5],[1,0.5]];portConstraint=eastwest;strokeColor=#457B9D;fontColor=#1D3557;" parent="PxoyzZppylZhse1H5BM7-337" vertex="1"><mxGeometry y="60" width="250" height="30" as="geometry"/></mxCell><mxCell id="PxoyzZppylZhse1H5BM7-342" value="" style="shape=partialRectangle;connectable=0;fillColor=none;top=0;left=0;bottom=0;right=0;editable=1;overflow=hidden;strokeColor=#457B9D;fontColor=#1D3557;" parent="PxoyzZppylZhse1H5BM7-341" vertex="1"><mxGeometry width="30" height="30" as="geometry"/></mxCell><mxCell id="PxoyzZppylZhse1H5BM7-343" value="name = CharField" style="shape=partialRectangle;connectable=0;fillColor=none;top=0;left=0;bottom=0;right=0;align=left;spacingLeft=6;overflow=hidden;strokeColor=#457B9D;fontColor=#1D3557;" parent="PxoyzZppylZhse1H5BM7-341" vertex="1"><mxGeometry x="30" width="220" height="30" as="geometry"/></mxCell><mxCell id="PxoyzZppylZhse1H5BM7-344" value="" style="shape=partialRectangle;collapsible=0;dropTarget=0;pointerEvents=0;fillColor=none;top=0;left=0;bottom=0;right=0;points=[[0,0.5],[1,0.5]];portConstraint=eastwest;strokeColor=#457B9D;fontColor=#1D3557;" parent="PxoyzZppylZhse1H5BM7-337" vertex="1"><mxGeometry y="90" width="250" height="30" as="geometry"/></mxCell><mxCell id="PxoyzZppylZhse1H5BM7-345" value="" style="shape=partialRectangle;connectable=0;fillColor=none;top=0;left=0;bottom=0;right=0;editable=1;overflow=hidden;strokeColor=#457B9D;fontColor=#1D3557;" parent="PxoyzZppylZhse1H5BM7-344" vertex="1"><mxGeometry width="30" height="30" as="geometry"/></mxCell><mxCell id="PxoyzZppylZhse1H5BM7-346" value="type = BooleanField(income/expense)" style="shape=partialRectangle;connectable=0;fillColor=none;top=0;left=0;bottom=0;right=0;align=left;spacingLeft=6;overflow=hidden;strokeColor=#457B9D;fontColor=#1D3557;" parent="PxoyzZppylZhse1H5BM7-344" vertex="1"><mxGeometry x="30" width="220" height="30" as="geometry"/></mxCell><mxCell id="PxoyzZppylZhse1H5BM7-350" value="" style="edgeStyle=elbowEdgeStyle;fontSize=12;html=1;endArrow=ERoneToMany;startArrow=ERzeroToOne;entryX=0;entryY=0.5;entryDx=0;entryDy=0;exitX=0;exitY=0.25;exitDx=0;exitDy=0;labelBackgroundColor=#F1FAEE;strokeColor=#457B9D;fontColor=#1D3557;" parent="4q9rLLTR2RdjvRJnRLcd-19" source="PxoyzZppylZhse1H5BM7-337" target="PxoyzZppylZhse1H5BM7-334" edge="1"><mxGeometry width="100" height="100" relative="1" as="geometry"><mxPoint x="-560" y="1090" as="sourcePoint"/><mxPoint x="-460" y="990" as="targetPoint"/><Array as="points"><mxPoint x="20" y="340"/><mxPoint x="-820" y="860"/><mxPoint x="-840" y="860"/><mxPoint x="-880" y="880"/></Array></mxGeometry></mxCell><mxCell id="4q9rLLTR2RdjvRJnRLcd-12" value="&lt;b&gt;&lt;font style=&quot;font-size: 22px&quot;&gt;Cashbox&lt;/font&gt;&lt;/b&gt;" style="text;html=1;strokeColor=none;fillColor=none;align=center;verticalAlign=middle;whiteSpace=wrap;rounded=0;fontColor=#1D3557;" parent="4q9rLLTR2RdjvRJnRLcd-20" vertex="1"><mxGeometry x="97.5" width="135" height="40" as="geometry"/></mxCell><mxCell id="PxoyzZppylZhse1H5BM7-206" value="" style="edgeStyle=elbowEdgeStyle;fontSize=12;html=1;endArrow=ERzeroToMany;startArrow=ERzeroToOne;exitX=0;exitY=0.5;exitDx=0;exitDy=0;labelBackgroundColor=#F1FAEE;strokeColor=#457B9D;fontColor=#1D3557;" parent="1" source="PxoyzZppylZhse1H5BM7-172" target="PxoyzZppylZhse1H5BM7-60" edge="1"><mxGeometry width="100" height="100" relative="1" as="geometry"><mxPoint x="140" y="800" as="sourcePoint"/><mxPoint x="380" y="460" as="targetPoint"/><Array as="points"><mxPoint x="-30" y="510"/><mxPoint x="-20" y="520"/></Array></mxGeometry></mxCell><mxCell id="PxoyzZppylZhse1H5BM7-241" value="" style="edgeStyle=elbowEdgeStyle;fontSize=12;html=1;endArrow=ERoneToMany;startArrow=ERzeroToOne;entryX=0;entryY=0.5;entryDx=0;entryDy=0;exitX=1;exitY=0.5;exitDx=0;exitDy=0;labelBackgroundColor=#F1FAEE;strokeColor=#457B9D;fontColor=#1D3557;" parent="1" source="PxoyzZppylZhse1H5BM7-209" target="PxoyzZppylZhse1H5BM7-238" edge="1"><mxGeometry width="100" height="100" relative="1" as="geometry"><mxPoint x="730" y="970" as="sourcePoint"/><mxPoint x="450" y="1370" as="targetPoint"/><Array as="points"><mxPoint x="70" y="360"/><mxPoint x="440" y="1220"/><mxPoint x="430" y="1190"/></Array></mxGeometry></mxCell><mxCell id="PxoyzZppylZhse1H5BM7-366" value="" style="edgeStyle=elbowEdgeStyle;fontSize=12;html=1;endArrow=ERoneToMany;startArrow=ERzeroToOne;entryX=1;entryY=0.5;entryDx=0;entryDy=0;exitX=0.015;exitY=1.033;exitDx=0;exitDy=0;exitPerimeter=0;labelBackgroundColor=#F1FAEE;strokeColor=#457B9D;fontColor=#1D3557;" parent="1" source="PxoyzZppylZhse1H5BM7-172" target="PxoyzZppylZhse1H5BM7-351" edge="1"><mxGeometry width="100" height="100" relative="1" as="geometry"><mxPoint x="7" y="649" as="sourcePoint"/><mxPoint x="590" y="1230" as="targetPoint"/><Array as="points"><mxPoint x="-50" y="880"/></Array></mxGeometry></mxCell><mxCell id="PxoyzZppylZhse1H5BM7-367" value="" style="edgeStyle=elbowEdgeStyle;fontSize=12;html=1;endArrow=ERzeroToMany;startArrow=ERzeroToOne;exitX=0.001;exitY=0.091;exitDx=0;exitDy=0;exitPerimeter=0;entryX=1;entryY=0.5;entryDx=0;entryDy=0;labelBackgroundColor=#F1FAEE;strokeColor=#457B9D;fontColor=#1D3557;" parent="1" source="PxoyzZppylZhse1H5BM7-208" target="PxoyzZppylZhse1H5BM7-331" edge="1"><mxGeometry width="100" height="100" relative="1" as="geometry"><mxPoint x="200" y="830" as="sourcePoint"/><mxPoint x="300" y="730" as="targetPoint"/><Array as="points"><mxPoint x="-360" y="580"/></Array></mxGeometry></mxCell><mxCell id="7h7oOzLDd36lB9lt4ihk-67" value="" style="edgeStyle=elbowEdgeStyle;fontSize=12;html=1;endArrow=ERzeroToMany;endFill=1;startArrow=ERzeroToMany;entryX=1;entryY=0.5;entryDx=0;entryDy=0;exitX=0;exitY=0.034;exitDx=0;exitDy=0;exitPerimeter=0;labelBackgroundColor=#F1FAEE;strokeColor=#457B9D;fontColor=#1D3557;" parent="1" source="PxoyzZppylZhse1H5BM7-171" target="7h7oOzLDd36lB9lt4ihk-64" edge="1"><mxGeometry width="100" height="100" relative="1" as="geometry"><mxPoint x="-240" y="830" as="sourcePoint"/><mxPoint x="-140" y="730" as="targetPoint"/><Array as="points"><mxPoint x="-470" y="750"/><mxPoint x="-460" y="580"/></Array></mxGeometry></mxCell><mxCell id="7h7oOzLDd36lB9lt4ihk-173" style="edgeStyle=elbowEdgeStyle;rounded=0;orthogonalLoop=1;jettySize=auto;html=1;exitX=0;exitY=0.5;exitDx=0;exitDy=0;fontColor=#1D3557;labelBackgroundColor=#F1FAEE;strokeColor=#457B9D;" parent="1" source="7h7oOzLDd36lB9lt4ihk-172" target="7h7oOzLDd36lB9lt4ihk-144" edge="1"><mxGeometry relative="1" as="geometry"/></mxCell><mxCell id="7h7oOzLDd36lB9lt4ihk-172" value="&lt;b&gt;&lt;font style=&quot;font-size: 26px&quot;&gt;PERMISSIONS?&lt;/font&gt;&lt;/b&gt;" style="rounded=0;whiteSpace=wrap;html=1;strokeColor=#457B9D;fontColor=#1D3557;fillColor=#A8DADC;" parent="1" vertex="1"><mxGeometry x="160" y="1440" width="260" height="60" as="geometry"/></mxCell><mxCell id="7h7oOzLDd36lB9lt4ihk-218" value="" style="edgeStyle=elbowEdgeStyle;fontSize=12;html=1;endArrow=ERoneToMany;startArrow=ERzeroToOne;fontColor=#1D3557;entryX=0;entryY=0.5;entryDx=0;entryDy=0;exitX=1;exitY=0.068;exitDx=0;exitDy=0;exitPerimeter=0;labelBackgroundColor=#F1FAEE;strokeColor=#457B9D;" parent="1" source="PxoyzZppylZhse1H5BM7-34" target="7h7oOzLDd36lB9lt4ihk-204" edge="1"><mxGeometry width="100" height="100" relative="1" as="geometry"><mxPoint x="660" y="850" as="sourcePoint"/><mxPoint x="760" y="750" as="targetPoint"/><Array as="points"><mxPoint x="90" y="340"/><mxPoint x="260" y="390"/></Array></mxGeometry></mxCell><mxCell id="7h7oOzLDd36lB9lt4ihk-435" value="" style="group;fontColor=#1D3557;" parent="1" vertex="1" connectable="0"><mxGeometry x="610" y="720" width="1040" height="795" as="geometry"/></mxCell><mxCell id="7h7oOzLDd36lB9lt4ihk-434" value="" style="rounded=0;whiteSpace=wrap;html=1;fontSize=12;fontColor=#1D3557;strokeColor=#457B9D;fillColor=#A8DADC;" parent="7h7oOzLDd36lB9lt4ihk-435" vertex="1"><mxGeometry y="10" width="1040" height="590" as="geometry"/></mxCell><mxCell id="PxoyzZppylZhse1H5BM7-1" value="SiteAboutPage" style="shape=table;startSize=30;container=1;collapsible=1;childLayout=tableLayout;fixedRows=1;rowLines=0;fontStyle=1;align=center;resizeLast=1;fillColor=#A8DADC;strokeColor=#457B9D;fontColor=#1D3557;" parent="7h7oOzLDd36lB9lt4ihk-435" vertex="1"><mxGeometry x="560" y="70" width="200" height="310" as="geometry"/></mxCell><mxCell id="PxoyzZppylZhse1H5BM7-2" value="" style="shape=partialRectangle;collapsible=0;dropTarget=0;pointerEvents=0;fillColor=none;top=0;left=0;bottom=1;right=0;points=[[0,0.5],[1,0.5]];portConstraint=eastwest;strokeColor=#457B9D;fontColor=#1D3557;" parent="PxoyzZppylZhse1H5BM7-1" vertex="1"><mxGeometry y="30" width="200" height="30" as="geometry"/></mxCell><mxCell id="PxoyzZppylZhse1H5BM7-3" value="PK" style="shape=partialRectangle;connectable=0;fillColor=none;top=0;left=0;bottom=0;right=0;fontStyle=1;overflow=hidden;strokeColor=#457B9D;fontColor=#1D3557;" parent="PxoyzZppylZhse1H5BM7-2" vertex="1"><mxGeometry width="30" height="30" as="geometry"/></mxCell><mxCell id="PxoyzZppylZhse1H5BM7-4" value="id" style="shape=partialRectangle;connectable=0;fillColor=none;top=0;left=0;bottom=0;right=0;align=left;spacingLeft=6;fontStyle=5;overflow=hidden;strokeColor=#457B9D;fontColor=#1D3557;" parent="PxoyzZppylZhse1H5BM7-2" vertex="1"><mxGeometry x="30" width="170" height="30" as="geometry"/></mxCell><mxCell id="PxoyzZppylZhse1H5BM7-5" value="" style="shape=partialRectangle;collapsible=0;dropTarget=0;pointerEvents=0;fillColor=none;top=0;left=0;bottom=0;right=0;points=[[0,0.5],[1,0.5]];portConstraint=eastwest;strokeColor=#457B9D;fontColor=#1D3557;" parent="PxoyzZppylZhse1H5BM7-1" vertex="1"><mxGeometry y="60" width="200" height="30" as="geometry"/></mxCell><mxCell id="PxoyzZppylZhse1H5BM7-6" value="" style="shape=partialRectangle;connectable=0;fillColor=none;top=0;left=0;bottom=0;right=0;editable=1;overflow=hidden;strokeColor=#457B9D;fontColor=#1D3557;" parent="PxoyzZppylZhse1H5BM7-5" vertex="1"><mxGeometry width="30" height="30" as="geometry"/></mxCell><mxCell id="PxoyzZppylZhse1H5BM7-7" value="title1 - CharField" style="shape=partialRectangle;connectable=0;fillColor=none;top=0;left=0;bottom=0;right=0;align=left;spacingLeft=6;overflow=hidden;strokeColor=#457B9D;fontColor=#1D3557;" parent="PxoyzZppylZhse1H5BM7-5" vertex="1"><mxGeometry x="30" width="170" height="30" as="geometry"/></mxCell><mxCell id="PxoyzZppylZhse1H5BM7-8" value="" style="shape=partialRectangle;collapsible=0;dropTarget=0;pointerEvents=0;fillColor=none;top=0;left=0;bottom=0;right=0;points=[[0,0.5],[1,0.5]];portConstraint=eastwest;strokeColor=#457B9D;fontColor=#1D3557;" parent="PxoyzZppylZhse1H5BM7-1" vertex="1"><mxGeometry y="90" width="200" height="30" as="geometry"/></mxCell><mxCell id="PxoyzZppylZhse1H5BM7-9" value="" style="shape=partialRectangle;connectable=0;fillColor=none;top=0;left=0;bottom=0;right=0;editable=1;overflow=hidden;strokeColor=#457B9D;fontColor=#1D3557;" parent="PxoyzZppylZhse1H5BM7-8" vertex="1"><mxGeometry width="30" height="30" as="geometry"/></mxCell><mxCell id="PxoyzZppylZhse1H5BM7-10" value="description1 - CharField" style="shape=partialRectangle;connectable=0;fillColor=none;top=0;left=0;bottom=0;right=0;align=left;spacingLeft=6;overflow=hidden;strokeColor=#457B9D;fontColor=#1D3557;" parent="PxoyzZppylZhse1H5BM7-8" vertex="1"><mxGeometry x="30" width="170" height="30" as="geometry"/></mxCell><mxCell id="7h7oOzLDd36lB9lt4ihk-328" value="" style="shape=partialRectangle;collapsible=0;dropTarget=0;pointerEvents=0;fillColor=none;top=0;left=0;bottom=0;right=0;points=[[0,0.5],[1,0.5]];portConstraint=eastwest;fontSize=12;fontColor=#1D3557;strokeColor=#457B9D;" parent="PxoyzZppylZhse1H5BM7-1" vertex="1"><mxGeometry y="120" width="200" height="30" as="geometry"/></mxCell><mxCell id="7h7oOzLDd36lB9lt4ihk-329" value="" style="shape=partialRectangle;connectable=0;fillColor=none;top=0;left=0;bottom=0;right=0;editable=1;overflow=hidden;strokeColor=#457B9D;fontColor=#1D3557;" parent="7h7oOzLDd36lB9lt4ihk-328" vertex="1"><mxGeometry width="30" height="30" as="geometry"/></mxCell><mxCell id="7h7oOzLDd36lB9lt4ihk-330" value="title2 - CharField" style="shape=partialRectangle;connectable=0;fillColor=none;top=0;left=0;bottom=0;right=0;align=left;spacingLeft=6;overflow=hidden;strokeColor=#457B9D;fontColor=#1D3557;" parent="7h7oOzLDd36lB9lt4ihk-328" vertex="1"><mxGeometry x="30" width="170" height="30" as="geometry"/></mxCell><mxCell id="7h7oOzLDd36lB9lt4ihk-331" value="" style="shape=partialRectangle;collapsible=0;dropTarget=0;pointerEvents=0;fillColor=none;top=0;left=0;bottom=0;right=0;points=[[0,0.5],[1,0.5]];portConstraint=eastwest;fontSize=12;fontColor=#1D3557;strokeColor=#457B9D;" parent="PxoyzZppylZhse1H5BM7-1" vertex="1"><mxGeometry y="150" width="200" height="30" as="geometry"/></mxCell><mxCell id="7h7oOzLDd36lB9lt4ihk-332" value="" style="shape=partialRectangle;connectable=0;fillColor=none;top=0;left=0;bottom=0;right=0;editable=1;overflow=hidden;strokeColor=#457B9D;fontColor=#1D3557;" parent="7h7oOzLDd36lB9lt4ihk-331" vertex="1"><mxGeometry width="30" height="30" as="geometry"/></mxCell><mxCell id="7h7oOzLDd36lB9lt4ihk-333" value="description2 - CharField" style="shape=partialRectangle;connectable=0;fillColor=none;top=0;left=0;bottom=0;right=0;align=left;spacingLeft=6;overflow=hidden;strokeColor=#457B9D;fontColor=#1D3557;" parent="7h7oOzLDd36lB9lt4ihk-331" vertex="1"><mxGeometry x="30" width="170" height="30" as="geometry"/></mxCell><mxCell id="7h7oOzLDd36lB9lt4ihk-304" value="" style="shape=partialRectangle;collapsible=0;dropTarget=0;pointerEvents=0;fillColor=none;top=0;left=0;bottom=0;right=0;points=[[0,0.5],[1,0.5]];portConstraint=eastwest;fontSize=12;fontColor=#1D3557;strokeColor=#457B9D;" parent="PxoyzZppylZhse1H5BM7-1" vertex="1"><mxGeometry y="180" width="200" height="30" as="geometry"/></mxCell><mxCell id="7h7oOzLDd36lB9lt4ihk-305" value="MTM" style="shape=partialRectangle;connectable=0;fillColor=none;top=0;left=0;bottom=0;right=0;fontStyle=0;overflow=hidden;strokeColor=#457B9D;fontColor=#1D3557;" parent="7h7oOzLDd36lB9lt4ihk-304" vertex="1"><mxGeometry width="30" height="30" as="geometry"/></mxCell><mxCell id="7h7oOzLDd36lB9lt4ihk-306" value="gallery1 - ManyToManyField" style="shape=partialRectangle;connectable=0;fillColor=none;top=0;left=0;bottom=0;right=0;align=left;spacingLeft=6;fontStyle=0;overflow=hidden;strokeColor=#457B9D;fontColor=#1D3557;" parent="7h7oOzLDd36lB9lt4ihk-304" vertex="1"><mxGeometry x="30" width="170" height="30" as="geometry"/></mxCell><mxCell id="7h7oOzLDd36lB9lt4ihk-307" value="" style="shape=partialRectangle;collapsible=0;dropTarget=0;pointerEvents=0;fillColor=none;top=0;left=0;bottom=0;right=0;points=[[0,0.5],[1,0.5]];portConstraint=eastwest;fontSize=12;fontColor=#1D3557;strokeColor=#457B9D;" parent="PxoyzZppylZhse1H5BM7-1" vertex="1"><mxGeometry y="210" width="200" height="30" as="geometry"/></mxCell><mxCell id="7h7oOzLDd36lB9lt4ihk-308" value="MTM" style="shape=partialRectangle;connectable=0;fillColor=none;top=0;left=0;bottom=0;right=0;fontStyle=0;overflow=hidden;strokeColor=#457B9D;fontColor=#1D3557;" parent="7h7oOzLDd36lB9lt4ihk-307" vertex="1"><mxGeometry width="30" height="30" as="geometry"/></mxCell><mxCell id="7h7oOzLDd36lB9lt4ihk-309" value="gallery2 - ManyToManyField" style="shape=partialRectangle;connectable=0;fillColor=none;top=0;left=0;bottom=0;right=0;align=left;spacingLeft=6;fontStyle=0;overflow=hidden;strokeColor=#457B9D;fontColor=#1D3557;" parent="7h7oOzLDd36lB9lt4ihk-307" vertex="1"><mxGeometry x="30" width="170" height="30" as="geometry"/></mxCell><mxCell id="7h7oOzLDd36lB9lt4ihk-377" value="" style="shape=partialRectangle;collapsible=0;dropTarget=0;pointerEvents=0;fillColor=none;top=0;left=0;bottom=0;right=0;points=[[0,0.5],[1,0.5]];portConstraint=eastwest;fontSize=12;fontColor=#1D3557;strokeColor=#457B9D;" parent="PxoyzZppylZhse1H5BM7-1" vertex="1"><mxGeometry y="240" width="200" height="30" as="geometry"/></mxCell><mxCell id="7h7oOzLDd36lB9lt4ihk-378" value="MTM" style="shape=partialRectangle;connectable=0;fillColor=none;top=0;left=0;bottom=0;right=0;fontStyle=0;overflow=hidden;strokeColor=#457B9D;fontColor=#1D3557;" parent="7h7oOzLDd36lB9lt4ihk-377" vertex="1"><mxGeometry width="30" height="30" as="geometry"/></mxCell><mxCell id="7h7oOzLDd36lB9lt4ihk-379" value="docs - ManyToManyField" style="shape=partialRectangle;connectable=0;fillColor=none;top=0;left=0;bottom=0;right=0;align=left;spacingLeft=6;fontStyle=0;overflow=hidden;strokeColor=#457B9D;fontColor=#1D3557;" parent="7h7oOzLDd36lB9lt4ihk-377" vertex="1"><mxGeometry x="30" width="170" height="30" as="geometry"/></mxCell><mxCell id="7h7oOzLDd36lB9lt4ihk-334" value="" style="shape=partialRectangle;collapsible=0;dropTarget=0;pointerEvents=0;fillColor=none;top=0;left=0;bottom=0;right=0;points=[[0,0.5],[1,0.5]];portConstraint=eastwest;fontSize=12;fontColor=#1D3557;strokeColor=#457B9D;" parent="PxoyzZppylZhse1H5BM7-1" vertex="1"><mxGeometry y="270" width="200" height="30" as="geometry"/></mxCell><mxCell id="7h7oOzLDd36lB9lt4ihk-335" value="FK" style="shape=partialRectangle;connectable=0;fillColor=none;top=0;left=0;bottom=0;right=0;fontStyle=0;overflow=hidden;strokeColor=#457B9D;fontColor=#1D3557;" parent="7h7oOzLDd36lB9lt4ihk-334" vertex="1"><mxGeometry width="30" height="30" as="geometry"/></mxCell><mxCell id="7h7oOzLDd36lB9lt4ihk-336" value="seo_data - ForeignKey" style="shape=partialRectangle;connectable=0;fillColor=none;top=0;left=0;bottom=0;right=0;align=left;spacingLeft=6;fontStyle=0;overflow=hidden;strokeColor=#457B9D;fontColor=#1D3557;" parent="7h7oOzLDd36lB9lt4ihk-334" vertex="1"><mxGeometry x="30" width="170" height="30" as="geometry"/></mxCell><mxCell id="PxoyzZppylZhse1H5BM7-24" value="SiteHomePage" style="shape=table;startSize=30;container=1;collapsible=1;childLayout=tableLayout;fixedRows=1;rowLines=0;fontStyle=1;align=center;resizeLast=1;fillColor=#A8DADC;strokeColor=#457B9D;fontColor=#1D3557;" parent="7h7oOzLDd36lB9lt4ihk-435" vertex="1"><mxGeometry x="270" y="70" width="210" height="310" as="geometry"/></mxCell><mxCell id="PxoyzZppylZhse1H5BM7-25" value="" style="shape=partialRectangle;collapsible=0;dropTarget=0;pointerEvents=0;fillColor=none;top=0;left=0;bottom=1;right=0;points=[[0,0.5],[1,0.5]];portConstraint=eastwest;strokeColor=#457B9D;fontColor=#1D3557;" parent="PxoyzZppylZhse1H5BM7-24" vertex="1"><mxGeometry y="30" width="210" height="30" as="geometry"/></mxCell><mxCell id="PxoyzZppylZhse1H5BM7-26" value="PK" style="shape=partialRectangle;connectable=0;fillColor=none;top=0;left=0;bottom=0;right=0;fontStyle=1;overflow=hidden;strokeColor=#457B9D;fontColor=#1D3557;" parent="PxoyzZppylZhse1H5BM7-25" vertex="1"><mxGeometry width="30" height="30" as="geometry"/></mxCell><mxCell id="PxoyzZppylZhse1H5BM7-27" value="id" style="shape=partialRectangle;connectable=0;fillColor=none;top=0;left=0;bottom=0;right=0;align=left;spacingLeft=6;fontStyle=5;overflow=hidden;strokeColor=#457B9D;fontColor=#1D3557;" parent="PxoyzZppylZhse1H5BM7-25" vertex="1"><mxGeometry x="30" width="180" height="30" as="geometry"/></mxCell><mxCell id="PxoyzZppylZhse1H5BM7-28" value="" style="shape=partialRectangle;collapsible=0;dropTarget=0;pointerEvents=0;fillColor=none;top=0;left=0;bottom=0;right=0;points=[[0,0.5],[1,0.5]];portConstraint=eastwest;strokeColor=#457B9D;fontColor=#1D3557;" parent="PxoyzZppylZhse1H5BM7-24" vertex="1"><mxGeometry y="60" width="210" height="30" as="geometry"/></mxCell><mxCell id="PxoyzZppylZhse1H5BM7-29" value="" style="shape=partialRectangle;connectable=0;fillColor=none;top=0;left=0;bottom=0;right=0;editable=1;overflow=hidden;strokeColor=#457B9D;fontColor=#1D3557;" parent="PxoyzZppylZhse1H5BM7-28" vertex="1"><mxGeometry width="30" height="30" as="geometry"/></mxCell><mxCell id="PxoyzZppylZhse1H5BM7-30" value="title - CharField" style="shape=partialRectangle;connectable=0;fillColor=none;top=0;left=0;bottom=0;right=0;align=left;spacingLeft=6;overflow=hidden;strokeColor=#457B9D;fontColor=#1D3557;" parent="PxoyzZppylZhse1H5BM7-28" vertex="1"><mxGeometry x="30" width="180" height="30" as="geometry"/></mxCell><mxCell id="PxoyzZppylZhse1H5BM7-31" value="" style="shape=partialRectangle;collapsible=0;dropTarget=0;pointerEvents=0;fillColor=none;top=0;left=0;bottom=0;right=0;points=[[0,0.5],[1,0.5]];portConstraint=eastwest;strokeColor=#457B9D;fontColor=#1D3557;" parent="PxoyzZppylZhse1H5BM7-24" vertex="1"><mxGeometry y="90" width="210" height="30" as="geometry"/></mxCell><mxCell id="PxoyzZppylZhse1H5BM7-32" value="" style="shape=partialRectangle;connectable=0;fillColor=none;top=0;left=0;bottom=0;right=0;editable=1;overflow=hidden;strokeColor=#457B9D;fontColor=#1D3557;" parent="PxoyzZppylZhse1H5BM7-31" vertex="1"><mxGeometry width="30" height="30" as="geometry"/></mxCell><mxCell id="PxoyzZppylZhse1H5BM7-33" value="description - CharField" style="shape=partialRectangle;connectable=0;fillColor=none;top=0;left=0;bottom=0;right=0;align=left;spacingLeft=6;overflow=hidden;strokeColor=#457B9D;fontColor=#1D3557;" parent="PxoyzZppylZhse1H5BM7-31" vertex="1"><mxGeometry x="30" width="180" height="30" as="geometry"/></mxCell><mxCell id="7h7oOzLDd36lB9lt4ihk-223" value="" style="shape=partialRectangle;collapsible=0;dropTarget=0;pointerEvents=0;fillColor=none;top=0;left=0;bottom=0;right=0;points=[[0,0.5],[1,0.5]];portConstraint=eastwest;fontSize=33;fontColor=#1D3557;strokeColor=#457B9D;" parent="PxoyzZppylZhse1H5BM7-24" vertex="1"><mxGeometry y="120" width="210" height="30" as="geometry"/></mxCell><mxCell id="7h7oOzLDd36lB9lt4ihk-224" value="" style="shape=partialRectangle;connectable=0;fillColor=none;top=0;left=0;bottom=0;right=0;editable=1;overflow=hidden;strokeColor=#457B9D;fontColor=#1D3557;" parent="7h7oOzLDd36lB9lt4ihk-223" vertex="1"><mxGeometry width="30" height="30" as="geometry"/></mxCell><mxCell id="7h7oOzLDd36lB9lt4ihk-225" value="show_links - BooleanField" style="shape=partialRectangle;connectable=0;fillColor=none;top=0;left=0;bottom=0;right=0;align=left;spacingLeft=6;overflow=hidden;strokeColor=#457B9D;fontColor=#1D3557;" parent="7h7oOzLDd36lB9lt4ihk-223" vertex="1"><mxGeometry x="30" width="180" height="30" as="geometry"/></mxCell><mxCell id="7h7oOzLDd36lB9lt4ihk-226" value="" style="shape=partialRectangle;collapsible=0;dropTarget=0;pointerEvents=0;fillColor=none;top=0;left=0;bottom=0;right=0;points=[[0,0.5],[1,0.5]];portConstraint=eastwest;fontSize=33;fontColor=#1D3557;strokeColor=#457B9D;" parent="PxoyzZppylZhse1H5BM7-24" vertex="1"><mxGeometry y="150" width="210" height="30" as="geometry"/></mxCell><mxCell id="7h7oOzLDd36lB9lt4ihk-227" value="" style="shape=partialRectangle;connectable=0;fillColor=none;top=0;left=0;bottom=0;right=0;editable=1;overflow=hidden;strokeColor=#457B9D;fontColor=#1D3557;" parent="7h7oOzLDd36lB9lt4ihk-226" vertex="1"><mxGeometry width="30" height="30" as="geometry"/></mxCell><mxCell id="7h7oOzLDd36lB9lt4ihk-228" value="slider1 - ImageField" style="shape=partialRectangle;connectable=0;fillColor=none;top=0;left=0;bottom=0;right=0;align=left;spacingLeft=6;overflow=hidden;strokeColor=#457B9D;fontColor=#1D3557;" parent="7h7oOzLDd36lB9lt4ihk-226" vertex="1"><mxGeometry x="30" width="180" height="30" as="geometry"/></mxCell><mxCell id="7h7oOzLDd36lB9lt4ihk-229" value="" style="shape=partialRectangle;collapsible=0;dropTarget=0;pointerEvents=0;fillColor=none;top=0;left=0;bottom=0;right=0;points=[[0,0.5],[1,0.5]];portConstraint=eastwest;fontSize=33;fontColor=#1D3557;strokeColor=#457B9D;" parent="PxoyzZppylZhse1H5BM7-24" vertex="1"><mxGeometry y="180" width="210" height="30" as="geometry"/></mxCell><mxCell id="7h7oOzLDd36lB9lt4ihk-230" value="" style="shape=partialRectangle;connectable=0;fillColor=none;top=0;left=0;bottom=0;right=0;editable=1;overflow=hidden;strokeColor=#457B9D;fontColor=#1D3557;" parent="7h7oOzLDd36lB9lt4ihk-229" vertex="1"><mxGeometry width="30" height="30" as="geometry"/></mxCell><mxCell id="7h7oOzLDd36lB9lt4ihk-231" value="slider2 - ImageField" style="shape=partialRectangle;connectable=0;fillColor=none;top=0;left=0;bottom=0;right=0;align=left;spacingLeft=6;overflow=hidden;strokeColor=#457B9D;fontColor=#1D3557;" parent="7h7oOzLDd36lB9lt4ihk-229" vertex="1"><mxGeometry x="30" width="180" height="30" as="geometry"/></mxCell><mxCell id="7h7oOzLDd36lB9lt4ihk-232" value="" style="shape=partialRectangle;collapsible=0;dropTarget=0;pointerEvents=0;fillColor=none;top=0;left=0;bottom=0;right=0;points=[[0,0.5],[1,0.5]];portConstraint=eastwest;fontSize=33;fontColor=#1D3557;strokeColor=#457B9D;" parent="PxoyzZppylZhse1H5BM7-24" vertex="1"><mxGeometry y="210" width="210" height="30" as="geometry"/></mxCell><mxCell id="7h7oOzLDd36lB9lt4ihk-233" value="" style="shape=partialRectangle;connectable=0;fillColor=none;top=0;left=0;bottom=0;right=0;editable=1;overflow=hidden;strokeColor=#457B9D;fontColor=#1D3557;" parent="7h7oOzLDd36lB9lt4ihk-232" vertex="1"><mxGeometry width="30" height="30" as="geometry"/></mxCell><mxCell id="7h7oOzLDd36lB9lt4ihk-234" value="slider3 - ImageField" style="shape=partialRectangle;connectable=0;fillColor=none;top=0;left=0;bottom=0;right=0;align=left;spacingLeft=6;overflow=hidden;strokeColor=#457B9D;fontColor=#1D3557;" parent="7h7oOzLDd36lB9lt4ihk-232" vertex="1"><mxGeometry x="30" width="180" height="30" as="geometry"/></mxCell><mxCell id="7h7oOzLDd36lB9lt4ihk-267" value="" style="shape=partialRectangle;collapsible=0;dropTarget=0;pointerEvents=0;fillColor=none;top=0;left=0;bottom=0;right=0;points=[[0,0.5],[1,0.5]];portConstraint=eastwest;fontSize=12;fontColor=#1D3557;strokeColor=#457B9D;" parent="PxoyzZppylZhse1H5BM7-24" vertex="1"><mxGeometry y="240" width="210" height="30" as="geometry"/></mxCell><mxCell id="7h7oOzLDd36lB9lt4ihk-268" value="FK" style="shape=partialRectangle;connectable=0;fillColor=none;top=0;left=0;bottom=0;right=0;fontStyle=0;overflow=hidden;strokeColor=#457B9D;fontColor=#1D3557;" parent="7h7oOzLDd36lB9lt4ihk-267" vertex="1"><mxGeometry width="30" height="30" as="geometry"/></mxCell><mxCell id="7h7oOzLDd36lB9lt4ihk-269" value="seo_data - ForeignKey" style="shape=partialRectangle;connectable=0;fillColor=none;top=0;left=0;bottom=0;right=0;align=left;spacingLeft=6;fontStyle=0;overflow=hidden;strokeColor=#457B9D;fontColor=#1D3557;" parent="7h7oOzLDd36lB9lt4ihk-267" vertex="1"><mxGeometry x="30" width="180" height="30" as="geometry"/></mxCell><mxCell id="7h7oOzLDd36lB9lt4ihk-354" value="" style="shape=partialRectangle;collapsible=0;dropTarget=0;pointerEvents=0;fillColor=none;top=0;left=0;bottom=0;right=0;points=[[0,0.5],[1,0.5]];portConstraint=eastwest;fontSize=12;fontColor=#1D3557;strokeColor=#457B9D;" parent="PxoyzZppylZhse1H5BM7-24" vertex="1"><mxGeometry y="270" width="210" height="30" as="geometry"/></mxCell><mxCell id="7h7oOzLDd36lB9lt4ihk-355" value="MTM" style="shape=partialRectangle;connectable=0;fillColor=none;top=0;left=0;bottom=0;right=0;fontStyle=0;overflow=hidden;strokeColor=#457B9D;fontColor=#1D3557;" parent="7h7oOzLDd36lB9lt4ihk-354" vertex="1"><mxGeometry width="30" height="30" as="geometry"/></mxCell><mxCell id="7h7oOzLDd36lB9lt4ihk-356" value="around_us - ManyToManyField" style="shape=partialRectangle;connectable=0;fillColor=none;top=0;left=0;bottom=0;right=0;align=left;spacingLeft=6;fontStyle=0;overflow=hidden;strokeColor=#457B9D;fontColor=#1D3557;" parent="7h7oOzLDd36lB9lt4ihk-354" vertex="1"><mxGeometry x="30" width="180" height="30" as="geometry"/></mxCell><mxCell id="7h7oOzLDd36lB9lt4ihk-178" value="Credentials" style="shape=table;startSize=30;container=1;collapsible=1;childLayout=tableLayout;fixedRows=1;rowLines=0;fontStyle=1;align=center;resizeLast=1;strokeColor=#457B9D;fillColor=#A8DADC;fontColor=#1D3557;" parent="7h7oOzLDd36lB9lt4ihk-435" vertex="1"><mxGeometry x="30" y="70" width="200" height="130" as="geometry"/></mxCell><mxCell id="7h7oOzLDd36lB9lt4ihk-179" value="" style="shape=partialRectangle;collapsible=0;dropTarget=0;pointerEvents=0;fillColor=none;top=0;left=0;bottom=1;right=0;points=[[0,0.5],[1,0.5]];portConstraint=eastwest;strokeColor=#457B9D;fontColor=#1D3557;" parent="7h7oOzLDd36lB9lt4ihk-178" vertex="1"><mxGeometry y="30" width="200" height="30" as="geometry"/></mxCell><mxCell id="7h7oOzLDd36lB9lt4ihk-180" value="PK" style="shape=partialRectangle;connectable=0;fillColor=none;top=0;left=0;bottom=0;right=0;fontStyle=1;overflow=hidden;strokeColor=#457B9D;fontColor=#1D3557;" parent="7h7oOzLDd36lB9lt4ihk-179" vertex="1"><mxGeometry width="30" height="30" as="geometry"/></mxCell><mxCell id="7h7oOzLDd36lB9lt4ihk-181" value="id" style="shape=partialRectangle;connectable=0;fillColor=none;top=0;left=0;bottom=0;right=0;align=left;spacingLeft=6;fontStyle=5;overflow=hidden;strokeColor=#457B9D;fontColor=#1D3557;" parent="7h7oOzLDd36lB9lt4ihk-179" vertex="1"><mxGeometry x="30" width="170" height="30" as="geometry"/></mxCell><mxCell id="7h7oOzLDd36lB9lt4ihk-182" value="" style="shape=partialRectangle;collapsible=0;dropTarget=0;pointerEvents=0;fillColor=none;top=0;left=0;bottom=0;right=0;points=[[0,0.5],[1,0.5]];portConstraint=eastwest;strokeColor=#457B9D;fontColor=#1D3557;" parent="7h7oOzLDd36lB9lt4ihk-178" vertex="1"><mxGeometry y="60" width="200" height="30" as="geometry"/></mxCell><mxCell id="7h7oOzLDd36lB9lt4ihk-183" value="" style="shape=partialRectangle;connectable=0;fillColor=none;top=0;left=0;bottom=0;right=0;editable=1;overflow=hidden;strokeColor=#457B9D;fontColor=#1D3557;" parent="7h7oOzLDd36lB9lt4ihk-182" vertex="1"><mxGeometry width="30" height="30" as="geometry"/></mxCell><mxCell id="7h7oOzLDd36lB9lt4ihk-184" value="name - CharField" style="shape=partialRectangle;connectable=0;fillColor=none;top=0;left=0;bottom=0;right=0;align=left;spacingLeft=6;overflow=hidden;strokeColor=#457B9D;fontColor=#1D3557;" parent="7h7oOzLDd36lB9lt4ihk-182" vertex="1"><mxGeometry x="30" width="170" height="30" as="geometry"/></mxCell><mxCell id="7h7oOzLDd36lB9lt4ihk-185" value="" style="shape=partialRectangle;collapsible=0;dropTarget=0;pointerEvents=0;fillColor=none;top=0;left=0;bottom=0;right=0;points=[[0,0.5],[1,0.5]];portConstraint=eastwest;strokeColor=#457B9D;fontColor=#1D3557;" parent="7h7oOzLDd36lB9lt4ihk-178" vertex="1"><mxGeometry y="90" width="200" height="30" as="geometry"/></mxCell><mxCell id="7h7oOzLDd36lB9lt4ihk-186" value="" style="shape=partialRectangle;connectable=0;fillColor=none;top=0;left=0;bottom=0;right=0;editable=1;overflow=hidden;strokeColor=#457B9D;fontColor=#1D3557;" parent="7h7oOzLDd36lB9lt4ihk-185" vertex="1"><mxGeometry width="30" height="30" as="geometry"/></mxCell><mxCell id="7h7oOzLDd36lB9lt4ihk-187" value="description - CharField" style="shape=partialRectangle;connectable=0;fillColor=none;top=0;left=0;bottom=0;right=0;align=left;spacingLeft=6;overflow=hidden;strokeColor=#457B9D;fontColor=#1D3557;" parent="7h7oOzLDd36lB9lt4ihk-185" vertex="1"><mxGeometry x="30" width="170" height="30" as="geometry"/></mxCell><mxCell id="7h7oOzLDd36lB9lt4ihk-221" value="Site staff" style="text;html=1;strokeColor=none;fillColor=none;align=center;verticalAlign=middle;whiteSpace=wrap;rounded=0;fontSize=33;fontColor=#1D3557;" parent="7h7oOzLDd36lB9lt4ihk-435" vertex="1"><mxGeometry x="390" width="230" height="70" as="geometry"/></mxCell><mxCell id="7h7oOzLDd36lB9lt4ihk-238" value="Article" style="shape=table;startSize=30;container=1;collapsible=1;childLayout=tableLayout;fixedRows=1;rowLines=0;fontStyle=1;align=center;resizeLast=1;fontSize=12;fontColor=#1D3557;strokeColor=#457B9D;fillColor=#A8DADC;" parent="7h7oOzLDd36lB9lt4ihk-435" vertex="1"><mxGeometry x="270" y="390" width="260" height="160" as="geometry"/></mxCell><mxCell id="7h7oOzLDd36lB9lt4ihk-239" value="" style="shape=partialRectangle;collapsible=0;dropTarget=0;pointerEvents=0;fillColor=none;top=0;left=0;bottom=1;right=0;points=[[0,0.5],[1,0.5]];portConstraint=eastwest;strokeColor=#457B9D;fontColor=#1D3557;" parent="7h7oOzLDd36lB9lt4ihk-238" vertex="1"><mxGeometry y="30" width="260" height="30" as="geometry"/></mxCell><mxCell id="7h7oOzLDd36lB9lt4ihk-240" value="PK" style="shape=partialRectangle;connectable=0;fillColor=none;top=0;left=0;bottom=0;right=0;fontStyle=1;overflow=hidden;strokeColor=#457B9D;fontColor=#1D3557;" parent="7h7oOzLDd36lB9lt4ihk-239" vertex="1"><mxGeometry width="30" height="30" as="geometry"/></mxCell><mxCell id="7h7oOzLDd36lB9lt4ihk-241" value="id" style="shape=partialRectangle;connectable=0;fillColor=none;top=0;left=0;bottom=0;right=0;align=left;spacingLeft=6;fontStyle=5;overflow=hidden;strokeColor=#457B9D;fontColor=#1D3557;" parent="7h7oOzLDd36lB9lt4ihk-239" vertex="1"><mxGeometry x="30" width="230" height="30" as="geometry"/></mxCell><mxCell id="7h7oOzLDd36lB9lt4ihk-242" value="" style="shape=partialRectangle;collapsible=0;dropTarget=0;pointerEvents=0;fillColor=none;top=0;left=0;bottom=0;right=0;points=[[0,0.5],[1,0.5]];portConstraint=eastwest;strokeColor=#457B9D;fontColor=#1D3557;" parent="7h7oOzLDd36lB9lt4ihk-238" vertex="1"><mxGeometry y="60" width="260" height="30" as="geometry"/></mxCell><mxCell id="7h7oOzLDd36lB9lt4ihk-243" value="" style="shape=partialRectangle;connectable=0;fillColor=none;top=0;left=0;bottom=0;right=0;editable=1;overflow=hidden;strokeColor=#457B9D;fontColor=#1D3557;" parent="7h7oOzLDd36lB9lt4ihk-242" vertex="1"><mxGeometry width="30" height="30" as="geometry"/></mxCell><mxCell id="7h7oOzLDd36lB9lt4ihk-244" value="title - CharField" style="shape=partialRectangle;connectable=0;fillColor=none;top=0;left=0;bottom=0;right=0;align=left;spacingLeft=6;overflow=hidden;strokeColor=#457B9D;fontColor=#1D3557;" parent="7h7oOzLDd36lB9lt4ihk-242" vertex="1"><mxGeometry x="30" width="230" height="30" as="geometry"/></mxCell><mxCell id="7h7oOzLDd36lB9lt4ihk-245" value="" style="shape=partialRectangle;collapsible=0;dropTarget=0;pointerEvents=0;fillColor=none;top=0;left=0;bottom=0;right=0;points=[[0,0.5],[1,0.5]];portConstraint=eastwest;strokeColor=#457B9D;fontColor=#1D3557;" parent="7h7oOzLDd36lB9lt4ihk-238" vertex="1"><mxGeometry y="90" width="260" height="30" as="geometry"/></mxCell><mxCell id="7h7oOzLDd36lB9lt4ihk-246" value="" style="shape=partialRectangle;connectable=0;fillColor=none;top=0;left=0;bottom=0;right=0;editable=1;overflow=hidden;strokeColor=#457B9D;fontColor=#1D3557;" parent="7h7oOzLDd36lB9lt4ihk-245" vertex="1"><mxGeometry width="30" height="30" as="geometry"/></mxCell><mxCell id="7h7oOzLDd36lB9lt4ihk-247" value="description - CharField" style="shape=partialRectangle;connectable=0;fillColor=none;top=0;left=0;bottom=0;right=0;align=left;spacingLeft=6;overflow=hidden;strokeColor=#457B9D;fontColor=#1D3557;" parent="7h7oOzLDd36lB9lt4ihk-245" vertex="1"><mxGeometry x="30" width="230" height="30" as="geometry"/></mxCell><mxCell id="7h7oOzLDd36lB9lt4ihk-248" value="" style="shape=partialRectangle;collapsible=0;dropTarget=0;pointerEvents=0;fillColor=none;top=0;left=0;bottom=0;right=0;points=[[0,0.5],[1,0.5]];portConstraint=eastwest;strokeColor=#457B9D;fontColor=#1D3557;" parent="7h7oOzLDd36lB9lt4ihk-238" vertex="1"><mxGeometry y="120" width="260" height="30" as="geometry"/></mxCell><mxCell id="7h7oOzLDd36lB9lt4ihk-249" value="" style="shape=partialRectangle;connectable=0;fillColor=none;top=0;left=0;bottom=0;right=0;editable=1;overflow=hidden;strokeColor=#457B9D;fontColor=#1D3557;" parent="7h7oOzLDd36lB9lt4ihk-248" vertex="1"><mxGeometry width="30" height="30" as="geometry"/></mxCell><mxCell id="7h7oOzLDd36lB9lt4ihk-250" value="image - ImageField" style="shape=partialRectangle;connectable=0;fillColor=none;top=0;left=0;bottom=0;right=0;align=left;spacingLeft=6;overflow=hidden;strokeColor=#457B9D;fontColor=#1D3557;" parent="7h7oOzLDd36lB9lt4ihk-248" vertex="1"><mxGeometry x="30" width="230" height="30" as="geometry"/></mxCell><mxCell id="7h7oOzLDd36lB9lt4ihk-270" value="SeoData" style="shape=table;startSize=30;container=1;collapsible=1;childLayout=tableLayout;fixedRows=1;rowLines=0;fontStyle=1;align=center;resizeLast=1;fontSize=12;fontColor=#1D3557;strokeColor=#457B9D;fillColor=#A8DADC;" parent="7h7oOzLDd36lB9lt4ihk-435" vertex="1"><mxGeometry x="810" y="380" width="180" height="160" as="geometry"/></mxCell><mxCell id="7h7oOzLDd36lB9lt4ihk-271" value="" style="shape=partialRectangle;collapsible=0;dropTarget=0;pointerEvents=0;fillColor=none;top=0;left=0;bottom=1;right=0;points=[[0,0.5],[1,0.5]];portConstraint=eastwest;strokeColor=#457B9D;fontColor=#1D3557;" parent="7h7oOzLDd36lB9lt4ihk-270" vertex="1"><mxGeometry y="30" width="180" height="30" as="geometry"/></mxCell><mxCell id="7h7oOzLDd36lB9lt4ihk-272" value="PK" style="shape=partialRectangle;connectable=0;fillColor=none;top=0;left=0;bottom=0;right=0;fontStyle=1;overflow=hidden;strokeColor=#457B9D;fontColor=#1D3557;" parent="7h7oOzLDd36lB9lt4ihk-271" vertex="1"><mxGeometry width="30" height="30" as="geometry"/></mxCell><mxCell id="7h7oOzLDd36lB9lt4ihk-273" value="id" style="shape=partialRectangle;connectable=0;fillColor=none;top=0;left=0;bottom=0;right=0;align=left;spacingLeft=6;fontStyle=5;overflow=hidden;strokeColor=#457B9D;fontColor=#1D3557;" parent="7h7oOzLDd36lB9lt4ihk-271" vertex="1"><mxGeometry x="30" width="150" height="30" as="geometry"/></mxCell><mxCell id="7h7oOzLDd36lB9lt4ihk-274" value="" style="shape=partialRectangle;collapsible=0;dropTarget=0;pointerEvents=0;fillColor=none;top=0;left=0;bottom=0;right=0;points=[[0,0.5],[1,0.5]];portConstraint=eastwest;strokeColor=#457B9D;fontColor=#1D3557;" parent="7h7oOzLDd36lB9lt4ihk-270" vertex="1"><mxGeometry y="60" width="180" height="30" as="geometry"/></mxCell><mxCell id="7h7oOzLDd36lB9lt4ihk-275" value="" style="shape=partialRectangle;connectable=0;fillColor=none;top=0;left=0;bottom=0;right=0;editable=1;overflow=hidden;strokeColor=#457B9D;fontColor=#1D3557;" parent="7h7oOzLDd36lB9lt4ihk-274" vertex="1"><mxGeometry width="30" height="30" as="geometry"/></mxCell><mxCell id="7h7oOzLDd36lB9lt4ihk-276" value="title" style="shape=partialRectangle;connectable=0;fillColor=none;top=0;left=0;bottom=0;right=0;align=left;spacingLeft=6;overflow=hidden;strokeColor=#457B9D;fontColor=#1D3557;" parent="7h7oOzLDd36lB9lt4ihk-274" vertex="1"><mxGeometry x="30" width="150" height="30" as="geometry"/></mxCell><mxCell id="7h7oOzLDd36lB9lt4ihk-277" value="" style="shape=partialRectangle;collapsible=0;dropTarget=0;pointerEvents=0;fillColor=none;top=0;left=0;bottom=0;right=0;points=[[0,0.5],[1,0.5]];portConstraint=eastwest;strokeColor=#457B9D;fontColor=#1D3557;" parent="7h7oOzLDd36lB9lt4ihk-270" vertex="1"><mxGeometry y="90" width="180" height="30" as="geometry"/></mxCell><mxCell id="7h7oOzLDd36lB9lt4ihk-278" value="" style="shape=partialRectangle;connectable=0;fillColor=none;top=0;left=0;bottom=0;right=0;editable=1;overflow=hidden;strokeColor=#457B9D;fontColor=#1D3557;" parent="7h7oOzLDd36lB9lt4ihk-277" vertex="1"><mxGeometry width="30" height="30" as="geometry"/></mxCell><mxCell id="7h7oOzLDd36lB9lt4ihk-279" value="description" style="shape=partialRectangle;connectable=0;fillColor=none;top=0;left=0;bottom=0;right=0;align=left;spacingLeft=6;overflow=hidden;strokeColor=#457B9D;fontColor=#1D3557;" parent="7h7oOzLDd36lB9lt4ihk-277" vertex="1"><mxGeometry x="30" width="150" height="30" as="geometry"/></mxCell><mxCell id="7h7oOzLDd36lB9lt4ihk-280" value="" style="shape=partialRectangle;collapsible=0;dropTarget=0;pointerEvents=0;fillColor=none;top=0;left=0;bottom=0;right=0;points=[[0,0.5],[1,0.5]];portConstraint=eastwest;strokeColor=#457B9D;fontColor=#1D3557;" parent="7h7oOzLDd36lB9lt4ihk-270" vertex="1"><mxGeometry y="120" width="180" height="30" as="geometry"/></mxCell><mxCell id="7h7oOzLDd36lB9lt4ihk-281" value="" style="shape=partialRectangle;connectable=0;fillColor=none;top=0;left=0;bottom=0;right=0;editable=1;overflow=hidden;strokeColor=#457B9D;fontColor=#1D3557;" parent="7h7oOzLDd36lB9lt4ihk-280" vertex="1"><mxGeometry width="30" height="30" as="geometry"/></mxCell><mxCell id="7h7oOzLDd36lB9lt4ihk-282" value="keywords" style="shape=partialRectangle;connectable=0;fillColor=none;top=0;left=0;bottom=0;right=0;align=left;spacingLeft=6;overflow=hidden;strokeColor=#457B9D;fontColor=#1D3557;" parent="7h7oOzLDd36lB9lt4ihk-280" vertex="1"><mxGeometry x="30" width="150" height="30" as="geometry"/></mxCell><mxCell id="7h7oOzLDd36lB9lt4ihk-283" value="" style="edgeStyle=elbowEdgeStyle;fontSize=12;html=1;endArrow=ERmandOne;fontColor=#1D3557;entryX=1;entryY=0.5;entryDx=0;entryDy=0;exitX=0.002;exitY=0.103;exitDx=0;exitDy=0;exitPerimeter=0;labelBackgroundColor=#F1FAEE;strokeColor=#457B9D;" parent="7h7oOzLDd36lB9lt4ihk-435" source="7h7oOzLDd36lB9lt4ihk-270" target="7h7oOzLDd36lB9lt4ihk-267" edge="1"><mxGeometry width="100" height="100" relative="1" as="geometry"><mxPoint x="620" y="470" as="sourcePoint"/><mxPoint x="720" y="370" as="targetPoint"/><Array as="points"><mxPoint x="540" y="380"/><mxPoint x="550" y="420"/></Array></mxGeometry></mxCell><mxCell id="7h7oOzLDd36lB9lt4ihk-291" value="GalleryImage" style="shape=table;startSize=30;container=1;collapsible=1;childLayout=tableLayout;fixedRows=1;rowLines=0;fontStyle=1;align=center;resizeLast=1;fontSize=12;fontColor=#1D3557;strokeColor=#457B9D;fillColor=#A8DADC;" parent="7h7oOzLDd36lB9lt4ihk-435" vertex="1"><mxGeometry x="810" y="70" width="180" height="100" as="geometry"/></mxCell><mxCell id="7h7oOzLDd36lB9lt4ihk-292" value="" style="shape=partialRectangle;collapsible=0;dropTarget=0;pointerEvents=0;fillColor=none;top=0;left=0;bottom=1;right=0;points=[[0,0.5],[1,0.5]];portConstraint=eastwest;strokeColor=#457B9D;fontColor=#1D3557;" parent="7h7oOzLDd36lB9lt4ihk-291" vertex="1"><mxGeometry y="30" width="180" height="30" as="geometry"/></mxCell><mxCell id="7h7oOzLDd36lB9lt4ihk-293" value="PK" style="shape=partialRectangle;connectable=0;fillColor=none;top=0;left=0;bottom=0;right=0;fontStyle=1;overflow=hidden;strokeColor=#457B9D;fontColor=#1D3557;" parent="7h7oOzLDd36lB9lt4ihk-292" vertex="1"><mxGeometry width="30" height="30" as="geometry"/></mxCell><mxCell id="7h7oOzLDd36lB9lt4ihk-294" value="id" style="shape=partialRectangle;connectable=0;fillColor=none;top=0;left=0;bottom=0;right=0;align=left;spacingLeft=6;fontStyle=5;overflow=hidden;strokeColor=#457B9D;fontColor=#1D3557;" parent="7h7oOzLDd36lB9lt4ihk-292" vertex="1"><mxGeometry x="30" width="150" height="30" as="geometry"/></mxCell><mxCell id="7h7oOzLDd36lB9lt4ihk-295" value="" style="shape=partialRectangle;collapsible=0;dropTarget=0;pointerEvents=0;fillColor=none;top=0;left=0;bottom=0;right=0;points=[[0,0.5],[1,0.5]];portConstraint=eastwest;strokeColor=#457B9D;fontColor=#1D3557;" parent="7h7oOzLDd36lB9lt4ihk-291" vertex="1"><mxGeometry y="60" width="180" height="30" as="geometry"/></mxCell><mxCell id="7h7oOzLDd36lB9lt4ihk-296" value="" style="shape=partialRectangle;connectable=0;fillColor=none;top=0;left=0;bottom=0;right=0;editable=1;overflow=hidden;strokeColor=#457B9D;fontColor=#1D3557;" parent="7h7oOzLDd36lB9lt4ihk-295" vertex="1"><mxGeometry width="30" height="30" as="geometry"/></mxCell><mxCell id="7h7oOzLDd36lB9lt4ihk-297" value="image - ImageField" style="shape=partialRectangle;connectable=0;fillColor=none;top=0;left=0;bottom=0;right=0;align=left;spacingLeft=6;overflow=hidden;strokeColor=#457B9D;fontColor=#1D3557;" parent="7h7oOzLDd36lB9lt4ihk-295" vertex="1"><mxGeometry x="30" width="150" height="30" as="geometry"/></mxCell><mxCell id="7h7oOzLDd36lB9lt4ihk-326" value="" style="edgeStyle=elbowEdgeStyle;fontSize=12;html=1;endArrow=ERzeroToMany;endFill=1;fontColor=#1D3557;exitX=1;exitY=0.5;exitDx=0;exitDy=0;entryX=0;entryY=0.25;entryDx=0;entryDy=0;labelBackgroundColor=#F1FAEE;strokeColor=#457B9D;" parent="7h7oOzLDd36lB9lt4ihk-435" source="7h7oOzLDd36lB9lt4ihk-304" target="7h7oOzLDd36lB9lt4ihk-291" edge="1"><mxGeometry width="100" height="100" relative="1" as="geometry"><mxPoint x="920" y="350" as="sourcePoint"/><mxPoint x="1020" y="250" as="targetPoint"/><Array as="points"><mxPoint x="780" y="180"/></Array></mxGeometry></mxCell><mxCell id="7h7oOzLDd36lB9lt4ihk-327" value="" style="edgeStyle=elbowEdgeStyle;fontSize=12;html=1;endArrow=ERzeroToMany;endFill=1;fontColor=#1D3557;exitX=1;exitY=0.5;exitDx=0;exitDy=0;entryX=0;entryY=0.25;entryDx=0;entryDy=0;labelBackgroundColor=#F1FAEE;strokeColor=#457B9D;" parent="7h7oOzLDd36lB9lt4ihk-435" source="7h7oOzLDd36lB9lt4ihk-307" target="7h7oOzLDd36lB9lt4ihk-291" edge="1"><mxGeometry width="100" height="100" relative="1" as="geometry"><mxPoint x="820" y="312.20000000000005" as="sourcePoint"/><mxPoint x="830" y="80" as="targetPoint"/><Array as="points"><mxPoint x="780" y="180"/></Array></mxGeometry></mxCell><mxCell id="7h7oOzLDd36lB9lt4ihk-337" value="" style="edgeStyle=elbowEdgeStyle;fontSize=12;html=1;endArrow=ERmandOne;fontColor=#1D3557;exitX=0.002;exitY=0.103;exitDx=0;exitDy=0;exitPerimeter=0;labelBackgroundColor=#F1FAEE;strokeColor=#457B9D;" parent="7h7oOzLDd36lB9lt4ihk-435" source="7h7oOzLDd36lB9lt4ihk-270" edge="1"><mxGeometry width="100" height="100" relative="1" as="geometry"><mxPoint x="690.3600000000001" y="476.48" as="sourcePoint"/><mxPoint x="560" y="325" as="targetPoint"/><Array as="points"><mxPoint x="540" y="400"/><mxPoint x="700" y="410"/></Array></mxGeometry></mxCell><mxCell id="7h7oOzLDd36lB9lt4ihk-338" value="SiteServicesPage" style="shape=table;startSize=30;container=1;collapsible=1;childLayout=tableLayout;fixedRows=1;rowLines=0;fontStyle=1;align=center;resizeLast=1;fontSize=12;fontColor=#1D3557;strokeColor=#457B9D;fillColor=#A8DADC;" parent="7h7oOzLDd36lB9lt4ihk-435" vertex="1"><mxGeometry x="560" y="405" width="210" height="130" as="geometry"/></mxCell><mxCell id="7h7oOzLDd36lB9lt4ihk-339" value="" style="shape=partialRectangle;collapsible=0;dropTarget=0;pointerEvents=0;fillColor=none;top=0;left=0;bottom=1;right=0;points=[[0,0.5],[1,0.5]];portConstraint=eastwest;strokeColor=#457B9D;fontColor=#1D3557;" parent="7h7oOzLDd36lB9lt4ihk-338" vertex="1"><mxGeometry y="30" width="210" height="30" as="geometry"/></mxCell><mxCell id="7h7oOzLDd36lB9lt4ihk-340" value="PK" style="shape=partialRectangle;connectable=0;fillColor=none;top=0;left=0;bottom=0;right=0;fontStyle=1;overflow=hidden;strokeColor=#457B9D;fontColor=#1D3557;" parent="7h7oOzLDd36lB9lt4ihk-339" vertex="1"><mxGeometry width="30" height="30" as="geometry"/></mxCell><mxCell id="7h7oOzLDd36lB9lt4ihk-341" value="id" style="shape=partialRectangle;connectable=0;fillColor=none;top=0;left=0;bottom=0;right=0;align=left;spacingLeft=6;fontStyle=5;overflow=hidden;strokeColor=#457B9D;fontColor=#1D3557;" parent="7h7oOzLDd36lB9lt4ihk-339" vertex="1"><mxGeometry x="30" width="180" height="30" as="geometry"/></mxCell><mxCell id="7h7oOzLDd36lB9lt4ihk-351" value="" style="shape=partialRectangle;collapsible=0;dropTarget=0;pointerEvents=0;fillColor=none;top=0;left=0;bottom=0;right=0;points=[[0,0.5],[1,0.5]];portConstraint=eastwest;fontSize=12;fontColor=#1D3557;strokeColor=#457B9D;" parent="7h7oOzLDd36lB9lt4ihk-338" vertex="1"><mxGeometry y="60" width="210" height="30" as="geometry"/></mxCell><mxCell id="7h7oOzLDd36lB9lt4ihk-352" value="MTM" style="shape=partialRectangle;connectable=0;fillColor=none;top=0;left=0;bottom=0;right=0;fontStyle=0;overflow=hidden;strokeColor=#457B9D;fontColor=#1D3557;" parent="7h7oOzLDd36lB9lt4ihk-351" vertex="1"><mxGeometry width="30" height="30" as="geometry"/></mxCell><mxCell id="7h7oOzLDd36lB9lt4ihk-353" value="services - ManyToManyField" style="shape=partialRectangle;connectable=0;fillColor=none;top=0;left=0;bottom=0;right=0;align=left;spacingLeft=6;fontStyle=0;overflow=hidden;strokeColor=#457B9D;fontColor=#1D3557;" parent="7h7oOzLDd36lB9lt4ihk-351" vertex="1"><mxGeometry x="30" width="180" height="30" as="geometry"/></mxCell><mxCell id="7h7oOzLDd36lB9lt4ihk-359" value="" style="shape=partialRectangle;collapsible=0;dropTarget=0;pointerEvents=0;fillColor=none;top=0;left=0;bottom=0;right=0;points=[[0,0.5],[1,0.5]];portConstraint=eastwest;fontSize=12;fontColor=#1D3557;strokeColor=#457B9D;" parent="7h7oOzLDd36lB9lt4ihk-338" vertex="1"><mxGeometry y="90" width="210" height="30" as="geometry"/></mxCell><mxCell id="7h7oOzLDd36lB9lt4ihk-360" value="FK" style="shape=partialRectangle;connectable=0;fillColor=none;top=0;left=0;bottom=0;right=0;fontStyle=0;overflow=hidden;strokeColor=#457B9D;fontColor=#1D3557;" parent="7h7oOzLDd36lB9lt4ihk-359" vertex="1"><mxGeometry width="30" height="30" as="geometry"/></mxCell><mxCell id="7h7oOzLDd36lB9lt4ihk-361" value="seo_data - ForeignKey" style="shape=partialRectangle;connectable=0;fillColor=none;top=0;left=0;bottom=0;right=0;align=left;spacingLeft=6;fontStyle=0;overflow=hidden;strokeColor=#457B9D;fontColor=#1D3557;" parent="7h7oOzLDd36lB9lt4ihk-359" vertex="1"><mxGeometry x="30" width="180" height="30" as="geometry"/></mxCell><mxCell id="7h7oOzLDd36lB9lt4ihk-357" value="" style="edgeStyle=elbowEdgeStyle;fontSize=12;html=1;endArrow=ERzeroToMany;endFill=1;fontColor=#1D3557;exitX=0;exitY=0.5;exitDx=0;exitDy=0;entryX=0.008;entryY=0.103;entryDx=0;entryDy=0;entryPerimeter=0;labelBackgroundColor=#F1FAEE;strokeColor=#457B9D;" parent="7h7oOzLDd36lB9lt4ihk-435" source="7h7oOzLDd36lB9lt4ihk-354" target="7h7oOzLDd36lB9lt4ihk-238" edge="1"><mxGeometry width="100" height="100" relative="1" as="geometry"><mxPoint y="510" as="sourcePoint"/><mxPoint x="230" y="430" as="targetPoint"/><Array as="points"><mxPoint x="240" y="380"/></Array></mxGeometry></mxCell><mxCell id="7h7oOzLDd36lB9lt4ihk-358" value="" style="edgeStyle=elbowEdgeStyle;fontSize=12;html=1;endArrow=ERzeroToMany;endFill=1;fontColor=#1D3557;exitX=0;exitY=0.5;exitDx=0;exitDy=0;entryX=1.017;entryY=0.103;entryDx=0;entryDy=0;entryPerimeter=0;labelBackgroundColor=#F1FAEE;strokeColor=#457B9D;" parent="7h7oOzLDd36lB9lt4ihk-435" source="7h7oOzLDd36lB9lt4ihk-351" target="7h7oOzLDd36lB9lt4ihk-238" edge="1"><mxGeometry width="100" height="100" relative="1" as="geometry"><mxPoint x="160" y="520" as="sourcePoint"/><mxPoint x="162.07999999999993" y="571.48" as="targetPoint"/><Array as="points"><mxPoint x="550" y="440"/><mxPoint x="130" y="545"/></Array></mxGeometry></mxCell><mxCell id="7h7oOzLDd36lB9lt4ihk-362" value="" style="edgeStyle=elbowEdgeStyle;fontSize=12;html=1;endArrow=ERmandOne;fontColor=#1D3557;entryX=1;entryY=0.5;entryDx=0;entryDy=0;exitX=0;exitY=0.125;exitDx=0;exitDy=0;exitPerimeter=0;labelBackgroundColor=#F1FAEE;strokeColor=#457B9D;" parent="7h7oOzLDd36lB9lt4ihk-435" source="7h7oOzLDd36lB9lt4ihk-270" target="7h7oOzLDd36lB9lt4ihk-359" edge="1"><mxGeometry width="100" height="100" relative="1" as="geometry"><mxPoint x="680" y="470" as="sourcePoint"/><mxPoint x="670" y="700" as="targetPoint"/><Array as="points"><mxPoint x="790" y="410"/><mxPoint x="810" y="785"/></Array></mxGeometry></mxCell><mxCell id="7h7oOzLDd36lB9lt4ihk-364" value="Document" style="shape=table;startSize=30;container=1;collapsible=1;childLayout=tableLayout;fixedRows=1;rowLines=0;fontStyle=1;align=center;resizeLast=1;fontSize=12;fontColor=#1D3557;strokeColor=#457B9D;fillColor=#A8DADC;" parent="7h7oOzLDd36lB9lt4ihk-435" vertex="1"><mxGeometry x="810" y="185" width="180" height="130" as="geometry"/></mxCell><mxCell id="7h7oOzLDd36lB9lt4ihk-365" value="" style="shape=partialRectangle;collapsible=0;dropTarget=0;pointerEvents=0;fillColor=none;top=0;left=0;bottom=1;right=0;points=[[0,0.5],[1,0.5]];portConstraint=eastwest;strokeColor=#457B9D;fontColor=#1D3557;" parent="7h7oOzLDd36lB9lt4ihk-364" vertex="1"><mxGeometry y="30" width="180" height="30" as="geometry"/></mxCell><mxCell id="7h7oOzLDd36lB9lt4ihk-366" value="PK" style="shape=partialRectangle;connectable=0;fillColor=none;top=0;left=0;bottom=0;right=0;fontStyle=1;overflow=hidden;strokeColor=#457B9D;fontColor=#1D3557;" parent="7h7oOzLDd36lB9lt4ihk-365" vertex="1"><mxGeometry width="30" height="30" as="geometry"/></mxCell><mxCell id="7h7oOzLDd36lB9lt4ihk-367" value="id" style="shape=partialRectangle;connectable=0;fillColor=none;top=0;left=0;bottom=0;right=0;align=left;spacingLeft=6;fontStyle=5;overflow=hidden;strokeColor=#457B9D;fontColor=#1D3557;" parent="7h7oOzLDd36lB9lt4ihk-365" vertex="1"><mxGeometry x="30" width="150" height="30" as="geometry"/></mxCell><mxCell id="7h7oOzLDd36lB9lt4ihk-381" value="" style="shape=partialRectangle;collapsible=0;dropTarget=0;pointerEvents=0;fillColor=none;top=0;left=0;bottom=0;right=0;points=[[0,0.5],[1,0.5]];portConstraint=eastwest;fontSize=12;fontColor=#1D3557;strokeColor=#457B9D;" parent="7h7oOzLDd36lB9lt4ihk-364" vertex="1"><mxGeometry y="60" width="180" height="30" as="geometry"/></mxCell><mxCell id="7h7oOzLDd36lB9lt4ihk-382" value="" style="shape=partialRectangle;connectable=0;fillColor=none;top=0;left=0;bottom=0;right=0;editable=1;overflow=hidden;strokeColor=#457B9D;fontColor=#1D3557;" parent="7h7oOzLDd36lB9lt4ihk-381" vertex="1"><mxGeometry width="30" height="30" as="geometry"/></mxCell><mxCell id="7h7oOzLDd36lB9lt4ihk-383" value="name - CharField" style="shape=partialRectangle;connectable=0;fillColor=none;top=0;left=0;bottom=0;right=0;align=left;spacingLeft=6;overflow=hidden;strokeColor=#457B9D;fontColor=#1D3557;" parent="7h7oOzLDd36lB9lt4ihk-381" vertex="1"><mxGeometry x="30" width="150" height="30" as="geometry"/></mxCell><mxCell id="7h7oOzLDd36lB9lt4ihk-368" value="" style="shape=partialRectangle;collapsible=0;dropTarget=0;pointerEvents=0;fillColor=none;top=0;left=0;bottom=0;right=0;points=[[0,0.5],[1,0.5]];portConstraint=eastwest;strokeColor=#457B9D;fontColor=#1D3557;" parent="7h7oOzLDd36lB9lt4ihk-364" vertex="1"><mxGeometry y="90" width="180" height="30" as="geometry"/></mxCell><mxCell id="7h7oOzLDd36lB9lt4ihk-369" value="" style="shape=partialRectangle;connectable=0;fillColor=none;top=0;left=0;bottom=0;right=0;editable=1;overflow=hidden;strokeColor=#457B9D;fontColor=#1D3557;" parent="7h7oOzLDd36lB9lt4ihk-368" vertex="1"><mxGeometry width="30" height="30" as="geometry"/></mxCell><mxCell id="7h7oOzLDd36lB9lt4ihk-370" value="file - FileField" style="shape=partialRectangle;connectable=0;fillColor=none;top=0;left=0;bottom=0;right=0;align=left;spacingLeft=6;overflow=hidden;strokeColor=#457B9D;fontColor=#1D3557;" parent="7h7oOzLDd36lB9lt4ihk-368" vertex="1"><mxGeometry x="30" width="150" height="30" as="geometry"/></mxCell><mxCell id="7h7oOzLDd36lB9lt4ihk-380" value="" style="edgeStyle=elbowEdgeStyle;fontSize=12;html=1;endArrow=ERzeroToMany;endFill=1;fontColor=#1D3557;exitX=1;exitY=0.5;exitDx=0;exitDy=0;labelBackgroundColor=#F1FAEE;strokeColor=#457B9D;" parent="7h7oOzLDd36lB9lt4ihk-435" source="7h7oOzLDd36lB9lt4ihk-377" edge="1"><mxGeometry width="100" height="100" relative="1" as="geometry"><mxPoint x="1140" y="380" as="sourcePoint"/><mxPoint x="810" y="200" as="targetPoint"/><Array as="points"><mxPoint x="790" y="260"/></Array></mxGeometry></mxCell><mxCell id="7h7oOzLDd36lB9lt4ihk-384" value="SiteContacts" style="shape=table;startSize=30;container=1;collapsible=1;childLayout=tableLayout;fixedRows=1;rowLines=0;fontStyle=1;align=center;resizeLast=1;fontSize=12;fontColor=#1D3557;strokeColor=#457B9D;fillColor=#A8DADC;" parent="7h7oOzLDd36lB9lt4ihk-435" vertex="1"><mxGeometry x="30" y="220" width="200" height="370" as="geometry"/></mxCell><mxCell id="7h7oOzLDd36lB9lt4ihk-385" value="" style="shape=partialRectangle;collapsible=0;dropTarget=0;pointerEvents=0;fillColor=none;top=0;left=0;bottom=1;right=0;points=[[0,0.5],[1,0.5]];portConstraint=eastwest;strokeColor=#457B9D;fontColor=#1D3557;" parent="7h7oOzLDd36lB9lt4ihk-384" vertex="1"><mxGeometry y="30" width="200" height="30" as="geometry"/></mxCell><mxCell id="7h7oOzLDd36lB9lt4ihk-386" value="PK" style="shape=partialRectangle;connectable=0;fillColor=none;top=0;left=0;bottom=0;right=0;fontStyle=1;overflow=hidden;strokeColor=#457B9D;fontColor=#1D3557;" parent="7h7oOzLDd36lB9lt4ihk-385" vertex="1"><mxGeometry width="30" height="30" as="geometry"/></mxCell><mxCell id="7h7oOzLDd36lB9lt4ihk-387" value="id" style="shape=partialRectangle;connectable=0;fillColor=none;top=0;left=0;bottom=0;right=0;align=left;spacingLeft=6;fontStyle=5;overflow=hidden;strokeColor=#457B9D;fontColor=#1D3557;" parent="7h7oOzLDd36lB9lt4ihk-385" vertex="1"><mxGeometry x="30" width="170" height="30" as="geometry"/></mxCell><mxCell id="7h7oOzLDd36lB9lt4ihk-388" value="" style="shape=partialRectangle;collapsible=0;dropTarget=0;pointerEvents=0;fillColor=none;top=0;left=0;bottom=0;right=0;points=[[0,0.5],[1,0.5]];portConstraint=eastwest;strokeColor=#457B9D;fontColor=#1D3557;" parent="7h7oOzLDd36lB9lt4ihk-384" vertex="1"><mxGeometry y="60" width="200" height="30" as="geometry"/></mxCell><mxCell id="7h7oOzLDd36lB9lt4ihk-389" value="" style="shape=partialRectangle;connectable=0;fillColor=none;top=0;left=0;bottom=0;right=0;editable=1;overflow=hidden;strokeColor=#457B9D;fontColor=#1D3557;" parent="7h7oOzLDd36lB9lt4ihk-388" vertex="1"><mxGeometry width="30" height="30" as="geometry"/></mxCell><mxCell id="7h7oOzLDd36lB9lt4ihk-390" value="title - CharField" style="shape=partialRectangle;connectable=0;fillColor=none;top=0;left=0;bottom=0;right=0;align=left;spacingLeft=6;overflow=hidden;strokeColor=#457B9D;fontColor=#1D3557;" parent="7h7oOzLDd36lB9lt4ihk-388" vertex="1"><mxGeometry x="30" width="170" height="30" as="geometry"/></mxCell><mxCell id="7h7oOzLDd36lB9lt4ihk-391" value="" style="shape=partialRectangle;collapsible=0;dropTarget=0;pointerEvents=0;fillColor=none;top=0;left=0;bottom=0;right=0;points=[[0,0.5],[1,0.5]];portConstraint=eastwest;strokeColor=#457B9D;fontColor=#1D3557;" parent="7h7oOzLDd36lB9lt4ihk-384" vertex="1"><mxGeometry y="90" width="200" height="30" as="geometry"/></mxCell><mxCell id="7h7oOzLDd36lB9lt4ihk-392" value="" style="shape=partialRectangle;connectable=0;fillColor=none;top=0;left=0;bottom=0;right=0;editable=1;overflow=hidden;strokeColor=#457B9D;fontColor=#1D3557;" parent="7h7oOzLDd36lB9lt4ihk-391" vertex="1"><mxGeometry width="30" height="30" as="geometry"/></mxCell><mxCell id="7h7oOzLDd36lB9lt4ihk-393" value="description - CharField" style="shape=partialRectangle;connectable=0;fillColor=none;top=0;left=0;bottom=0;right=0;align=left;spacingLeft=6;overflow=hidden;strokeColor=#457B9D;fontColor=#1D3557;" parent="7h7oOzLDd36lB9lt4ihk-391" vertex="1"><mxGeometry x="30" width="170" height="30" as="geometry"/></mxCell><mxCell id="7h7oOzLDd36lB9lt4ihk-394" value="" style="shape=partialRectangle;collapsible=0;dropTarget=0;pointerEvents=0;fillColor=none;top=0;left=0;bottom=0;right=0;points=[[0,0.5],[1,0.5]];portConstraint=eastwest;strokeColor=#457B9D;fontColor=#1D3557;" parent="7h7oOzLDd36lB9lt4ihk-384" vertex="1"><mxGeometry y="120" width="200" height="30" as="geometry"/></mxCell><mxCell id="7h7oOzLDd36lB9lt4ihk-395" value="" style="shape=partialRectangle;connectable=0;fillColor=none;top=0;left=0;bottom=0;right=0;editable=1;overflow=hidden;strokeColor=#457B9D;fontColor=#1D3557;" parent="7h7oOzLDd36lB9lt4ihk-394" vertex="1"><mxGeometry width="30" height="30" as="geometry"/></mxCell><mxCell id="7h7oOzLDd36lB9lt4ihk-396" value="website - URLField" style="shape=partialRectangle;connectable=0;fillColor=none;top=0;left=0;bottom=0;right=0;align=left;spacingLeft=6;overflow=hidden;strokeColor=#457B9D;fontColor=#1D3557;" parent="7h7oOzLDd36lB9lt4ihk-394" vertex="1"><mxGeometry x="30" width="170" height="30" as="geometry"/></mxCell><mxCell id="7h7oOzLDd36lB9lt4ihk-397" value="" style="shape=partialRectangle;collapsible=0;dropTarget=0;pointerEvents=0;fillColor=none;top=0;left=0;bottom=0;right=0;points=[[0,0.5],[1,0.5]];portConstraint=eastwest;fontSize=12;fontColor=#1D3557;strokeColor=#457B9D;" parent="7h7oOzLDd36lB9lt4ihk-384" vertex="1"><mxGeometry y="150" width="200" height="30" as="geometry"/></mxCell><mxCell id="7h7oOzLDd36lB9lt4ihk-398" value="" style="shape=partialRectangle;connectable=0;fillColor=none;top=0;left=0;bottom=0;right=0;editable=1;overflow=hidden;strokeColor=#457B9D;fontColor=#1D3557;" parent="7h7oOzLDd36lB9lt4ihk-397" vertex="1"><mxGeometry width="30" height="30" as="geometry"/></mxCell><mxCell id="7h7oOzLDd36lB9lt4ihk-399" value="name - CharField" style="shape=partialRectangle;connectable=0;fillColor=none;top=0;left=0;bottom=0;right=0;align=left;spacingLeft=6;overflow=hidden;strokeColor=#457B9D;fontColor=#1D3557;" parent="7h7oOzLDd36lB9lt4ihk-397" vertex="1"><mxGeometry x="30" width="170" height="30" as="geometry"/></mxCell><mxCell id="7h7oOzLDd36lB9lt4ihk-406" value="" style="shape=partialRectangle;collapsible=0;dropTarget=0;pointerEvents=0;fillColor=none;top=0;left=0;bottom=0;right=0;points=[[0,0.5],[1,0.5]];portConstraint=eastwest;fontSize=12;fontColor=#1D3557;strokeColor=#457B9D;" parent="7h7oOzLDd36lB9lt4ihk-384" vertex="1"><mxGeometry y="180" width="200" height="30" as="geometry"/></mxCell><mxCell id="7h7oOzLDd36lB9lt4ihk-407" value="" style="shape=partialRectangle;connectable=0;fillColor=none;top=0;left=0;bottom=0;right=0;editable=1;overflow=hidden;strokeColor=#457B9D;fontColor=#1D3557;" parent="7h7oOzLDd36lB9lt4ihk-406" vertex="1"><mxGeometry width="30" height="30" as="geometry"/></mxCell><mxCell id="7h7oOzLDd36lB9lt4ihk-408" value="phone - PhoneNumberField" style="shape=partialRectangle;connectable=0;fillColor=none;top=0;left=0;bottom=0;right=0;align=left;spacingLeft=6;overflow=hidden;strokeColor=#457B9D;fontColor=#1D3557;" parent="7h7oOzLDd36lB9lt4ihk-406" vertex="1"><mxGeometry x="30" width="170" height="30" as="geometry"/></mxCell><mxCell id="7h7oOzLDd36lB9lt4ihk-427" value="" style="shape=partialRectangle;collapsible=0;dropTarget=0;pointerEvents=0;fillColor=none;top=0;left=0;bottom=0;right=0;points=[[0,0.5],[1,0.5]];portConstraint=eastwest;fontSize=12;fontColor=#1D3557;strokeColor=#457B9D;" parent="7h7oOzLDd36lB9lt4ihk-384" vertex="1"><mxGeometry y="210" width="200" height="30" as="geometry"/></mxCell><mxCell id="7h7oOzLDd36lB9lt4ihk-428" value="" style="shape=partialRectangle;connectable=0;fillColor=none;top=0;left=0;bottom=0;right=0;editable=1;overflow=hidden;strokeColor=#457B9D;fontColor=#1D3557;" parent="7h7oOzLDd36lB9lt4ihk-427" vertex="1"><mxGeometry width="30" height="30" as="geometry"/></mxCell><mxCell id="7h7oOzLDd36lB9lt4ihk-429" value="map - CharField" style="shape=partialRectangle;connectable=0;fillColor=none;top=0;left=0;bottom=0;right=0;align=left;spacingLeft=6;overflow=hidden;strokeColor=#457B9D;fontColor=#1D3557;" parent="7h7oOzLDd36lB9lt4ihk-427" vertex="1"><mxGeometry x="30" width="170" height="30" as="geometry"/></mxCell><mxCell id="7h7oOzLDd36lB9lt4ihk-409" value="" style="shape=partialRectangle;collapsible=0;dropTarget=0;pointerEvents=0;fillColor=none;top=0;left=0;bottom=0;right=0;points=[[0,0.5],[1,0.5]];portConstraint=eastwest;fontSize=12;fontColor=#1D3557;strokeColor=#457B9D;" parent="7h7oOzLDd36lB9lt4ihk-384" vertex="1"><mxGeometry y="240" width="200" height="30" as="geometry"/></mxCell><mxCell id="7h7oOzLDd36lB9lt4ihk-410" value="" style="shape=partialRectangle;connectable=0;fillColor=none;top=0;left=0;bottom=0;right=0;editable=1;overflow=hidden;strokeColor=#457B9D;fontColor=#1D3557;" parent="7h7oOzLDd36lB9lt4ihk-409" vertex="1"><mxGeometry width="30" height="30" as="geometry"/></mxCell><mxCell id="7h7oOzLDd36lB9lt4ihk-411" value="email - EmailField" style="shape=partialRectangle;connectable=0;fillColor=none;top=0;left=0;bottom=0;right=0;align=left;spacingLeft=6;overflow=hidden;strokeColor=#457B9D;fontColor=#1D3557;" parent="7h7oOzLDd36lB9lt4ihk-409" vertex="1"><mxGeometry x="30" width="170" height="30" as="geometry"/></mxCell><mxCell id="7h7oOzLDd36lB9lt4ihk-400" value="" style="shape=partialRectangle;collapsible=0;dropTarget=0;pointerEvents=0;fillColor=none;top=0;left=0;bottom=0;right=0;points=[[0,0.5],[1,0.5]];portConstraint=eastwest;fontSize=12;fontColor=#1D3557;strokeColor=#457B9D;" parent="7h7oOzLDd36lB9lt4ihk-384" vertex="1"><mxGeometry y="270" width="200" height="30" as="geometry"/></mxCell><mxCell id="7h7oOzLDd36lB9lt4ihk-401" value="" style="shape=partialRectangle;connectable=0;fillColor=none;top=0;left=0;bottom=0;right=0;editable=1;overflow=hidden;strokeColor=#457B9D;fontColor=#1D3557;" parent="7h7oOzLDd36lB9lt4ihk-400" vertex="1"><mxGeometry width="30" height="30" as="geometry"/></mxCell><mxCell id="7h7oOzLDd36lB9lt4ihk-402" value="location - CharField" style="shape=partialRectangle;connectable=0;fillColor=none;top=0;left=0;bottom=0;right=0;align=left;spacingLeft=6;overflow=hidden;strokeColor=#457B9D;fontColor=#1D3557;" parent="7h7oOzLDd36lB9lt4ihk-400" vertex="1"><mxGeometry x="30" width="170" height="30" as="geometry"/></mxCell><mxCell id="7h7oOzLDd36lB9lt4ihk-403" value="" style="shape=partialRectangle;collapsible=0;dropTarget=0;pointerEvents=0;fillColor=none;top=0;left=0;bottom=0;right=0;points=[[0,0.5],[1,0.5]];portConstraint=eastwest;fontSize=12;fontColor=#1D3557;strokeColor=#457B9D;" parent="7h7oOzLDd36lB9lt4ihk-384" vertex="1"><mxGeometry y="300" width="200" height="30" as="geometry"/></mxCell><mxCell id="7h7oOzLDd36lB9lt4ihk-404" value="" style="shape=partialRectangle;connectable=0;fillColor=none;top=0;left=0;bottom=0;right=0;editable=1;overflow=hidden;strokeColor=#457B9D;fontColor=#1D3557;" parent="7h7oOzLDd36lB9lt4ihk-403" vertex="1"><mxGeometry width="30" height="30" as="geometry"/></mxCell><mxCell id="7h7oOzLDd36lB9lt4ihk-405" value="address - CharField" style="shape=partialRectangle;connectable=0;fillColor=none;top=0;left=0;bottom=0;right=0;align=left;spacingLeft=6;overflow=hidden;strokeColor=#457B9D;fontColor=#1D3557;" parent="7h7oOzLDd36lB9lt4ihk-403" vertex="1"><mxGeometry x="30" width="170" height="30" as="geometry"/></mxCell><mxCell id="7h7oOzLDd36lB9lt4ihk-431" value="" style="shape=partialRectangle;collapsible=0;dropTarget=0;pointerEvents=0;fillColor=none;top=0;left=0;bottom=0;right=0;points=[[0,0.5],[1,0.5]];portConstraint=eastwest;fontSize=12;fontColor=#1D3557;strokeColor=#457B9D;" parent="7h7oOzLDd36lB9lt4ihk-384" vertex="1"><mxGeometry y="330" width="200" height="30" as="geometry"/></mxCell><mxCell id="7h7oOzLDd36lB9lt4ihk-432" value="FK" style="shape=partialRectangle;connectable=0;fillColor=none;top=0;left=0;bottom=0;right=0;fontStyle=0;overflow=hidden;strokeColor=#457B9D;fontColor=#1D3557;" parent="7h7oOzLDd36lB9lt4ihk-431" vertex="1"><mxGeometry width="30" height="30" as="geometry"/></mxCell><mxCell id="7h7oOzLDd36lB9lt4ihk-433" value="seo_data - ForeignKey" style="shape=partialRectangle;connectable=0;fillColor=none;top=0;left=0;bottom=0;right=0;align=left;spacingLeft=6;fontStyle=0;overflow=hidden;strokeColor=#457B9D;fontColor=#1D3557;" parent="7h7oOzLDd36lB9lt4ihk-431" vertex="1"><mxGeometry x="30" width="170" height="30" as="geometry"/></mxCell><mxCell id="7h7oOzLDd36lB9lt4ihk-430" value="" style="edgeStyle=elbowEdgeStyle;fontSize=12;html=1;endArrow=ERmandOne;fontColor=#1D3557;exitX=0;exitY=0.125;exitDx=0;exitDy=0;exitPerimeter=0;entryX=1;entryY=0.5;entryDx=0;entryDy=0;labelBackgroundColor=#F1FAEE;strokeColor=#457B9D;" parent="7h7oOzLDd36lB9lt4ihk-435" target="7h7oOzLDd36lB9lt4ihk-431" edge="1"><mxGeometry width="100" height="100" relative="1" as="geometry"><mxPoint x="820" y="410" as="sourcePoint"/><mxPoint x="260" y="580" as="targetPoint"/><Array as="points"><mxPoint x="800" y="420"/><mxPoint x="820" y="795"/></Array></mxGeometry></mxCell></root></mxGraphModel></diagram></mxfile>